STARTFONT 2.1
COMMENT
COMMENT Converted from OpenType font "Q:\font stuff\winfont\CachetStd-Bold.otf" by "otf2bdf 3.0".
COMMENT
FONT -FreeType-Cachet Std Bold-Medium-R-Normal--214-1550-100-100-P-976-ISO10646-1
SIZE 155 100 100
FONTBOUNDINGBOX 298 263 -36 -51
STARTPROPERTIES 19
FOUNDRY "FreeType"
FAMILY_NAME "Cachet Std Bold"
WEIGHT_NAME "Medium"
SLANT "R"
SETWIDTH_NAME "Normal"
ADD_STYLE_NAME ""
PIXEL_SIZE 214
POINT_SIZE 1550
RESOLUTION_X 100
RESOLUTION_Y 100
SPACING "P"
AVERAGE_WIDTH 976
CHARSET_REGISTRY "ISO10646"
CHARSET_ENCODING "1"
FONT_ASCENT 147
FONT_DESCENT 67
COPYRIGHT "Digitized data copyright Monotype Imaging Inc. All rights reserved."
_OTF_FONTFILE "Q:\font stuff\winfont\CachetStd-Bold.otf"
_OTF_PSNAME "CachetStd-Bold"
ENDPROPERTIES
CHARS 252
STARTCHAR 0020
ENCODING 32
SWIDTH 246 0
DWIDTH 53 0
BBX 0 0 0 0
BITMAP
ENDCHAR
STARTCHAR 0021
ENCODING 33
SWIDTH 320 0
DWIDTH 69 0
BBX 30 144 19 0
BITMAP
01FFFE00
0FFFFF80
1FFFFFE0
3FFFFFF0
7FFFFFF0
7FFFFFF8
7FFFFFF8
FFFFFFFC
FFFFFFFC
FFFFFFFC
FFFFFFFC
FFFFFFFC
FFFFFFFC
FFFFFFFC
FFFFFFFC
FFFFFFFC
FFFFFFFC
FFFFFFFC
FFFFFFFC
FFFFFFFC
FFFFFFFC
FFFFFFFC
FFFFFFFC
FFFFFFFC
FFFFFFFC
FFFFFFFC
FFFFFFFC
FFFFFFFC
FFFFFFFC
FFFFFFFC
FFFFFFFC
FFFFFFFC
FFFFFFFC
FFFFFFFC
FFFFFFFC
FFFFFFFC
FFFFFFFC
FFFFFFFC
FFFFFFFC
FFFFFFFC
FFFFFFFC
FFFFFFFC
FFFFFFFC
FFFFFFFC
FFFFFFFC
FFFFFFFC
FFFFFFFC
FFFFFFFC
FFFFFFFC
FFFFFFFC
FFFFFFFC
FFFFFFFC
FFFFFFFC
FFFFFFFC
FFFFFFFC
FFFFFFFC
FFFFFFFC
FFFFFFFC
FFFFFFFC
FFFFFFFC
FFFFFFFC
FFFFFFFC
FFFFFFFC
FFFFFFFC
FFFFFFFC
FFFFFFFC
FFFFFFFC
FFFFFFFC
FFFFFFFC
FFFFFFFC
FFFFFFFC
FFFFFFFC
FFFFFFFC
FFFFFFFC
FFFFFFFC
FFFFFFFC
FFFFFFFC
FFFFFFFC
FFFFFFFC
FFFFFFFC
FFFFFFFC
FFFFFFFC
FFFFFFFC
FFFFFFFC
FFFFFFF8
7FFFFFF8
7FFFFFF0
7FFFFFF0
3FFFFFE0
1FFFFF80
03FFFC00
00000000
00000000
00000000
00000000
00000000
00000000
00000000
00000000
00000000
00000000
00000000
00078000
001FE000
003FF000
007FF800
00FFFC00
01FFFE00
03FFFF00
03FFFF00
07FFFF80
0FFFFFC0
0FFFFFC0
1FFFFFE0
1FFFFFF0
3FFFFFF0
3FFFFFF8
7FFFFFF8
7FFFFFF8
7FFFFFFC
FFFFFFFC
FFFFFFFC
FFFFFFFC
FFFFFFFC
FFFFFFFC
FFFFFFFC
7FFFFFF8
7FFFFFF8
7FFFFFF8
3FFFFFF0
3FFFFFF0
1FFFFFE0
1FFFFFE0
0FFFFFC0
0FFFFFC0
07FFFF80
03FFFF00
03FFFF00
01FFFE00
00FFFC00
007FF800
003FF000
000FE000
00078000
ENDCHAR
STARTCHAR 0022
ENCODING 34
SWIDTH 408 0
DWIDTH 88 0
BBX 69 41 9 122
BITMAP
01FFFC000003FFF800
0FFFFF80001FFFFF00
3FFFFFE0007FFFFFC0
7FFFFFF000FFFFFFE0
7FFFFFF000FFFFFFE0
FFFFFFF801FFFFFFF0
FFFFFFF801FFFFFFF0
FFFFFFFC01FFFFFFF8
FFFFFFFC01FFFFFFF8
FFFFFFFC01FFFFFFF8
FFFFFFFC01FFFFFFF8
FFFFFFFC01FFFFFFF8
FFFFFFFC01FFFFFFF8
FFFFFFFC01FFFFFFF8
FFFFFFFC01FFFFFFF8
FFFFFFF801FFFFFFF0
FFFFFFF801FFFFFFF0
FFFFFFF801FFFFFFF0
7FFFFFF800FFFFFFF0
7FFFFFF800FFFFFFF0
7FFFFFF800FFFFFFF0
7FFFFFF800FFFFFFF0
7FFFFFF800FFFFFFF0
7FFFFFF800FFFFFFF0
7FFFFFF800FFFFFFE0
7FFFFFF000FFFFFFE0
7FFFFFF000FFFFFFE0
3FFFFFF0007FFFFFE0
3FFFFFF0007FFFFFE0
3FFFFFF0007FFFFFE0
3FFFFFF0007FFFFFE0
3FFFFFF0007FFFFFE0
3FFFFFF0007FFFFFE0
3FFFFFE0007FFFFFC0
1FFFFFE0007FFFFFC0
1FFFFFE0003FFFFFC0
1FFFFFC0003FFFFF80
0FFFFFC0001FFFFF80
07FFFF80000FFFFF00
03FFFE000007FFFE00
007FF8000000FFF000
ENDCHAR
STARTCHAR 0023
ENCODING 35
SWIDTH 641 0
DWIDTH 138 0
BBX 118 130 9 6
BITMAP
0000000007FFFFFF000007FFFFFE00
0000000007FFFFFF000007FFFFFE00
0000000007FFFFFE00000FFFFFFE00
0000000007FFFFFE00000FFFFFFE00
000000000FFFFFFE00000FFFFFFC00
000000000FFFFFFE00000FFFFFFC00
000000000FFFFFFC00001FFFFFFC00
000000000FFFFFFC00001FFFFFFC00
000000001FFFFFFC00001FFFFFF800
000000001FFFFFFC00001FFFFFF800
000000001FFFFFF800003FFFFFF800
000000001FFFFFF800003FFFFFF800
000000003FFFFFF800003FFFFFF000
000000003FFFFFF800003FFFFFF000
000000003FFFFFF800003FFFFFF000
000000003FFFFFF000007FFFFFF000
000000007FFFFFF000007FFFFFF000
000000007FFFFFF000007FFFFFE000
000000007FFFFFF000007FFFFFE000
000000007FFFFFE00000FFFFFFE000
00000000FFFFFFE00000FFFFFFE000
00000000FFFFFFE00000FFFFFFC000
00000000FFFFFFE00000FFFFFFC000
00000000FFFFFFC00001FFFFFFC000
00000001FFFFFFC00001FFFFFFC000
00000001FFFFFFC00001FFFFFF8000
00000001FFFFFFC00001FFFFFF8000
00000001FFFFFFC00003FFFFFF8000
00000003FFFFFF800003FFFFFF8000
00000003FFFFFF800003FFFFFF0000
00000003FFFFFF800003FFFFFF0000
00000003FFFFFF800003FFFFFF0000
00000007FFFFFF000007FFFFFF0000
0001FFFFFFFFFFFFFFFFFFFFFFFFFC
0001FFFFFFFFFFFFFFFFFFFFFFFFF8
0001FFFFFFFFFFFFFFFFFFFFFFFFF8
0003FFFFFFFFFFFFFFFFFFFFFFFFF8
0003FFFFFFFFFFFFFFFFFFFFFFFFF8
0003FFFFFFFFFFFFFFFFFFFFFFFFF0
0003FFFFFFFFFFFFFFFFFFFFFFFFF0
0007FFFFFFFFFFFFFFFFFFFFFFFFF0
0007FFFFFFFFFFFFFFFFFFFFFFFFF0
0007FFFFFFFFFFFFFFFFFFFFFFFFE0
0007FFFFFFFFFFFFFFFFFFFFFFFFE0
000FFFFFFFFFFFFFFFFFFFFFFFFFE0
000FFFFFFFFFFFFFFFFFFFFFFFFFE0
000FFFFFFFFFFFFFFFFFFFFFFFFFC0
000FFFFFFFFFFFFFFFFFFFFFFFFFC0
001FFFFFFFFFFFFFFFFFFFFFFFFFC0
001FFFFFFFFFFFFFFFFFFFFFFFFFC0
001FFFFFFFFFFFFFFFFFFFFFFFFF80
001FFFFFFFFFFFFFFFFFFFFFFFFF80
001FFFFFFFFFFFFFFFFFFFFFFFFF80
003FFFFFFFFFFFFFFFFFFFFFFFFF80
003FFFFFFFFFFFFFFFFFFFFFFFFF00
003FFFFFFFFFFFFFFFFFFFFFFFFF00
000000FFFFFFE00001FFFFFFC00000
000001FFFFFFC00001FFFFFFC00000
000001FFFFFFC00001FFFFFF800000
000001FFFFFFC00001FFFFFF800000
000001FFFFFFC00003FFFFFF800000
000001FFFFFF800003FFFFFF800000
000003FFFFFF800003FFFFFF000000
000003FFFFFF800003FFFFFF000000
000003FFFFFF800007FFFFFF000000
000003FFFFFF800007FFFFFF000000
000007FFFFFF000007FFFFFF000000
000007FFFFFF000007FFFFFE000000
000007FFFFFF000007FFFFFE000000
000007FFFFFF00000FFFFFFE000000
00000FFFFFFE00000FFFFFFE000000
00000FFFFFFE00000FFFFFFC000000
00000FFFFFFE00000FFFFFFC000000
00000FFFFFFE00001FFFFFFC000000
07FFFFFFFFFFFFFFFFFFFFFFFFE000
07FFFFFFFFFFFFFFFFFFFFFFFFE000
07FFFFFFFFFFFFFFFFFFFFFFFFE000
0FFFFFFFFFFFFFFFFFFFFFFFFFE000
0FFFFFFFFFFFFFFFFFFFFFFFFFC000
0FFFFFFFFFFFFFFFFFFFFFFFFFC000
0FFFFFFFFFFFFFFFFFFFFFFFFFC000
1FFFFFFFFFFFFFFFFFFFFFFFFFC000
1FFFFFFFFFFFFFFFFFFFFFFFFF8000
1FFFFFFFFFFFFFFFFFFFFFFFFF8000
1FFFFFFFFFFFFFFFFFFFFFFFFF8000
3FFFFFFFFFFFFFFFFFFFFFFFFF8000
3FFFFFFFFFFFFFFFFFFFFFFFFF0000
3FFFFFFFFFFFFFFFFFFFFFFFFF0000
3FFFFFFFFFFFFFFFFFFFFFFFFF0000
3FFFFFFFFFFFFFFFFFFFFFFFFF0000
7FFFFFFFFFFFFFFFFFFFFFFFFE0000
7FFFFFFFFFFFFFFFFFFFFFFFFE0000
7FFFFFFFFFFFFFFFFFFFFFFFFE0000
7FFFFFFFFFFFFFFFFFFFFFFFFE0000
FFFFFFFFFFFFFFFFFFFFFFFFFC0000
FFFFFFFFFFFFFFFFFFFFFFFFFC0000
FFFFFFFFFFFFFFFFFFFFFFFFFC0000
0003FFFFFF800007FFFFFF00000000
0003FFFFFF800007FFFFFF00000000
0007FFFFFF000007FFFFFF00000000
0007FFFFFF000007FFFFFE00000000
0007FFFFFF00000FFFFFFE00000000
0007FFFFFF00000FFFFFFE00000000
000FFFFFFE00000FFFFFFE00000000
000FFFFFFE00000FFFFFFC00000000
000FFFFFFE00000FFFFFFC00000000
000FFFFFFE00001FFFFFFC00000000
001FFFFFFC00001FFFFFFC00000000
001FFFFFFC00001FFFFFF800000000
001FFFFFFC00001FFFFFF800000000
001FFFFFFC00003FFFFFF800000000
003FFFFFF800003FFFFFF800000000
003FFFFFF800003FFFFFF000000000
003FFFFFF800003FFFFFF000000000
003FFFFFF800007FFFFFF000000000
007FFFFFF000007FFFFFF000000000
007FFFFFF000007FFFFFF000000000
007FFFFFF000007FFFFFE000000000
007FFFFFF00000FFFFFFE000000000
00FFFFFFE00000FFFFFFE000000000
00FFFFFFE00000FFFFFFE000000000
00FFFFFFE00000FFFFFFC000000000
00FFFFFFE00001FFFFFFC000000000
01FFFFFFE00001FFFFFFC000000000
01FFFFFFC00001FFFFFFC000000000
01FFFFFFC00001FFFFFF8000000000
01FFFFFFC00003FFFFFF8000000000
03FFFFFFC00003FFFFFF8000000000
03FFFFFF800003FFFFFF8000000000
03FFFFFF800003FFFFFF0000000000
ENDCHAR
STARTCHAR 0024
ENCODING 36
SWIDTH 631 0
DWIDTH 136 0
BBX 93 185 15 -21
BITMAP
00000000007FC00000000000
00000000007FE00000000000
0000000000FFF00000000000
0000000000FFF00000000000
0000000000FFF00000000000
0000000000FFF00000000000
0000000000FFF00000000000
0000000000FFF00000000000
0000000000FFF00000000000
0000000000FFF00000000000
0000000000FFF00000000000
0000000000FFF00000000000
0000000000FFF00000000000
0000000000FFF00000000000
0000000000FFF00000000000
0000000000FFF00000000000
0000000000FFF00000000000
0000000000FFF00000000000
0000000000FFF00000000000
00000007FFFFFFFFFFFFF000
000000FFFFFFFFFFFFFFFF00
000007FFFFFFFFFFFFFFFFC0
00003FFFFFFFFFFFFFFFFFE0
0000FFFFFFFFFFFFFFFFFFF0
0003FFFFFFFFFFFFFFFFFFF0
0007FFFFFFFFFFFFFFFFFFF8
000FFFFFFFFFFFFFFFFFFFF8
003FFFFFFFFFFFFFFFFFFFF8
007FFFFFFFFFFFFFFFFFFFF8
007FFFFFFFFFFFFFFFFFFFF8
00FFFFFFFFFFFFFFFFFFFFF8
01FFFFFFFFFFFFFFFFFFFFF8
03FFFFFFFFFFFFFFFFFFFFF8
03FFFFFFFFFFFFFFFFFFFFF8
07FFFFFFFFFFFFFFFFFFFFF8
0FFFFFFFFFFFFFFFFFFFFFF8
0FFFFFFFFFFFFFFFFFFFFFF8
0FFFFFFFFFFFFFFFFFFFFFF8
1FFFFFFFFFFFFFFFFFFFFFF8
1FFFFFFFFFFFFFFFFFFFFFF8
3FFFFFFFFFFFFFFFFFFFFFF8
3FFFFFFFFFFFFFFFFFFFFFF0
3FFFFFFFFFFFFFFFFFFFFFF0
3FFFFFFFFFFFFFFFFFFFFFE0
7FFFFFFFFFFFFFFFFFFFFFC0
7FFFFFFFFFFFFFFFFFFFFF80
7FFFFFFFFFFFFFFFFFFFFC00
7FFFFFFFC0FFF00000000000
7FFFFFFF00FFF00000000000
FFFFFFFE00FFF00000000000
FFFFFFFE00FFF00000000000
FFFFFFFC00FFF00000000000
FFFFFFFC00FFF00000000000
FFFFFFFC00FFF00000000000
FFFFFFFC00FFF00000000000
FFFFFFFC00FFF00000000000
FFFFFFFC00FFF00000000000
FFFFFFFC00FFF00000000000
FFFFFFFC00FFF00000000000
FFFFFFFC00FFF00000000000
FFFFFFFC00FFF00000000000
FFFFFFFC00FFF00000000000
FFFFFFFC00FFF00000000000
FFFFFFFC00FFF00000000000
FFFFFFFE00FFF00000000000
FFFFFFFE00FFF00000000000
FFFFFFFF00FFF00000000000
7FFFFFFF80FFF00000000000
7FFFFFFFE0FFF00000000000
7FFFFFFFF8FFF00000000000
7FFFFFFFFFFFF00000000000
7FFFFFFFFFFFF00000000000
7FFFFFFFFFFFF00000000000
3FFFFFFFFFFFF00000000000
3FFFFFFFFFFFF00000000000
3FFFFFFFFFFFF00000000000
1FFFFFFFFFFFFC0000000000
1FFFFFFFFFFFFF8000000000
1FFFFFFFFFFFFFE000000000
0FFFFFFFFFFFFFFC00000000
0FFFFFFFFFFFFFFF00000000
07FFFFFFFFFFFFFFE0000000
03FFFFFFFFFFFFFFF8000000
03FFFFFFFFFFFFFFFE000000
01FFFFFFFFFFFFFFFF800000
00FFFFFFFFFFFFFFFFE00000
007FFFFFFFFFFFFFFFF80000
003FFFFFFFFFFFFFFFFE0000
001FFFFFFFFFFFFFFFFF0000
0007FFFFFFFFFFFFFFFFC000
0003FFFFFFFFFFFFFFFFE000
0000FFFFFFFFFFFFFFFFF000
00007FFFFFFFFFFFFFFFF800
00001FFFFFFFFFFFFFFFFC00
000007FFFFFFFFFFFFFFFE00
000001FFFFFFFFFFFFFFFF00
0000003FFFFFFFFFFFFFFF80
0000000FFFFFFFFFFFFFFFC0
00000003FFFFFFFFFFFFFFC0
000000007FFFFFFFFFFFFFE0
000000001FFFFFFFFFFFFFE0
0000000007FFFFFFFFFFFFE0
0000000000FFFFFFFFFFFFF0
0000000000FFFFFFFFFFFFF0
0000000000FFFFFFFFFFFFF0
0000000000FFFFFFFFFFFFF0
0000000000FFFFFFFFFFFFF8
0000000000FFFFFFFFFFFFF8
0000000000FFF7FFFFFFFFF8
0000000000FFF0FFFFFFFFF8
0000000000FFF01FFFFFFFF8
0000000000FFF00FFFFFFFF8
0000000000FFF007FFFFFFF8
0000000000FFF003FFFFFFF8
0000000000FFF003FFFFFFF8
0000000000FFF001FFFFFFF8
0000000000FFF001FFFFFFF8
0000000000FFF001FFFFFFF8
0000000000FFF001FFFFFFF8
0000000000FFF001FFFFFFF8
0000000000FFF001FFFFFFF8
0000000000FFF001FFFFFFF8
0000000000FFF001FFFFFFF8
0000000000FFF001FFFFFFF8
0000000000FFF001FFFFFFF8
0000000000FFF001FFFFFFF8
0000000000FFF001FFFFFFF8
0000000000FFF001FFFFFFF8
0000000000FFF003FFFFFFF8
0000000000FFF003FFFFFFF8
0000000000FFF007FFFFFFF8
0000000000FFF007FFFFFFF8
0000000000FFF01FFFFFFFF0
0000000000FFF0FFFFFFFFF0
07FFFFFFFFFFFFFFFFFFFFF0
1FFFFFFFFFFFFFFFFFFFFFF0
3FFFFFFFFFFFFFFFFFFFFFF0
7FFFFFFFFFFFFFFFFFFFFFF0
7FFFFFFFFFFFFFFFFFFFFFF0
7FFFFFFFFFFFFFFFFFFFFFF0
FFFFFFFFFFFFFFFFFFFFFFE0
FFFFFFFFFFFFFFFFFFFFFFE0
FFFFFFFFFFFFFFFFFFFFFFE0
FFFFFFFFFFFFFFFFFFFFFFC0
FFFFFFFFFFFFFFFFFFFFFFC0
FFFFFFFFFFFFFFFFFFFFFFC0
FFFFFFFFFFFFFFFFFFFFFF80
FFFFFFFFFFFFFFFFFFFFFF80
FFFFFFFFFFFFFFFFFFFFFF00
FFFFFFFFFFFFFFFFFFFFFE00
FFFFFFFFFFFFFFFFFFFFFE00
FFFFFFFFFFFFFFFFFFFFFC00
FFFFFFFFFFFFFFFFFFFFF800
FFFFFFFFFFFFFFFFFFFFF000
FFFFFFFFFFFFFFFFFFFFE000
FFFFFFFFFFFFFFFFFFFFC000
7FFFFFFFFFFFFFFFFFFF0000
7FFFFFFFFFFFFFFFFFFC0000
3FFFFFFFFFFFFFFFFFF00000
1FFFFFFFFFFFFFFFFFC00000
07FFFFFFFFFFFFFFFE000000
00FFFFFFFFFFFFFFE0000000
00007FFFFFFFFFF800000000
0000000000FFF00000000000
0000000000FFF00000000000
0000000000FFF00000000000
0000000000FFF00000000000
0000000000FFF00000000000
0000000000FFF00000000000
0000000000FFF00000000000
0000000000FFF00000000000
0000000000FFF00000000000
0000000000FFF00000000000
0000000000FFF00000000000
0000000000FFF00000000000
0000000000FFF00000000000
0000000000FFF00000000000
0000000000FFF00000000000
0000000000FFF00000000000
0000000000FFF00000000000
0000000000FFF00000000000
0000000000FFF00000000000
0000000000FFE00000000000
0000000000FFE00000000000
00000000007FC00000000000
ENDCHAR
STARTCHAR 0025
ENCODING 37
SWIDTH 929 0
DWIDTH 200 0
BBX 171 153 13 -9
BITMAP
0000007FFE00000000000000000003F0000000000000
000007FFFFF000000000000000001FFE000000000000
00003FFFFFFE00000000000000003FFFC00000000000
0000FFFFFFFF80000000000000007FFFFC0000000000
0003FFFFFFFFC0000000000000007FFFFE0000000000
000FFFFFFFFFF000000000000000FFFFFE0000000000
001FFFFFFFFFF800000000000000FFFFFE0000000000
003FFFFFFFFFFC00000000000001FFFFFE0000000000
007FFFFFFFFFFE00000000000003FFFFFE0000000000
00FFFFFFFFFFFF00000000000003FFFFFE0000000000
01FFFFFFFFFFFF80000000000007FFFFFC0000000000
01FFFFFFFFFFFFC0000000000007FFFFFC0000000000
03FFFFFFFFFFFFC000000000000FFFFFF80000000000
07FFFFFFFFFFFFE000000000000FFFFFF00000000000
07FFFFFFFFFFFFF000000000001FFFFFF00000000000
0FFFFFFFFFFFFFF000000000001FFFFFE00000000000
0FFFFFFFFFFFFFF800000000003FFFFFE00000000000
1FFFFFFFFFFFFFF800000000007FFFFFC00000000000
1FFFFFFFFFFFFFF800000000007FFFFFC00000000000
1FFFFFFC3FFFFFFC0000000000FFFFFF800000000000
3FFFFFE003FFFFFC0000000000FFFFFF800000000000
3FFFFF8001FFFFFC0000000001FFFFFF000000000000
3FFFFF8000FFFFFE0000000001FFFFFE000000000000
3FFFFF0000FFFFFE0000000003FFFFFE000000000000
7FFFFF00007FFFFE0000000007FFFFFC000000000000
7FFFFF00007FFFFE0000000007FFFFFC000000000000
7FFFFE00007FFFFF000000000FFFFFF8000000000000
7FFFFE00007FFFFF000000000FFFFFF8000000000000
7FFFFE00007FFFFF000000001FFFFFF0000000000000
FFFFFE00003FFFFF000000001FFFFFF0000000000000
FFFFFE00003FFFFF000000003FFFFFE0000000000000
FFFFFE00003FFFFF000000003FFFFFC0000000000000
FFFFFE00003FFFFF000000007FFFFFC0000000000000
FFFFFE00003FFFFF00000000FFFFFF80000000000000
FFFFFC00003FFFFF80000000FFFFFF80000000000000
FFFFFC00003FFFFF80000001FFFFFF00000000000000
FFFFFC00003FFFFF80000001FFFFFF00000000000000
FFFFFC00003FFFFF80000003FFFFFE00000000000000
FFFFFC00003FFFFF80000003FFFFFE00000000000000
FFFFFC00003FFFFF80000007FFFFFC00000000000000
FFFFFC00003FFFFF80000007FFFFF800000000000000
FFFFFC00003FFFFF8000000FFFFFF800000000000000
FFFFFC00003FFFFF8000001FFFFFF000000000000000
FFFFFC00003FFFFF8000001FFFFFF000000000000000
FFFFFC00003FFFFF8000003FFFFFE000000000000000
FFFFFC00003FFFFF8000003FFFFFE000000000000000
FFFFFC00003FFFFF8000007FFFFFC000000000000000
FFFFFC00003FFFFF8000007FFFFFC000000000000000
FFFFFC00003FFFFF800000FFFFFF8000000000000000
FFFFFC00003FFFFF800000FFFFFF0000000000000000
FFFFFE00003FFFFF000001FFFFFF0000000000000000
FFFFFE00003FFFFF000003FFFFFE0000000000000000
FFFFFE00003FFFFF000003FFFFFE0000000000000000
FFFFFE00003FFFFF000007FFFFFC0000000000000000
FFFFFE00003FFFFF000007FFFFFC0000000000000000
7FFFFE00007FFFFF00000FFFFFF80000000000000000
7FFFFE00007FFFFF00000FFFFFF80000000000000000
7FFFFE00007FFFFF00001FFFFFF00000000000000000
7FFFFF00007FFFFE00003FFFFFE00000000000000000
7FFFFF00007FFFFE00003FFFFFE00000000000000000
7FFFFF0000FFFFFE00007FFFFFC00000000000000000
3FFFFF8000FFFFFE00007FFFFFC00000000000000000
3FFFFF8001FFFFFC0000FFFFFF800000000000000000
3FFFFFC003FFFFFC0000FFFFFF800000000000000000
1FFFFFF81FFFFFFC0001FFFFFF000000000000000000
1FFFFFFFFFFFFFF80001FFFFFE000000000000000000
1FFFFFFFFFFFFFF80003FFFFFE000000000000000000
0FFFFFFFFFFFFFF80007FFFFFC000000000000000000
0FFFFFFFFFFFFFF00007FFFFFC000000000000000000
07FFFFFFFFFFFFF0000FFFFFF80000003FFFC0000000
07FFFFFFFFFFFFE0000FFFFFF8000003FFFFFC000000
03FFFFFFFFFFFFC0001FFFFFF000001FFFFFFF800000
03FFFFFFFFFFFFC0001FFFFFF000007FFFFFFFE00000
01FFFFFFFFFFFF80003FFFFFE00001FFFFFFFFF80000
00FFFFFFFFFFFF00003FFFFFC00003FFFFFFFFFC0000
007FFFFFFFFFFE00007FFFFFC00007FFFFFFFFFE0000
003FFFFFFFFFFC0000FFFFFF80000FFFFFFFFFFF0000
001FFFFFFFFFF80000FFFFFF80001FFFFFFFFFFF8000
000FFFFFFFFFF00001FFFFFF00003FFFFFFFFFFFC000
0007FFFFFFFFE00001FFFFFF00007FFFFFFFFFFFE000
0001FFFFFFFF800003FFFFFE0000FFFFFFFFFFFFF000
00007FFFFFFE000003FFFFFE0000FFFFFFFFFFFFF000
00000FFFFFF0000007FFFFFC0001FFFFFFFFFFFFF800
000000FFFF00000007FFFFF80003FFFFFFFFFFFFF800
00000000000000000FFFFFF80003FFFFFFFFFFFFFC00
00000000000000001FFFFFF00007FFFFFFFFFFFFFC00
00000000000000001FFFFFF00007FFFFFFFFFFFFFE00
00000000000000003FFFFFE00007FFFFFFFFFFFFFE00
00000000000000003FFFFFE0000FFFFFFE07FFFFFF00
00000000000000007FFFFFC0000FFFFFF000FFFFFF00
00000000000000007FFFFFC0000FFFFFE0007FFFFF00
0000000000000000FFFFFF80001FFFFFC0007FFFFF00
0000000000000001FFFFFF00001FFFFFC0003FFFFF80
0000000000000001FFFFFF00001FFFFF80003FFFFF80
0000000000000003FFFFFE00001FFFFF80003FFFFF80
0000000000000003FFFFFE00003FFFFF80001FFFFF80
0000000000000007FFFFFC00003FFFFF80001FFFFFC0
0000000000000007FFFFFC00003FFFFF80001FFFFFC0
000000000000000FFFFFF800003FFFFF80001FFFFFC0
000000000000000FFFFFF800003FFFFF00001FFFFFC0
000000000000001FFFFFF000003FFFFF00001FFFFFC0
000000000000003FFFFFE000003FFFFF00000FFFFFC0
000000000000003FFFFFE000003FFFFF00000FFFFFC0
000000000000007FFFFFC000007FFFFF00000FFFFFC0
000000000000007FFFFFC000007FFFFF00000FFFFFC0
00000000000000FFFFFF8000007FFFFF00000FFFFFC0
00000000000000FFFFFF8000007FFFFF00000FFFFFC0
00000000000001FFFFFF0000007FFFFF00000FFFFFE0
00000000000001FFFFFF0000007FFFFF00000FFFFFE0
00000000000003FFFFFE0000007FFFFF00000FFFFFE0
00000000000007FFFFFC0000007FFFFF00000FFFFFE0
00000000000007FFFFFC0000007FFFFF00000FFFFFE0
0000000000000FFFFFF80000007FFFFF00000FFFFFE0
0000000000000FFFFFF80000007FFFFF00000FFFFFE0
0000000000001FFFFFF00000007FFFFF00000FFFFFE0
0000000000001FFFFFF00000007FFFFF00000FFFFFC0
0000000000003FFFFFE00000007FFFFF00000FFFFFC0
0000000000007FFFFFE00000007FFFFF00000FFFFFC0
0000000000007FFFFFC00000007FFFFF00000FFFFFC0
000000000000FFFFFF800000003FFFFF00000FFFFFC0
000000000000FFFFFF800000003FFFFF00000FFFFFC0
000000000001FFFFFF000000003FFFFF00001FFFFFC0
000000000001FFFFFF000000003FFFFF00001FFFFFC0
000000000003FFFFFE000000003FFFFF80001FFFFFC0
000000000003FFFFFE000000003FFFFF80001FFFFFC0
000000000007FFFFFC000000003FFFFF80001FFFFF80
00000000000FFFFFFC000000003FFFFF80001FFFFF80
00000000000FFFFFF8000000001FFFFF80003FFFFF80
00000000001FFFFFF0000000001FFFFFC0003FFFFF80
00000000001FFFFFF0000000001FFFFFC0003FFFFF80
00000000003FFFFFE0000000001FFFFFC0007FFFFF00
00000000003FFFFFE0000000000FFFFFE0007FFFFF00
00000000007FFFFFC0000000000FFFFFF001FFFFFF00
00000000007FFFFFC0000000000FFFFFFF0FFFFFFE00
0000000000FFFFFF800000000007FFFFFFFFFFFFFE00
0000000001FFFFFF800000000007FFFFFFFFFFFFFE00
0000000001FFFFFF000000000007FFFFFFFFFFFFFC00
0000000003FFFFFE000000000003FFFFFFFFFFFFFC00
0000000003FFFFFE000000000003FFFFFFFFFFFFF800
0000000007FFFFFC000000000001FFFFFFFFFFFFF800
0000000007FFFFFC000000000000FFFFFFFFFFFFF000
000000000FFFFFF8000000000000FFFFFFFFFFFFE000
000000000FFFFFF80000000000007FFFFFFFFFFFE000
000000001FFFFFF00000000000003FFFFFFFFFFFC000
000000001FFFFFF00000000000001FFFFFFFFFFF8000
000000001FFFFFE00000000000000FFFFFFFFFFF0000
000000003FFFFFC000000000000007FFFFFFFFFE0000
000000001FFFFFC000000000000003FFFFFFFFFC0000
000000001FFFFF8000000000000000FFFFFFFFF00000
000000000FFFFF80000000000000007FFFFFFFC00000
0000000000FFFF00000000000000001FFFFFFF000000
00000000001FFC000000000000000003FFFFF8000000
000000000003F00000000000000000001FFF80000000
ENDCHAR
STARTCHAR 0026
ENCODING 38
SWIDTH 701 0
DWIDTH 151 0
BBX 126 144 13 0
BITMAP
00000000003FFFFE0000000000000000
000000001FFFFFFFFE00000000000000
00000000FFFFFFFFFFE0000000000000
00000007FFFFFFFFFFFC000000000000
0000003FFFFFFFFFFFFF000000000000
000000FFFFFFFFFFFFFFC00000000000
000003FFFFFFFFFFFFFFF00000000000
000007FFFFFFFFFFFFFFFC0000000000
00000FFFFFFFFFFFFFFFFE0000000000
00003FFFFFFFFFFFFFFFFF0000000000
00007FFFFFFFFFFFFFFFFF8000000000
0000FFFFFFFFFFFFFFFFFFC000000000
0001FFFFFFFFFFFFFFFFFFE000000000
0001FFFFFFFFFFFFFFFFFFE000000000
0003FFFFFFFFFFFFFFFFFFF000000000
0007FFFFFFFFFFFFFFFFFFF000000000
0007FFFFFFFFFFFFFFFFFFF800000000
000FFFFFFFFFFFFFFFFFFFF800000000
000FFFFFFFFFFFFFFFFFFFFC00000000
001FFFFFFFFFFFFFFFFFFFFC00000000
001FFFFFFFFFFFFFFFFFFFFC00000000
001FFFFFFFFFFFFFFFFFFFFE00000000
003FFFFFFFFFFFFFFFFFFFFE00000000
003FFFFFFFFFFFFFFFFFFFFE00000000
003FFFFFFFFFFFFFFFFFFFFE00000000
003FFFFFFFFFFFFFFFFFFFFF00000000
007FFFFFFFFC000FFFFFFFFF00000000
007FFFFFFFE00001FFFFFFFF00000000
007FFFFFFFC00000FFFFFFFF00000000
007FFFFFFF8000007FFFFFFF00000000
007FFFFFFF8000007FFFFFFF00000000
007FFFFFFF0000003FFFFFFF00000000
007FFFFFFF0000003FFFFFFF00000000
007FFFFFFF0000003FFFFFFF00000000
007FFFFFFF0000003FFFFFFF00000000
007FFFFFFF0000003FFFFFFF00000000
007FFFFFFF0000003FFFFFFF00000000
007FFFFFFF0000003FFFFFFF00000000
007FFFFFFF0000003FFFFFFF00000000
003FFFFFFF8000007FFFFFFE00000000
003FFFFFFF8000007FFFFFFE00000000
003FFFFFFF8000007FFFFFFE00000000
003FFFFFFFC00000FFFFFFFE00000000
001FFFFFFFC00001FFFFFFFC00000000
001FFFFFFFE00001FFFFFFFC00000000
001FFFFFFFE00003FFFFFFFC00000000
000FFFFFFFF00007FFFFFFF800000000
000FFFFFFFF0000FFFFFFFF800000000
000FFFFFFFF8001FFFFFFFF000000000
0007FFFFFFFC007FFFFFFFE000000000
0007FFFFFFFE00FFFFFFFFE000000000
0003FFFFFFFF03FFFFFFFFC000000000
0003FFFFFFFF8FFFFFFFFF8000000000
0001FFFFFFFFFFFFFFFFFF0000000000
0001FFFFFFFFFFFFFFFFFF0000000000
0000FFFFFFFFFFFFFFFFFE0000000000
00007FFFFFFFFFFFFFFFFC0000000000
00007FFFFFFFFFFFFFFFF00000000000
00003FFFFFFFFFFFFFFFE00000000000
00001FFFFFFFFFFFFFFFC00000000000
00000FFFFFFFFFFFFFFF800000000000
00000FFFFFFFFFFFFFFF000000000000
000007FFFFFFFFFFFFFC000000000000
000003FFFFFFFFFFFFF8000000000000
000001FFFFFFFFFFFFE0000000000000
000001FFFFFFFFFFFFC0000000000000
000003FFFFFFFFFFFF000000FFFF8000
00000FFFFFFFFFFFFC000003FFFFC000
00003FFFFFFFFFFFF8000007FFFFE000
00007FFFFFFFFFFFE0000007FFFFF000
0001FFFFFFFFFFFFC000000FFFFFF000
0003FFFFFFFFFFFFE000000FFFFFF000
0007FFFFFFFFFFFFF000001FFFFFF000
000FFFFFFFFFFFFFF800001FFFFFF000
001FFFFFFFFFFFFFFC00001FFFFFF000
003FFFFFFFFFFFFFFE00001FFFFFF000
007FFFFFFFFFFFFFFF00001FFFFFF000
00FFFFFFFFFFFFFFFF80001FFFFFF000
01FFFFFFFFFFFFFFFFC0003FFFFFF000
01FFFFFFFFFFFFFFFFC0003FFFFFF000
03FFFFFFFFFFFFFFFFE0003FFFFFF000
07FFFFFFFFFFFFFFFFF0003FFFFFF000
07FFFFFFFFFFFFFFFFFC003FFFFFF000
0FFFFFFFFFFFFFFFFFFE003FFFFFF000
0FFFFFFFFFFFFFFFFFFF003FFFFFF000
1FFFFFFFFF8FFFFFFFFF803FFFFFE000
1FFFFFFFFF07FFFFFFFFC07FFFFFE000
1FFFFFFFFC03FFFFFFFFE07FFFFFE000
3FFFFFFFF001FFFFFFFFF07FFFFFE000
3FFFFFFFE000FFFFFFFFF87FFFFFE000
3FFFFFFFC0007FFFFFFFFC7FFFFFE000
7FFFFFFF80003FFFFFFFFEFFFFFFC000
7FFFFFFF80001FFFFFFFFFFFFFFFC000
7FFFFFFF00000FFFFFFFFFFFFFFFC000
7FFFFFFF000007FFFFFFFFFFFFFFC000
7FFFFFFF000003FFFFFFFFFFFFFF8000
7FFFFFFE000001FFFFFFFFFFFFFF8000
FFFFFFFE000000FFFFFFFFFFFFFF8000
FFFFFFFE0000007FFFFFFFFFFFFF0000
FFFFFFFE0000003FFFFFFFFFFFFF0000
FFFFFFFE0000001FFFFFFFFFFFFF0000
FFFFFFFE0000000FFFFFFFFFFFFE0000
FFFFFFFE00000007FFFFFFFFFFFE0000
FFFFFFFE00000003FFFFFFFFFFFE0000
FFFFFFFE00000001FFFFFFFFFFFC0000
FFFFFFFE000000007FFFFFFFFFFC0000
FFFFFFFE000000003FFFFFFFFFF80000
FFFFFFFE000000001FFFFFFFFFF80000
FFFFFFFE000000000FFFFFFFFFF00000
FFFFFFFF0000000007FFFFFFFFF00000
FFFFFFFF0000000003FFFFFFFFFC0000
FFFFFFFF0000000001FFFFFFFFFE0000
FFFFFFFF80000000007FFFFFFFFF8000
7FFFFFFFC0000000007FFFFFFFFFC000
7FFFFFFFF000000000FFFFFFFFFFE000
7FFFFFFFFC00000007FFFFFFFFFFF800
7FFFFFFFFFE000003FFFFFFFFFFFFC00
7FFFFFFFFFFFFFFFFFFFFFFFFFFFFE00
3FFFFFFFFFFFFFFFFFFFFFFFFFFFFF00
3FFFFFFFFFFFFFFFFFFFFFFFFFFFFF80
3FFFFFFFFFFFFFFFFFFFFFFFFFFFFFC0
1FFFFFFFFFFFFFFFFFFFFFFFFFFFFFE0
1FFFFFFFFFFFFFFFFFFFFFFFFFFFFFF0
1FFFFFFFFFFFFFFFFFFFFFFFFFFFFFF8
0FFFFFFFFFFFFFFFFFFFFFFFFFFFFFFC
0FFFFFFFFFFFFFFFFFFFFFFFFFFFFFFC
07FFFFFFFFFFFFFFFFFFFFFFFFFFFFFC
03FFFFFFFFFFFFFFFFFFFFFFFFFFFFFC
03FFFFFFFFFFFFFFFFFFFFFFFFFFFFFC
01FFFFFFFFFFFFFFFFFFFFFFFFFFFFFC
00FFFFFFFFFFFFFFFFFFFFFFFFFFFFF8
007FFFFFFFFFFFFFFFFFFFFFFFFFFFF8
003FFFFFFFFFFFFFFFFFFFF9FFFFFFF0
001FFFFFFFFFFFFFFFFFFFF0FFFFFFF0
000FFFFFFFFFFFFFFFFFFFE07FFFFFE0
0007FFFFFFFFFFFFFFFFFF803FFFFFC0
0001FFFFFFFFFFFFFFFFFF001FFFFF80
00007FFFFFFFFFFFFFFFFC0007FFFF00
00001FFFFFFFFFFFFFFFF00003FFFF00
000007FFFFFFFFFFFFFFC00001FFFE00
000000FFFFFFFFFFFFFE000000FFFC00
0000000FFFFFFFFFFFF00000007FF000
000000007FFFFFFFFE000000001FE000
00000000007FFFFF8000000000078000
ENDCHAR
STARTCHAR 0027
ENCODING 39
SWIDTH 222 0
DWIDTH 48 0
BBX 30 41 9 122
BITMAP
01FFFE00
0FFFFFC0
1FFFFFE0
3FFFFFF0
7FFFFFF8
7FFFFFF8
FFFFFFFC
FFFFFFFC
FFFFFFFC
FFFFFFFC
FFFFFFFC
FFFFFFFC
FFFFFFFC
FFFFFFFC
FFFFFFFC
FFFFFFFC
7FFFFFFC
7FFFFFFC
7FFFFFF8
7FFFFFF8
7FFFFFF8
7FFFFFF8
7FFFFFF8
7FFFFFF8
7FFFFFF8
7FFFFFF8
3FFFFFF8
3FFFFFF0
3FFFFFF0
3FFFFFF0
3FFFFFF0
3FFFFFF0
3FFFFFF0
3FFFFFF0
1FFFFFE0
1FFFFFE0
1FFFFFE0
0FFFFFC0
07FFFF80
03FFFF00
007FF800
ENDCHAR
STARTCHAR 0028
ENCODING 40
SWIDTH 334 0
DWIDTH 72 0
BBX 59 201 13 -29
BITMAP
000000000003FFE0
0000000001FFFFE0
000000003FFFFFE0
00000001FFFFFFE0
00000007FFFFFFE0
0000001FFFFFFFE0
0000007FFFFFFFE0
000001FFFFFFFFE0
000003FFFFFFFFE0
00000FFFFFFFFFE0
00001FFFFFFFFFE0
00003FFFFFFFFFE0
00007FFFFFFFFFE0
0000FFFFFFFFFFE0
0001FFFFFFFFFFE0
0001FFFFFFFFFFE0
0003FFFFFFFFFFE0
0007FFFFFFFFFFE0
000FFFFFFFFFFFE0
000FFFFFFFFFFFE0
001FFFFFFFFFFFE0
001FFFFFFFFFFFE0
003FFFFFFFFFFFE0
003FFFFFFFFFFFE0
007FFFFFFFFFFFE0
007FFFFFFFFFFFE0
007FFFFFFFFFFFE0
00FFFFFFFFFFFFE0
00FFFFFFFFFFFFE0
01FFFFFFFFFFC000
01FFFFFFFFFC0000
01FFFFFFFFF00000
03FFFFFFFFC00000
03FFFFFFFF800000
03FFFFFFFF000000
03FFFFFFFE000000
07FFFFFFFC000000
07FFFFFFFC000000
07FFFFFFF8000000
07FFFFFFF8000000
0FFFFFFFF0000000
0FFFFFFFF0000000
0FFFFFFFE0000000
0FFFFFFFE0000000
0FFFFFFFE0000000
1FFFFFFFE0000000
1FFFFFFFC0000000
1FFFFFFFC0000000
1FFFFFFFC0000000
1FFFFFFFC0000000
1FFFFFFF80000000
3FFFFFFF80000000
3FFFFFFF80000000
3FFFFFFF80000000
3FFFFFFF80000000
3FFFFFFF80000000
3FFFFFFF00000000
3FFFFFFF00000000
3FFFFFFF00000000
7FFFFFFF00000000
7FFFFFFF00000000
7FFFFFFF00000000
7FFFFFFF00000000
7FFFFFFE00000000
7FFFFFFE00000000
7FFFFFFE00000000
7FFFFFFE00000000
7FFFFFFE00000000
7FFFFFFE00000000
7FFFFFFE00000000
7FFFFFFE00000000
7FFFFFFE00000000
7FFFFFFE00000000
FFFFFFFE00000000
FFFFFFFE00000000
FFFFFFFC00000000
FFFFFFFC00000000
FFFFFFFC00000000
FFFFFFFC00000000
FFFFFFFC00000000
FFFFFFFC00000000
FFFFFFFC00000000
FFFFFFFC00000000
FFFFFFFC00000000
FFFFFFFC00000000
FFFFFFFC00000000
FFFFFFFC00000000
FFFFFFFC00000000
FFFFFFFC00000000
FFFFFFFC00000000
FFFFFFFC00000000
FFFFFFFC00000000
FFFFFFFC00000000
FFFFFFFC00000000
FFFFFFFC00000000
FFFFFFFC00000000
FFFFFFFC00000000
FFFFFFFC00000000
FFFFFFFC00000000
FFFFFFFC00000000
FFFFFFFC00000000
FFFFFFFC00000000
FFFFFFFC00000000
FFFFFFFC00000000
FFFFFFFC00000000
FFFFFFFC00000000
FFFFFFFC00000000
FFFFFFFC00000000
FFFFFFFC00000000
FFFFFFFC00000000
FFFFFFFC00000000
FFFFFFFC00000000
FFFFFFFC00000000
FFFFFFFC00000000
FFFFFFFC00000000
FFFFFFFC00000000
FFFFFFFC00000000
FFFFFFFC00000000
FFFFFFFC00000000
FFFFFFFC00000000
FFFFFFFC00000000
FFFFFFFC00000000
FFFFFFFC00000000
FFFFFFFC00000000
FFFFFFFC00000000
FFFFFFFC00000000
FFFFFFFE00000000
FFFFFFFE00000000
7FFFFFFE00000000
7FFFFFFE00000000
7FFFFFFE00000000
7FFFFFFE00000000
7FFFFFFE00000000
7FFFFFFE00000000
7FFFFFFE00000000
7FFFFFFE00000000
7FFFFFFE00000000
7FFFFFFE00000000
7FFFFFFF00000000
7FFFFFFF00000000
7FFFFFFF00000000
7FFFFFFF00000000
7FFFFFFF00000000
3FFFFFFF00000000
3FFFFFFF00000000
3FFFFFFF80000000
3FFFFFFF80000000
3FFFFFFF80000000
3FFFFFFF80000000
3FFFFFFF80000000
3FFFFFFF80000000
1FFFFFFFC0000000
1FFFFFFFC0000000
1FFFFFFFC0000000
1FFFFFFFC0000000
1FFFFFFFE0000000
1FFFFFFFE0000000
0FFFFFFFE0000000
0FFFFFFFF0000000
0FFFFFFFF0000000
0FFFFFFFF0000000
0FFFFFFFF8000000
07FFFFFFF8000000
07FFFFFFFC000000
07FFFFFFFC000000
07FFFFFFFE000000
03FFFFFFFF000000
03FFFFFFFF800000
03FFFFFFFFC00000
01FFFFFFFFF00000
01FFFFFFFFFC0000
01FFFFFFFFFFC000
00FFFFFFFFFFFFE0
00FFFFFFFFFFFFE0
00FFFFFFFFFFFFE0
007FFFFFFFFFFFE0
007FFFFFFFFFFFE0
003FFFFFFFFFFFE0
003FFFFFFFFFFFE0
001FFFFFFFFFFFE0
001FFFFFFFFFFFE0
000FFFFFFFFFFFE0
000FFFFFFFFFFFE0
0007FFFFFFFFFFE0
0007FFFFFFFFFFE0
0003FFFFFFFFFFE0
0001FFFFFFFFFFE0
0000FFFFFFFFFFE0
00007FFFFFFFFFE0
00003FFFFFFFFFE0
00001FFFFFFFFFE0
00000FFFFFFFFFE0
000007FFFFFFFFE0
000001FFFFFFFFE0
000000FFFFFFFFE0
0000003FFFFFFFE0
0000000FFFFFFFE0
00000001FFFFFFE0
000000003FFFFFE0
0000000003FFFFE0
000000000007FFE0
ENDCHAR
STARTCHAR 0029
ENCODING 41
SWIDTH 334 0
DWIDTH 72 0
BBX 59 201 -1 -29
BITMAP
FFF8000000000000
FFFFF00000000000
FFFFFF8000000000
FFFFFFF000000000
FFFFFFFC00000000
FFFFFFFF80000000
FFFFFFFFC0000000
FFFFFFFFF0000000
FFFFFFFFF8000000
FFFFFFFFFE000000
FFFFFFFFFF000000
FFFFFFFFFF800000
FFFFFFFFFFC00000
FFFFFFFFFFE00000
FFFFFFFFFFF00000
FFFFFFFFFFF80000
FFFFFFFFFFF80000
FFFFFFFFFFFC0000
FFFFFFFFFFFE0000
FFFFFFFFFFFE0000
FFFFFFFFFFFF0000
FFFFFFFFFFFF0000
FFFFFFFFFFFF8000
FFFFFFFFFFFF8000
FFFFFFFFFFFFC000
FFFFFFFFFFFFC000
FFFFFFFFFFFFE000
FFFFFFFFFFFFE000
FFFFFFFFFFFFE000
007FFFFFFFFFF000
0007FFFFFFFFF000
0001FFFFFFFFF000
00007FFFFFFFF800
00003FFFFFFFF800
00001FFFFFFFF800
00000FFFFFFFFC00
000007FFFFFFFC00
000007FFFFFFFC00
000003FFFFFFFC00
000003FFFFFFFE00
000001FFFFFFFE00
000001FFFFFFFE00
000000FFFFFFFE00
000000FFFFFFFE00
000000FFFFFFFF00
000000FFFFFFFF00
0000007FFFFFFF00
0000007FFFFFFF00
0000007FFFFFFF00
0000007FFFFFFF00
0000003FFFFFFF80
0000003FFFFFFF80
0000003FFFFFFF80
0000003FFFFFFF80
0000003FFFFFFF80
0000001FFFFFFF80
0000001FFFFFFF80
0000001FFFFFFF80
0000001FFFFFFFC0
0000001FFFFFFFC0
0000001FFFFFFFC0
0000001FFFFFFFC0
0000000FFFFFFFC0
0000000FFFFFFFC0
0000000FFFFFFFC0
0000000FFFFFFFC0
0000000FFFFFFFC0
0000000FFFFFFFC0
0000000FFFFFFFC0
0000000FFFFFFFC0
0000000FFFFFFFC0
0000000FFFFFFFE0
0000000FFFFFFFE0
0000000FFFFFFFE0
00000007FFFFFFE0
00000007FFFFFFE0
00000007FFFFFFE0
00000007FFFFFFE0
00000007FFFFFFE0
00000007FFFFFFE0
00000007FFFFFFE0
00000007FFFFFFE0
00000007FFFFFFE0
00000007FFFFFFE0
00000007FFFFFFE0
00000007FFFFFFE0
00000007FFFFFFE0
00000007FFFFFFE0
00000007FFFFFFE0
00000007FFFFFFE0
00000007FFFFFFE0
00000007FFFFFFE0
00000007FFFFFFE0
00000007FFFFFFE0
00000007FFFFFFE0
00000007FFFFFFE0
00000007FFFFFFE0
00000007FFFFFFE0
00000007FFFFFFE0
00000007FFFFFFE0
00000007FFFFFFE0
00000007FFFFFFE0
00000007FFFFFFE0
00000007FFFFFFE0
00000007FFFFFFE0
00000007FFFFFFE0
00000007FFFFFFE0
00000007FFFFFFE0
00000007FFFFFFE0
00000007FFFFFFE0
00000007FFFFFFE0
00000007FFFFFFE0
00000007FFFFFFE0
00000007FFFFFFE0
00000007FFFFFFE0
00000007FFFFFFE0
00000007FFFFFFE0
00000007FFFFFFE0
00000007FFFFFFE0
00000007FFFFFFE0
00000007FFFFFFE0
00000007FFFFFFE0
00000007FFFFFFE0
00000007FFFFFFE0
00000007FFFFFFE0
00000007FFFFFFE0
00000007FFFFFFE0
0000000FFFFFFFE0
0000000FFFFFFFE0
0000000FFFFFFFE0
0000000FFFFFFFC0
0000000FFFFFFFC0
0000000FFFFFFFC0
0000000FFFFFFFC0
0000000FFFFFFFC0
0000000FFFFFFFC0
0000000FFFFFFFC0
0000000FFFFFFFC0
0000000FFFFFFFC0
0000001FFFFFFFC0
0000001FFFFFFFC0
0000001FFFFFFFC0
0000001FFFFFFFC0
0000001FFFFFFF80
0000001FFFFFFF80
0000001FFFFFFF80
0000003FFFFFFF80
0000003FFFFFFF80
0000003FFFFFFF80
0000003FFFFFFF80
0000003FFFFFFF80
0000007FFFFFFF00
0000007FFFFFFF00
0000007FFFFFFF00
0000007FFFFFFF00
000000FFFFFFFF00
000000FFFFFFFF00
000000FFFFFFFE00
000000FFFFFFFE00
000001FFFFFFFE00
000001FFFFFFFE00
000003FFFFFFFE00
000003FFFFFFFC00
000007FFFFFFFC00
000007FFFFFFFC00
00000FFFFFFFFC00
00001FFFFFFFF800
00003FFFFFFFF800
00007FFFFFFFF800
0000FFFFFFFFF800
0007FFFFFFFFF000
007FFFFFFFFFF000
FFFFFFFFFFFFF000
FFFFFFFFFFFFE000
FFFFFFFFFFFFE000
FFFFFFFFFFFFC000
FFFFFFFFFFFFC000
FFFFFFFFFFFFC000
FFFFFFFFFFFF8000
FFFFFFFFFFFF8000
FFFFFFFFFFFF0000
FFFFFFFFFFFE0000
FFFFFFFFFFFE0000
FFFFFFFFFFFC0000
FFFFFFFFFFFC0000
FFFFFFFFFFF80000
FFFFFFFFFFF00000
FFFFFFFFFFE00000
FFFFFFFFFFC00000
FFFFFFFFFF800000
FFFFFFFFFF000000
FFFFFFFFFE000000
FFFFFFFFFC000000
FFFFFFFFF0000000
FFFFFFFFE0000000
FFFFFFFF80000000
FFFFFFFE00000000
FFFFFFF000000000
FFFFFF8000000000
FFFFF80000000000
FFF8000000000000
ENDCHAR
STARTCHAR 002A
ENCODING 42
SWIDTH 394 0
DWIDTH 85 0
BBX 66 69 9 86
BITMAP
00000007FE00000000
0000003FFF80000000
000000FFFFC0000000
000001FFFFE0000000
000001FFFFF0000000
000003FFFFF0000000
000003FFFFF0000000
000003FFFFF0000000
000003FFFFF8000000
000003FFFFF8000000
000007FFFFF8000000
000007FFFFF8000000
000007FFFFF8000000
000007FFFFF8000000
01F807FFFFF807E000
07FF07FFFFF83FF800
0FFFE7FFFFF9FFFC00
1FFFFFFFFFFFFFFC00
1FFFFFFFFFFFFFFE00
3FFFFFFFFFFFFFFE00
3FFFFFFFFFFFFFFF00
3FFFFFFFFFFFFFFF00
7FFFFFFFFFFFFFFF00
7FFFFFFFFFFFFFFF80
7FFFFFFFFFFFFFFF80
FFFFFFFFFFFFFFFF80
FFFFFFFFFFFFFFFFC0
FFFFFFFFFFFFFFFFC0
FFFFFFFFFFFFFFFFC0
FFFFFFFFFFFFFFFFC0
FFFFFFFFFFFFFFFFC0
FFFFFFFFFFFFFFFFC0
FFFFFFFFFFFFFFFFC0
FFFFFFFFFFFFFFFF80
7FFFFFFFFFFFFFFF80
3FFFFFFFFFFFFFFF00
1FFFFFFFFFFFFFFE00
0FFFFFFFFFFFFFF800
03FFFFFFFFFFFFE000
007FFFFFFFFFFF8000
000FFFFFFFFFFC0000
0007FFFFFFFFF80000
000FFFFFFFFFFC0000
001FFFFFFFFFFC0000
001FFFFFFFFFFE0000
003FFFFFFFFFFF0000
007FFFFFFFFFFF8000
00FFFFFFFFFFFF8000
00FFFFFFFFFFFFC000
01FFFFFFFFFFFFC000
01FFFFFFFFFFFFE000
03FFFFFFFFFFFFF000
03FFFFFFFFFFFFF000
07FFFFFFFFFFFFF000
07FFFFFFFFFFFFF800
07FFFFFF3FFFFFF800
07FFFFFE3FFFFFF800
07FFFFFE1FFFFFF800
07FFFFFC0FFFFFF000
03FFFFF80FFFFFF000
03FFFFF007FFFFE000
01FFFFF003FFFFE000
00FFFFE003FFFFC000
007FFFC001FFFF8000
003FFFC000FFFF0000
001FFF80007FFE0000
000FFF00003FF80000
0003FE00001FF00000
0000F8000007800000
ENDCHAR
STARTCHAR 002B
ENCODING 43
SWIDTH 576 0
DWIDTH 124 0
BBX 102 99 10 9
BITMAP
0000000007FFFFFF8000000000
0000000007FFFFFF8000000000
0000000007FFFFFF8000000000
0000000007FFFFFF8000000000
0000000007FFFFFF8000000000
0000000007FFFFFF8000000000
0000000007FFFFFF8000000000
0000000007FFFFFF8000000000
0000000007FFFFFF8000000000
0000000007FFFFFF8000000000
0000000007FFFFFF8000000000
0000000007FFFFFF8000000000
0000000007FFFFFF8000000000
0000000007FFFFFF8000000000
0000000007FFFFFF8000000000
0000000007FFFFFF8000000000
0000000007FFFFFF8000000000
0000000007FFFFFF8000000000
0000000007FFFFFF8000000000
0000000007FFFFFF8000000000
0000000007FFFFFF8000000000
0000000007FFFFFF8000000000
0000000007FFFFFF8000000000
0000000007FFFFFF8000000000
0000000007FFFFFF8000000000
0000000007FFFFFF8000000000
0000000007FFFFFF8000000000
0000000007FFFFFF8000000000
0000000007FFFFFF8000000000
0000000007FFFFFF8000000000
0000000007FFFFFF8000000000
0000000007FFFFFF8000000000
0000000007FFFFFF8000000000
0000000007FFFFFF8000000000
0000000007FFFFFF8000000000
0000000007FFFFFF8000000000
FFFFFFFFFFFFFFFFFFFFFFFFFC
FFFFFFFFFFFFFFFFFFFFFFFFFC
FFFFFFFFFFFFFFFFFFFFFFFFFC
FFFFFFFFFFFFFFFFFFFFFFFFFC
FFFFFFFFFFFFFFFFFFFFFFFFFC
FFFFFFFFFFFFFFFFFFFFFFFFFC
FFFFFFFFFFFFFFFFFFFFFFFFFC
FFFFFFFFFFFFFFFFFFFFFFFFFC
FFFFFFFFFFFFFFFFFFFFFFFFFC
FFFFFFFFFFFFFFFFFFFFFFFFFC
FFFFFFFFFFFFFFFFFFFFFFFFFC
FFFFFFFFFFFFFFFFFFFFFFFFFC
FFFFFFFFFFFFFFFFFFFFFFFFFC
FFFFFFFFFFFFFFFFFFFFFFFFFC
FFFFFFFFFFFFFFFFFFFFFFFFFC
FFFFFFFFFFFFFFFFFFFFFFFFFC
FFFFFFFFFFFFFFFFFFFFFFFFFC
FFFFFFFFFFFFFFFFFFFFFFFFFC
FFFFFFFFFFFFFFFFFFFFFFFFFC
FFFFFFFFFFFFFFFFFFFFFFFFFC
FFFFFFFFFFFFFFFFFFFFFFFFFC
FFFFFFFFFFFFFFFFFFFFFFFFFC
FFFFFFFFFFFFFFFFFFFFFFFFFC
FFFFFFFFFFFFFFFFFFFFFFFFFC
FFFFFFFFFFFFFFFFFFFFFFFFFC
FFFFFFFFFFFFFFFFFFFFFFFFFC
FFFFFFFFFFFFFFFFFFFFFFFFFC
0000000007FFFFFF8000000000
0000000007FFFFFF8000000000
0000000007FFFFFF8000000000
0000000007FFFFFF8000000000
0000000007FFFFFF8000000000
0000000007FFFFFF8000000000
0000000007FFFFFF8000000000
0000000007FFFFFF8000000000
0000000007FFFFFF8000000000
0000000007FFFFFF8000000000
0000000007FFFFFF8000000000
0000000007FFFFFF8000000000
0000000007FFFFFF8000000000
0000000007FFFFFF8000000000
0000000007FFFFFF8000000000
0000000007FFFFFF8000000000
0000000007FFFFFF8000000000
0000000007FFFFFF8000000000
0000000007FFFFFF8000000000
0000000007FFFFFF8000000000
0000000007FFFFFF8000000000
0000000007FFFFFF8000000000
0000000007FFFFFF8000000000
0000000007FFFFFF8000000000
0000000007FFFFFF8000000000
0000000007FFFFFF8000000000
0000000007FFFFFF8000000000
0000000007FFFFFF8000000000
0000000007FFFFFF8000000000
0000000007FFFFFF8000000000
0000000007FFFFFF8000000000
0000000007FFFFFF8000000000
0000000007FFFFFF8000000000
0000000007FFFFFF8000000000
0000000007FFFFFF8000000000
0000000007FFFFFF8000000000
ENDCHAR
STARTCHAR 002C
ENCODING 44
SWIDTH 325 0
DWIDTH 70 0
BBX 49 78 7 -38
BITMAP
00000078000000
000001FE000000
000007FF000000
00000FFFC00000
00001FFFE00000
00003FFFF00000
00007FFFF80000
0000FFFFFC0000
0001FFFFFE0000
0003FFFFFF0000
0007FFFFFF8000
000FFFFFFFC000
000FFFFFFFE000
001FFFFFFFF000
003FFFFFFFF800
007FFFFFFFFC00
00FFFFFFFFFE00
01FFFFFFFFFE00
01FFFFFFFFFF00
03FFFFFFFFFF00
03FFFFFFFFFF00
03FFFFFFFFFF80
03FFFFFFFFFF80
03FFFFFFFFFF80
03FFFFFFFFFF00
03FFFFFFFFFF00
03FFFFFFFFFF00
01FFFFFFFFFF00
00FFFFFFFFFE00
00FFFFFFFFFE00
007FFFFFFFFE00
003FFFFFFFFC00
001FFFFFFFFC00
000FFFFFFFF800
0007FFFFFFF800
0003FFFFFFF800
0001FFFFFFF000
0001FFFFFFF000
0001FFFFFFE000
0003FFFFFFE000
0003FFFFFFC000
0007FFFFFFC000
000FFFFFFF8000
000FFFFFFF8000
001FFFFFFF0000
001FFFFFFF0000
003FFFFFFE0000
007FFFFFFE0000
007FFFFFFC0000
00FFFFFFFC0000
01FFFFFFF80000
01FFFFFFF00000
03FFFFFFF00000
03FFFFFFE00000
07FFFFFFE00000
0FFFFFFFC00000
0FFFFFFFC00000
1FFFFFFF800000
1FFFFFFF800000
3FFFFFFF000000
3FFFFFFE000000
7FFFFFFE000000
7FFFFFFC000000
FFFFFFFC000000
FFFFFFF8000000
FFFFFFF0000000
FFFFFFF0000000
FFFFFFE0000000
7FFFFFC0000000
7FFFFFC0000000
3FFFFF80000000
1FFFFF00000000
0FFFFF00000000
07FFFE00000000
03FFFC00000000
01FFF800000000
007FF000000000
000FC000000000
ENDCHAR
STARTCHAR 002D
ENCODING 45
SWIDTH 473 0
DWIDTH 102 0
BBX 82 26 9 45
BITMAP
01FFFFFFFFFFFFFFFFF800
1FFFFFFFFFFFFFFFFFFF00
3FFFFFFFFFFFFFFFFFFF80
7FFFFFFFFFFFFFFFFFFFC0
FFFFFFFFFFFFFFFFFFFFC0
FFFFFFFFFFFFFFFFFFFFC0
FFFFFFFFFFFFFFFFFFFFC0
FFFFFFFFFFFFFFFFFFFFC0
FFFFFFFFFFFFFFFFFFFFC0
FFFFFFFFFFFFFFFFFFFFC0
FFFFFFFFFFFFFFFFFFFFC0
FFFFFFFFFFFFFFFFFFFFC0
FFFFFFFFFFFFFFFFFFFFC0
FFFFFFFFFFFFFFFFFFFFC0
FFFFFFFFFFFFFFFFFFFFC0
FFFFFFFFFFFFFFFFFFFFC0
FFFFFFFFFFFFFFFFFFFFC0
FFFFFFFFFFFFFFFFFFFFC0
FFFFFFFFFFFFFFFFFFFFC0
FFFFFFFFFFFFFFFFFFFFC0
FFFFFFFFFFFFFFFFFFFFC0
FFFFFFFFFFFFFFFFFFFFC0
7FFFFFFFFFFFFFFFFFFF80
7FFFFFFFFFFFFFFFFFFF00
1FFFFFFFFFFFFFFFFFFE00
03FFFFFFFFFFFFFFFFF000
ENDCHAR
STARTCHAR 002E
ENCODING 46
SWIDTH 320 0
DWIDTH 69 0
BBX 42 40 13 0
BITMAP
00003E000000
0001FFC00000
0003FFF00000
000FFFF80000
001FFFFE0000
003FFFFF0000
00FFFFFF8000
01FFFFFFC000
03FFFFFFE000
03FFFFFFF000
07FFFFFFF800
0FFFFFFFFC00
1FFFFFFFFE00
3FFFFFFFFE00
3FFFFFFFFF00
7FFFFFFFFF00
7FFFFFFFFF80
FFFFFFFFFF80
FFFFFFFFFFC0
FFFFFFFFFFC0
FFFFFFFFFFC0
FFFFFFFFFF80
FFFFFFFFFF80
FFFFFFFFFF80
7FFFFFFFFF00
7FFFFFFFFF00
3FFFFFFFFE00
1FFFFFFFFC00
1FFFFFFFFC00
0FFFFFFFF800
07FFFFFFF000
03FFFFFFE000
01FFFFFFC000
00FFFFFF8000
007FFFFF0000
001FFFFE0000
000FFFF80000
0003FFF00000
0001FFC00000
00003F000000
ENDCHAR
STARTCHAR 002F
ENCODING 47
SWIDTH 362 0
DWIDTH 78 0
BBX 84 161 5 -7
BITMAP
0000000000000000FC0000
0000000000000003FF0000
0000000000000007FFC000
000000000000000FFFF000
000000000000001FFFFC00
000000000000001FFFFF00
000000000000003FFFFF80
000000000000003FFFFFC0
000000000000007FFFFFE0
000000000000007FFFFFE0
00000000000000FFFFFFF0
00000000000000FFFFFFF0
00000000000001FFFFFFF0
00000000000001FFFFFFF0
00000000000001FFFFFFF0
00000000000003FFFFFFF0
00000000000003FFFFFFF0
00000000000007FFFFFFE0
00000000000007FFFFFFE0
0000000000000FFFFFFFE0
0000000000000FFFFFFFC0
0000000000000FFFFFFFC0
0000000000001FFFFFFF80
0000000000001FFFFFFF80
0000000000003FFFFFFF80
0000000000003FFFFFFF00
0000000000003FFFFFFF00
0000000000007FFFFFFE00
0000000000007FFFFFFE00
000000000000FFFFFFFE00
000000000000FFFFFFFC00
000000000001FFFFFFFC00
000000000001FFFFFFF800
000000000001FFFFFFF800
000000000003FFFFFFF000
000000000003FFFFFFF000
000000000007FFFFFFF000
000000000007FFFFFFE000
000000000007FFFFFFE000
00000000000FFFFFFFC000
00000000000FFFFFFFC000
00000000001FFFFFFFC000
00000000001FFFFFFF8000
00000000003FFFFFFF8000
00000000003FFFFFFF0000
00000000003FFFFFFF0000
00000000007FFFFFFE0000
00000000007FFFFFFE0000
0000000000FFFFFFFE0000
0000000000FFFFFFFC0000
0000000001FFFFFFFC0000
0000000001FFFFFFF80000
0000000001FFFFFFF80000
0000000003FFFFFFF80000
0000000003FFFFFFF00000
0000000007FFFFFFF00000
0000000007FFFFFFE00000
0000000007FFFFFFE00000
000000000FFFFFFFC00000
000000000FFFFFFFC00000
000000001FFFFFFFC00000
000000001FFFFFFF800000
000000003FFFFFFF800000
000000003FFFFFFF000000
000000003FFFFFFF000000
000000007FFFFFFE000000
000000007FFFFFFE000000
00000000FFFFFFFE000000
00000000FFFFFFFC000000
00000001FFFFFFFC000000
00000001FFFFFFF8000000
00000001FFFFFFF8000000
00000003FFFFFFF8000000
00000003FFFFFFF0000000
00000007FFFFFFF0000000
00000007FFFFFFE0000000
00000007FFFFFFE0000000
0000000FFFFFFFC0000000
0000000FFFFFFFC0000000
0000001FFFFFFFC0000000
0000001FFFFFFF80000000
0000003FFFFFFF80000000
0000003FFFFFFF00000000
0000003FFFFFFF00000000
0000007FFFFFFF00000000
0000007FFFFFFE00000000
000000FFFFFFFE00000000
000000FFFFFFFC00000000
000000FFFFFFFC00000000
000001FFFFFFF800000000
000001FFFFFFF800000000
000003FFFFFFF800000000
000003FFFFFFF000000000
000007FFFFFFF000000000
000007FFFFFFE000000000
000007FFFFFFE000000000
00000FFFFFFFE000000000
00000FFFFFFFC000000000
00001FFFFFFFC000000000
00001FFFFFFF8000000000
00003FFFFFFF8000000000
00003FFFFFFF0000000000
00003FFFFFFF0000000000
00007FFFFFFF0000000000
00007FFFFFFE0000000000
0000FFFFFFFE0000000000
0000FFFFFFFC0000000000
0000FFFFFFFC0000000000
0001FFFFFFFC0000000000
0001FFFFFFF80000000000
0003FFFFFFF80000000000
0003FFFFFFF00000000000
0007FFFFFFF00000000000
0007FFFFFFE00000000000
0007FFFFFFE00000000000
000FFFFFFFE00000000000
000FFFFFFFC00000000000
001FFFFFFFC00000000000
001FFFFFFF800000000000
003FFFFFFF800000000000
003FFFFFFF000000000000
003FFFFFFF000000000000
007FFFFFFF000000000000
007FFFFFFE000000000000
00FFFFFFFE000000000000
00FFFFFFFC000000000000
00FFFFFFFC000000000000
01FFFFFFFC000000000000
01FFFFFFF8000000000000
03FFFFFFF8000000000000
03FFFFFFF0000000000000
07FFFFFFF0000000000000
07FFFFFFE0000000000000
07FFFFFFE0000000000000
0FFFFFFFE0000000000000
0FFFFFFFC0000000000000
1FFFFFFFC0000000000000
1FFFFFFF80000000000000
1FFFFFFF80000000000000
3FFFFFFF80000000000000
3FFFFFFF00000000000000
7FFFFFFF00000000000000
7FFFFFFE00000000000000
7FFFFFFE00000000000000
FFFFFFFC00000000000000
FFFFFFFC00000000000000
FFFFFFFC00000000000000
FFFFFFF800000000000000
FFFFFFF800000000000000
FFFFFFF000000000000000
FFFFFFF000000000000000
7FFFFFF000000000000000
7FFFFFE000000000000000
3FFFFFE000000000000000
1FFFFFC000000000000000
07FFFFC000000000000000
03FFFF8000000000000000
00FFFF0000000000000000
003FFF0000000000000000
000FFC0000000000000000
0001F00000000000000000
ENDCHAR
STARTCHAR 0030
ENCODING 48
SWIDTH 636 0
DWIDTH 137 0
BBX 108 144 13 0
BITMAP
000000000007FFFE000000000000
0000000001FFFFFFF80000000000
000000001FFFFFFFFF8000000000
00000000FFFFFFFFFFF000000000
00000003FFFFFFFFFFFC00000000
0000000FFFFFFFFFFFFF80000000
0000003FFFFFFFFFFFFFC0000000
000000FFFFFFFFFFFFFFF0000000
000001FFFFFFFFFFFFFFFC000000
000007FFFFFFFFFFFFFFFE000000
00000FFFFFFFFFFFFFFFFF000000
00001FFFFFFFFFFFFFFFFF800000
00003FFFFFFFFFFFFFFFFFE00000
00007FFFFFFFFFFFFFFFFFF00000
0000FFFFFFFFFFFFFFFFFFF00000
0001FFFFFFFFFFFFFFFFFFF80000
0003FFFFFFFFFFFFFFFFFFFC0000
0007FFFFFFFFFFFFFFFFFFFE0000
000FFFFFFFFFFFFFFFFFFFFF0000
000FFFFFFFFFFFFFFFFFFFFF0000
001FFFFFFFFFFFFFFFFFFFFF8000
003FFFFFFFFFFFFFFFFFFFFFC000
003FFFFFFFFFFFFFFFFFFFFFC000
007FFFFFFFFFFFFFFFFFFFFFE000
007FFFFFFFFFFFFFFFFFFFFFE000
00FFFFFFFFFFFFFFFFFFFFFFF000
00FFFFFFFFFFFFFFFFFFFFFFF000
01FFFFFFFFFFFFFFFFFFFFFFF800
01FFFFFFFFFFE07FFFFFFFFFF800
01FFFFFFFFF80001FFFFFFFFFC00
03FFFFFFFFC000003FFFFFFFFC00
03FFFFFFFF8000001FFFFFFFFC00
07FFFFFFFE00000007FFFFFFFE00
07FFFFFFFC00000003FFFFFFFE00
07FFFFFFF800000003FFFFFFFE00
0FFFFFFFF800000001FFFFFFFF00
0FFFFFFFF000000000FFFFFFFF00
0FFFFFFFF000000000FFFFFFFF00
0FFFFFFFE0000000007FFFFFFF80
1FFFFFFFE0000000007FFFFFFF80
1FFFFFFFE0000000007FFFFFFF80
1FFFFFFFC0000000003FFFFFFF80
1FFFFFFFC0000000003FFFFFFF80
3FFFFFFFC0000000003FFFFFFFC0
3FFFFFFFC0000000003FFFFFFFC0
3FFFFFFFC0000000003FFFFFFFC0
3FFFFFFF80000000001FFFFFFFC0
3FFFFFFF80000000001FFFFFFFC0
3FFFFFFF80000000001FFFFFFFE0
7FFFFFFF80000000001FFFFFFFE0
7FFFFFFF80000000001FFFFFFFE0
7FFFFFFF80000000001FFFFFFFE0
7FFFFFFF80000000001FFFFFFFE0
7FFFFFFF80000000001FFFFFFFE0
7FFFFFFF80000000000FFFFFFFE0
7FFFFFFF00000000000FFFFFFFE0
7FFFFFFF00000000000FFFFFFFE0
7FFFFFFF00000000000FFFFFFFF0
FFFFFFFF00000000000FFFFFFFF0
FFFFFFFF00000000000FFFFFFFF0
FFFFFFFF00000000000FFFFFFFF0
FFFFFFFF00000000000FFFFFFFF0
FFFFFFFF00000000000FFFFFFFF0
FFFFFFFF00000000000FFFFFFFF0
FFFFFFFF00000000000FFFFFFFF0
FFFFFFFF00000000000FFFFFFFF0
FFFFFFFF00000000000FFFFFFFF0
FFFFFFFF00000000000FFFFFFFF0
FFFFFFFF00000000000FFFFFFFF0
FFFFFFFF00000000000FFFFFFFF0
FFFFFFFF00000000000FFFFFFFF0
FFFFFFFF00000000000FFFFFFFF0
FFFFFFFF00000000000FFFFFFFF0
FFFFFFFF00000000000FFFFFFFF0
FFFFFFFF00000000000FFFFFFFF0
FFFFFFFF00000000000FFFFFFFF0
FFFFFFFF00000000000FFFFFFFF0
FFFFFFFF00000000000FFFFFFFF0
FFFFFFFF00000000000FFFFFFFF0
FFFFFFFF00000000000FFFFFFFF0
FFFFFFFF00000000000FFFFFFFF0
FFFFFFFF00000000000FFFFFFFF0
FFFFFFFF00000000000FFFFFFFF0
FFFFFFFF00000000000FFFFFFFF0
FFFFFFFF00000000000FFFFFFFF0
FFFFFFFF00000000000FFFFFFFF0
7FFFFFFF00000000000FFFFFFFE0
7FFFFFFF00000000000FFFFFFFE0
7FFFFFFF00000000000FFFFFFFE0
7FFFFFFF80000000000FFFFFFFE0
7FFFFFFF80000000001FFFFFFFE0
7FFFFFFF80000000001FFFFFFFE0
7FFFFFFF80000000001FFFFFFFE0
7FFFFFFF80000000001FFFFFFFE0
7FFFFFFF80000000001FFFFFFFE0
3FFFFFFF80000000001FFFFFFFC0
3FFFFFFF80000000001FFFFFFFC0
3FFFFFFF80000000001FFFFFFFC0
3FFFFFFFC0000000003FFFFFFFC0
3FFFFFFFC0000000003FFFFFFFC0
3FFFFFFFC0000000003FFFFFFFC0
1FFFFFFFC0000000003FFFFFFF80
1FFFFFFFE0000000003FFFFFFF80
1FFFFFFFE0000000007FFFFFFF80
1FFFFFFFE0000000007FFFFFFF80
0FFFFFFFE0000000007FFFFFFF00
0FFFFFFFF000000000FFFFFFFF00
0FFFFFFFF000000000FFFFFFFF00
0FFFFFFFF800000001FFFFFFFF00
07FFFFFFFC00000001FFFFFFFE00
07FFFFFFFC00000003FFFFFFFE00
07FFFFFFFE00000007FFFFFFFE00
03FFFFFFFF8000001FFFFFFFFC00
03FFFFFFFFE000003FFFFFFFFC00
03FFFFFFFFF80001FFFFFFFFFC00
01FFFFFFFFFFF07FFFFFFFFFF800
01FFFFFFFFFFFFFFFFFFFFFFF800
00FFFFFFFFFFFFFFFFFFFFFFF000
00FFFFFFFFFFFFFFFFFFFFFFF000
007FFFFFFFFFFFFFFFFFFFFFE000
007FFFFFFFFFFFFFFFFFFFFFE000
003FFFFFFFFFFFFFFFFFFFFFC000
003FFFFFFFFFFFFFFFFFFFFFC000
001FFFFFFFFFFFFFFFFFFFFF8000
000FFFFFFFFFFFFFFFFFFFFF0000
000FFFFFFFFFFFFFFFFFFFFF0000
0007FFFFFFFFFFFFFFFFFFFE0000
0003FFFFFFFFFFFFFFFFFFFC0000
0001FFFFFFFFFFFFFFFFFFF80000
0000FFFFFFFFFFFFFFFFFFF00000
00007FFFFFFFFFFFFFFFFFE00000
00003FFFFFFFFFFFFFFFFFC00000
00001FFFFFFFFFFFFFFFFF800000
00000FFFFFFFFFFFFFFFFF000000
000007FFFFFFFFFFFFFFFE000000
000003FFFFFFFFFFFFFFF8000000
000000FFFFFFFFFFFFFFF0000000
0000003FFFFFFFFFFFFFC0000000
0000001FFFFFFFFFFFFF00000000
00000003FFFFFFFFFFFC00000000
00000000FFFFFFFFFFF000000000
000000001FFFFFFFFF8000000000
0000000001FFFFFFF80000000000
000000000007FFFE000000000000
ENDCHAR
STARTCHAR 0031
ENCODING 49
SWIDTH 617 0
DWIDTH 133 0
BBX 54 144 32 0
BITMAP
0000000007FE00
00000000FFFF80
0000000FFFFFE0
0000007FFFFFF0
000001FFFFFFF0
00000FFFFFFFF8
00003FFFFFFFF8
0000FFFFFFFFFC
0007FFFFFFFFFC
001FFFFFFFFFFC
007FFFFFFFFFFC
03FFFFFFFFFFFC
07FFFFFFFFFFFC
1FFFFFFFFFFFFC
3FFFFFFFFFFFFC
3FFFFFFFFFFFFC
7FFFFFFFFFFFFC
7FFFFFFFFFFFFC
FFFFFFFFFFFFFC
FFFFFFFFFFFFFC
FFFFFFFFFFFFFC
FFFFFFFFFFFFFC
FFFFFFFFFFFFFC
FFFFFFFFFFFFFC
FFFFFFFFFFFFFC
FFFFFFFFFFFFFC
FFFFFFFFFFFFFC
FFFFFFFFFFFFFC
FFFFFFFFFFFFFC
FFFFFFFFFFFFFC
7FFFFFFFFFFFFC
7FFFFFFFFFFFFC
7FFFFFFFFFFFFC
3FFFF3FFFFFFFC
1FFFC3FFFFFFFC
0FFE03FFFFFFFC
07F803FFFFFFFC
000003FFFFFFFC
000003FFFFFFFC
000003FFFFFFFC
000003FFFFFFFC
000003FFFFFFFC
000003FFFFFFFC
000003FFFFFFFC
000003FFFFFFFC
000003FFFFFFFC
000003FFFFFFFC
000003FFFFFFFC
000003FFFFFFFC
000003FFFFFFFC
000003FFFFFFFC
000003FFFFFFFC
000003FFFFFFFC
000003FFFFFFFC
000003FFFFFFFC
000003FFFFFFFC
000003FFFFFFFC
000003FFFFFFFC
000003FFFFFFFC
000003FFFFFFFC
000003FFFFFFFC
000003FFFFFFFC
000003FFFFFFFC
000003FFFFFFFC
000003FFFFFFFC
000003FFFFFFFC
000003FFFFFFFC
000003FFFFFFFC
000003FFFFFFFC
000003FFFFFFFC
000003FFFFFFFC
000003FFFFFFFC
000003FFFFFFFC
000003FFFFFFFC
000003FFFFFFFC
000003FFFFFFFC
000003FFFFFFFC
000003FFFFFFFC
000003FFFFFFFC
000003FFFFFFFC
000003FFFFFFFC
000003FFFFFFFC
000003FFFFFFFC
000003FFFFFFFC
000003FFFFFFFC
000003FFFFFFFC
000003FFFFFFFC
000003FFFFFFFC
000003FFFFFFFC
000003FFFFFFFC
000003FFFFFFFC
000003FFFFFFFC
000003FFFFFFFC
000003FFFFFFFC
000003FFFFFFFC
000003FFFFFFFC
000003FFFFFFFC
000003FFFFFFFC
000003FFFFFFFC
000003FFFFFFFC
000003FFFFFFFC
000003FFFFFFFC
000003FFFFFFFC
000003FFFFFFFC
000003FFFFFFFC
000003FFFFFFFC
000003FFFFFFFC
000003FFFFFFFC
000003FFFFFFFC
000003FFFFFFFC
000003FFFFFFFC
000003FFFFFFFC
000003FFFFFFFC
000003FFFFFFFC
000003FFFFFFFC
000003FFFFFFFC
000003FFFFFFFC
000003FFFFFFFC
000003FFFFFFFC
000003FFFFFFFC
000003FFFFFFFC
000003FFFFFFFC
000003FFFFFFFC
000003FFFFFFFC
000003FFFFFFFC
000003FFFFFFFC
000003FFFFFFFC
000003FFFFFFFC
000003FFFFFFFC
000003FFFFFFFC
000003FFFFFFFC
000003FFFFFFFC
000003FFFFFFFC
000003FFFFFFFC
000003FFFFFFFC
000003FFFFFFFC
000003FFFFFFFC
000001FFFFFFF8
000001FFFFFFF8
000001FFFFFFF0
000000FFFFFFF0
0000007FFFFFE0
0000001FFFFF80
00000003FFFE00
ENDCHAR
STARTCHAR 0032
ENCODING 50
SWIDTH 636 0
DWIDTH 137 0
BBX 97 144 13 0
BITMAP
0000000003FFFFF80000000000
0000001FFFFFFFFFF000000000
00001FFFFFFFFFFFFF00000000
0001FFFFFFFFFFFFFFE0000000
000FFFFFFFFFFFFFFFF8000000
001FFFFFFFFFFFFFFFFF000000
003FFFFFFFFFFFFFFFFF800000
007FFFFFFFFFFFFFFFFFE00000
00FFFFFFFFFFFFFFFFFFF80000
00FFFFFFFFFFFFFFFFFFFC0000
00FFFFFFFFFFFFFFFFFFFE0000
00FFFFFFFFFFFFFFFFFFFF0000
00FFFFFFFFFFFFFFFFFFFF8000
00FFFFFFFFFFFFFFFFFFFFC000
00FFFFFFFFFFFFFFFFFFFFE000
00FFFFFFFFFFFFFFFFFFFFE000
00FFFFFFFFFFFFFFFFFFFFF000
00FFFFFFFFFFFFFFFFFFFFF800
00FFFFFFFFFFFFFFFFFFFFF800
00FFFFFFFFFFFFFFFFFFFFFC00
007FFFFFFFFFFFFFFFFFFFFC00
007FFFFFFFFFFFFFFFFFFFFE00
007FFFFFFFFFFFFFFFFFFFFE00
003FFFFFFFFFFFFFFFFFFFFE00
003FFFFFFFFFFFFFFFFFFFFF00
001FFFFFFFFFFFFFFFFFFFFF00
000FFFFFFFFFFFFFFFFFFFFF00
0003FFFFFFFFFFFFFFFFFFFF00
000000000000007FFFFFFFFF00
000000000000000FFFFFFFFF80
0000000000000003FFFFFFFF80
0000000000000003FFFFFFFF80
0000000000000001FFFFFFFF80
0000000000000001FFFFFFFF80
0000000000000000FFFFFFFF80
0000000000000000FFFFFFFF80
0000000000000000FFFFFFFF80
0000000000000000FFFFFFFF80
0000000000000000FFFFFFFF80
0000000000000000FFFFFFFF80
0000000000000000FFFFFFFF80
0000000000000000FFFFFFFF80
0000000000000000FFFFFFFF80
0000000000000000FFFFFFFF80
0000000000000000FFFFFFFF00
0000000000000001FFFFFFFF00
0000000000000001FFFFFFFF00
0000000000000001FFFFFFFF00
0000000000000003FFFFFFFF00
0000000000000003FFFFFFFE00
0000000000000003FFFFFFFE00
0000000000000007FFFFFFFE00
0000000000000007FFFFFFFE00
000000000000000FFFFFFFFC00
000000000000000FFFFFFFFC00
000000000000001FFFFFFFFC00
000000000000003FFFFFFFF800
000000000000003FFFFFFFF800
000000000000007FFFFFFFF800
00000000000000FFFFFFFFF000
00000000000000FFFFFFFFF000
00000000000001FFFFFFFFE000
00000000000003FFFFFFFFE000
00000000000007FFFFFFFFC000
00000000000007FFFFFFFFC000
0000000000000FFFFFFFFF8000
0000000000001FFFFFFFFF8000
0000000000003FFFFFFFFF0000
0000000000007FFFFFFFFF0000
000000000000FFFFFFFFFE0000
000000000000FFFFFFFFFC0000
000000000001FFFFFFFFFC0000
000000000003FFFFFFFFF80000
000000000007FFFFFFFFF00000
00000000000FFFFFFFFFF00000
00000000001FFFFFFFFFE00000
00000000003FFFFFFFFFC00000
00000000007FFFFFFFFF800000
0000000000FFFFFFFFFF800000
0000000001FFFFFFFFFF000000
0000000003FFFFFFFFFE000000
0000000007FFFFFFFFFC000000
000000000FFFFFFFFFF8000000
000000001FFFFFFFFFF0000000
000000003FFFFFFFFFF0000000
000000007FFFFFFFFFE0000000
00000000FFFFFFFFFFC0000000
00000001FFFFFFFFFF80000000
00000003FFFFFFFFFF00000000
00000007FFFFFFFFFE00000000
0000000FFFFFFFFFFC00000000
0000001FFFFFFFFFF800000000
0000003FFFFFFFFFF000000000
0000007FFFFFFFFFE000000000
000000FFFFFFFFFFC000000000
000001FFFFFFFFFF8000000000
000003FFFFFFFFFF0000000000
000007FFFFFFFFFE0000000000
00000FFFFFFFFFF80000000000
00001FFFFFFFFFF00000000000
00003FFFFFFFFFE00000000000
00007FFFFFFFFFC00000000000
0000FFFFFFFFFF800000000000
0001FFFFFFFFFF000000000000
0003FFFFFFFFFE000000000000
0007FFFFFFFFFC000000000000
000FFFFFFFFFF0000000000000
001FFFFFFFFFE0000000000000
003FFFFFFFFFC0000000000000
007FFFFFFFFF80000000000000
00FFFFFFFFFF00000000000000
01FFFFFFFFFE00000000000000
03FFFFFFFFF800000000000000
07FFFFFFFFF000000000000000
0FFFFFFFFFE000000000000000
1FFFFFFFFFFFFFFFFFFFFF0000
1FFFFFFFFFFFFFFFFFFFFFF000
3FFFFFFFFFFFFFFFFFFFFFF800
7FFFFFFFFFFFFFFFFFFFFFFC00
7FFFFFFFFFFFFFFFFFFFFFFE00
7FFFFFFFFFFFFFFFFFFFFFFF00
FFFFFFFFFFFFFFFFFFFFFFFF00
FFFFFFFFFFFFFFFFFFFFFFFF00
FFFFFFFFFFFFFFFFFFFFFFFF80
FFFFFFFFFFFFFFFFFFFFFFFF80
FFFFFFFFFFFFFFFFFFFFFFFF80
FFFFFFFFFFFFFFFFFFFFFFFF80
FFFFFFFFFFFFFFFFFFFFFFFF80
FFFFFFFFFFFFFFFFFFFFFFFF80
FFFFFFFFFFFFFFFFFFFFFFFF80
FFFFFFFFFFFFFFFFFFFFFFFF80
FFFFFFFFFFFFFFFFFFFFFFFF80
FFFFFFFFFFFFFFFFFFFFFFFF80
FFFFFFFFFFFFFFFFFFFFFFFF80
FFFFFFFFFFFFFFFFFFFFFFFF80
FFFFFFFFFFFFFFFFFFFFFFFF80
FFFFFFFFFFFFFFFFFFFFFFFF80
FFFFFFFFFFFFFFFFFFFFFFFF00
7FFFFFFFFFFFFFFFFFFFFFFF00
7FFFFFFFFFFFFFFFFFFFFFFE00
3FFFFFFFFFFFFFFFFFFFFFFE00
1FFFFFFFFFFFFFFFFFFFFFFC00
0FFFFFFFFFFFFFFFFFFFFFF000
03FFFFFFFFFFFFFFFFFFFFC000
ENDCHAR
STARTCHAR 0033
ENCODING 51
SWIDTH 636 0
DWIDTH 137 0
BBX 94 144 14 0
BITMAP
0000003FFFFFFF0000000000
0000FFFFFFFFFFFE00000000
0007FFFFFFFFFFFFF0000000
001FFFFFFFFFFFFFFE000000
001FFFFFFFFFFFFFFFC00000
003FFFFFFFFFFFFFFFF00000
007FFFFFFFFFFFFFFFFC0000
007FFFFFFFFFFFFFFFFF0000
007FFFFFFFFFFFFFFFFF8000
00FFFFFFFFFFFFFFFFFFC000
00FFFFFFFFFFFFFFFFFFF000
00FFFFFFFFFFFFFFFFFFF800
00FFFFFFFFFFFFFFFFFFFC00
00FFFFFFFFFFFFFFFFFFFE00
00FFFFFFFFFFFFFFFFFFFE00
007FFFFFFFFFFFFFFFFFFF00
007FFFFFFFFFFFFFFFFFFF80
007FFFFFFFFFFFFFFFFFFF80
007FFFFFFFFFFFFFFFFFFFC0
007FFFFFFFFFFFFFFFFFFFC0
007FFFFFFFFFFFFFFFFFFFE0
003FFFFFFFFFFFFFFFFFFFE0
003FFFFFFFFFFFFFFFFFFFF0
003FFFFFFFFFFFFFFFFFFFF0
001FFFFFFFFFFFFFFFFFFFF0
000FFFFFFFFFFFFFFFFFFFF8
0007FFFFFFFFFFFFFFFFFFF8
000000000003FFFFFFFFFFF8
00000000000000FFFFFFFFF8
000000000000003FFFFFFFF8
000000000000001FFFFFFFFC
000000000000000FFFFFFFFC
0000000000000007FFFFFFFC
0000000000000007FFFFFFFC
0000000000000007FFFFFFFC
0000000000000003FFFFFFFC
0000000000000003FFFFFFFC
0000000000000003FFFFFFFC
0000000000000003FFFFFFFC
0000000000000003FFFFFFFC
0000000000000003FFFFFFFC
0000000000000003FFFFFFFC
0000000000000003FFFFFFFC
0000000000000003FFFFFFFC
0000000000000003FFFFFFFC
0000000000000003FFFFFFFC
0000000000000003FFFFFFF8
0000000000000003FFFFFFF8
0000000000000007FFFFFFF8
0000000000000007FFFFFFF8
0000000000000007FFFFFFF8
000000000000000FFFFFFFF0
000000000000000FFFFFFFF0
000000000000001FFFFFFFF0
000000000000003FFFFFFFE0
000000000000007FFFFFFFE0
00000000000001FFFFFFFFC0
0000000000001FFFFFFFFFC0
000007FFFFFFFFFFFFFFFF80
00001FFFFFFFFFFFFFFFFF80
00007FFFFFFFFFFFFFFFFF00
00007FFFFFFFFFFFFFFFFE00
0000FFFFFFFFFFFFFFFFFE00
0000FFFFFFFFFFFFFFFFFC00
0001FFFFFFFFFFFFFFFFF800
0001FFFFFFFFFFFFFFFFF000
0001FFFFFFFFFFFFFFFFE000
0001FFFFFFFFFFFFFFFFF000
0001FFFFFFFFFFFFFFFFF800
0001FFFFFFFFFFFFFFFFFC00
0001FFFFFFFFFFFFFFFFFE00
0001FFFFFFFFFFFFFFFFFF00
0001FFFFFFFFFFFFFFFFFF00
0001FFFFFFFFFFFFFFFFFF80
0001FFFFFFFFFFFFFFFFFFC0
0001FFFFFFFFFFFFFFFFFFC0
0001FFFFFFFFFFFFFFFFFFE0
0001FFFFFFFFFFFFFFFFFFE0
0001FFFFFFFFFFFFFFFFFFE0
0000FFFFFFFFFFFFFFFFFFF0
0000FFFFFFFFFFFFFFFFFFF0
0000FFFFFFFFFFFFFFFFFFF0
00007FFFFFFFFFFFFFFFFFF0
00003FFFFFFFFFFFFFFFFFF8
000007FFFFFFFFFFFFFFFFF8
00000000000003FFFFFFFFF8
000000000000007FFFFFFFF8
000000000000001FFFFFFFF8
000000000000001FFFFFFFFC
000000000000000FFFFFFFFC
0000000000000007FFFFFFFC
0000000000000007FFFFFFFC
0000000000000007FFFFFFFC
0000000000000003FFFFFFFC
0000000000000003FFFFFFFC
0000000000000003FFFFFFFC
0000000000000003FFFFFFFC
0000000000000003FFFFFFFC
0000000000000003FFFFFFFC
0000000000000003FFFFFFFC
0000000000000003FFFFFFFC
0000000000000003FFFFFFFC
0000000000000003FFFFFFFC
0000000000000003FFFFFFFC
0000000000000003FFFFFFFC
0000000000000003FFFFFFFC
0000000000000007FFFFFFFC
0000000000000007FFFFFFFC
003C000000000007FFFFFFF8
00FFC0000000000FFFFFFFF8
01FFF8000000000FFFFFFFF8
03FFFF000000001FFFFFFFF8
07FFFFE00000003FFFFFFFF8
07FFFFFE0000007FFFFFFFF8
0FFFFFFFF00003FFFFFFFFF0
0FFFFFFFFFFFFFFFFFFFFFF0
0FFFFFFFFFFFFFFFFFFFFFF0
1FFFFFFFFFFFFFFFFFFFFFF0
1FFFFFFFFFFFFFFFFFFFFFE0
1FFFFFFFFFFFFFFFFFFFFFE0
3FFFFFFFFFFFFFFFFFFFFFC0
3FFFFFFFFFFFFFFFFFFFFFC0
3FFFFFFFFFFFFFFFFFFFFFC0
7FFFFFFFFFFFFFFFFFFFFF80
7FFFFFFFFFFFFFFFFFFFFF80
7FFFFFFFFFFFFFFFFFFFFF00
7FFFFFFFFFFFFFFFFFFFFE00
7FFFFFFFFFFFFFFFFFFFFE00
7FFFFFFFFFFFFFFFFFFFFC00
FFFFFFFFFFFFFFFFFFFFF800
7FFFFFFFFFFFFFFFFFFFF800
7FFFFFFFFFFFFFFFFFFFF000
7FFFFFFFFFFFFFFFFFFFE000
3FFFFFFFFFFFFFFFFFFFC000
3FFFFFFFFFFFFFFFFFFF0000
1FFFFFFFFFFFFFFFFFFE0000
0FFFFFFFFFFFFFFFFFFC0000
03FFFFFFFFFFFFFFFFF00000
00FFFFFFFFFFFFFFFFC00000
003FFFFFFFFFFFFFFF000000
0007FFFFFFFFFFFFFC000000
00007FFFFFFFFFFFE0000000
000003FFFFFFFFFE00000000
00000001FFFFFF0000000000
ENDCHAR
STARTCHAR 0034
ENCODING 52
SWIDTH 636 0
DWIDTH 137 0
BBX 108 144 10 0
BITMAP
00000000000000000FFFFC000000
00000000000000003FFFFF000000
0000000000000000FFFFFFC00000
0000000000000001FFFFFFE00000
0000000000000003FFFFFFE00000
0000000000000003FFFFFFF00000
0000000000000007FFFFFFF00000
000000000000000FFFFFFFF80000
000000000000001FFFFFFFF80000
000000000000001FFFFFFFF80000
000000000000003FFFFFFFF80000
000000000000007FFFFFFFF80000
00000000000000FFFFFFFFF80000
00000000000001FFFFFFFFF80000
00000000000001FFFFFFFFF80000
00000000000003FFFFFFFFF80000
00000000000007FFFFFFFFF80000
0000000000000FFFFFFFFFF80000
0000000000000FFFFFFFFFF80000
0000000000001FFFFFFFFFF80000
0000000000003FFFFFFFFFF80000
0000000000007FFFFFFFFFF80000
000000000000FFFFFFFFFFF80000
000000000000FFFFFFFFFFF80000
000000000001FFFFFFFFFFF80000
000000000003FFFFFFFFFFF80000
000000000007FFFFFFFFFFF80000
000000000007FFFFFFFFFFF80000
00000000000FFFFFFFFFFFF80000
00000000001FFFFFFFFFFFF80000
00000000003FFFFFFFFFFFF80000
00000000003FFFFFFFFFFFF80000
00000000007FFFFFFFFFFFF80000
0000000000FFFFFFFFFFFFF80000
0000000001FFFFFFFFFFFFF80000
0000000003FFFFFFFFFFFFF80000
0000000003FFFFFFFFFFFFF80000
0000000007FFFFFFFFFFFFF80000
000000000FFFFFFFFFFFFFF80000
000000001FFFFFFFFFFFFFF80000
000000001FFFFFFFFFFFFFF80000
000000003FFFFFFFFFFFFFF80000
000000007FFFFFFFFFFFFFF80000
00000000FFFFFFFFFFFFFFF80000
00000000FFFFFFFFFFFFFFF80000
00000001FFFFFFFFFFFFFFF80000
00000003FFFFFFFDFFFFFFF80000
00000007FFFFFFF9FFFFFFF80000
0000000FFFFFFFF9FFFFFFF80000
0000000FFFFFFFF1FFFFFFF80000
0000001FFFFFFFE1FFFFFFF80000
0000003FFFFFFFC1FFFFFFF80000
0000007FFFFFFF81FFFFFFF80000
0000007FFFFFFF81FFFFFFF80000
000000FFFFFFFF01FFFFFFF80000
000001FFFFFFFE01FFFFFFF80000
000003FFFFFFFC01FFFFFFF80000
000007FFFFFFFC01FFFFFFF80000
000007FFFFFFF801FFFFFFF80000
00000FFFFFFFF001FFFFFFF80000
00001FFFFFFFE001FFFFFFF80000
00003FFFFFFFC001FFFFFFF80000
00003FFFFFFFC001FFFFFFF80000
00007FFFFFFF8001FFFFFFF80000
0000FFFFFFFF0001FFFFFFF80000
0001FFFFFFFE0001FFFFFFF80000
0001FFFFFFFE0001FFFFFFF80000
0003FFFFFFFC0001FFFFFFF80000
0007FFFFFFF80001FFFFFFF80000
000FFFFFFFF00001FFFFFFF80000
001FFFFFFFE00001FFFFFFF80000
001FFFFFFFE00001FFFFFFF80000
003FFFFFFFC00001FFFFFFF80000
007FFFFFFF800001FFFFFFF80000
00FFFFFFFF000001FFFFFFF80000
00FFFFFFFF000001FFFFFFF80000
01FFFFFFFE000001FFFFFFF80000
03FFFFFFFC000001FFFFFFF80000
07FFFFFFF8000001FFFFFFF80000
0FFFFFFFF0000001FFFFFFF80000
0FFFFFFFF0000001FFFFFFF80000
1FFFFFFFE0000001FFFFFFF80000
3FFFFFFFFFFFFFFFFFFFFFFFF800
3FFFFFFFFFFFFFFFFFFFFFFFFF00
7FFFFFFFFFFFFFFFFFFFFFFFFF80
7FFFFFFFFFFFFFFFFFFFFFFFFFC0
7FFFFFFFFFFFFFFFFFFFFFFFFFE0
FFFFFFFFFFFFFFFFFFFFFFFFFFE0
FFFFFFFFFFFFFFFFFFFFFFFFFFE0
FFFFFFFFFFFFFFFFFFFFFFFFFFE0
FFFFFFFFFFFFFFFFFFFFFFFFFFF0
FFFFFFFFFFFFFFFFFFFFFFFFFFF0
FFFFFFFFFFFFFFFFFFFFFFFFFFF0
FFFFFFFFFFFFFFFFFFFFFFFFFFF0
FFFFFFFFFFFFFFFFFFFFFFFFFFF0
FFFFFFFFFFFFFFFFFFFFFFFFFFF0
7FFFFFFFFFFFFFFFFFFFFFFFFFF0
7FFFFFFFFFFFFFFFFFFFFFFFFFF0
7FFFFFFFFFFFFFFFFFFFFFFFFFF0
7FFFFFFFFFFFFFFFFFFFFFFFFFF0
3FFFFFFFFFFFFFFFFFFFFFFFFFF0
3FFFFFFFFFFFFFFFFFFFFFFFFFF0
3FFFFFFFFFFFFFFFFFFFFFFFFFE0
1FFFFFFFFFFFFFFFFFFFFFFFFFE0
1FFFFFFFFFFFFFFFFFFFFFFFFFE0
0FFFFFFFFFFFFFFFFFFFFFFFFFE0
0FFFFFFFFFFFFFFFFFFFFFFFFFC0
07FFFFFFFFFFFFFFFFFFFFFFFF80
03FFFFFFFFFFFFFFFFFFFFFFFF00
01FFFFFFFFFFFFFFFFFFFFFFFE00
007FFFFFFFFFFFFFFFFFFFFFF000
0000000000000001FFFFFFF80000
0000000000000001FFFFFFF80000
0000000000000001FFFFFFF80000
0000000000000001FFFFFFF80000
0000000000000001FFFFFFF80000
0000000000000001FFFFFFF80000
0000000000000001FFFFFFF80000
0000000000000001FFFFFFF80000
0000000000000001FFFFFFF80000
0000000000000001FFFFFFF80000
0000000000000001FFFFFFF80000
0000000000000001FFFFFFF80000
0000000000000001FFFFFFF80000
0000000000000001FFFFFFF80000
0000000000000001FFFFFFF80000
0000000000000001FFFFFFF80000
0000000000000001FFFFFFF80000
0000000000000001FFFFFFF80000
0000000000000001FFFFFFF80000
0000000000000001FFFFFFF80000
0000000000000001FFFFFFF80000
0000000000000001FFFFFFF80000
0000000000000001FFFFFFF80000
0000000000000001FFFFFFF80000
0000000000000001FFFFFFF80000
0000000000000001FFFFFFF80000
0000000000000000FFFFFFF00000
0000000000000000FFFFFFF00000
0000000000000000FFFFFFF00000
00000000000000007FFFFFE00000
00000000000000003FFFFFC00000
00000000000000000FFFFF000000
000000000000000001FFF8000000
ENDCHAR
STARTCHAR 0035
ENCODING 53
SWIDTH 631 0
DWIDTH 136 0
BBX 95 144 19 0
BITMAP
00003FFFFFFFFFFFFFFFFF00
0000FFFFFFFFFFFFFFFFFFE0
0001FFFFFFFFFFFFFFFFFFF0
0003FFFFFFFFFFFFFFFFFFF8
0007FFFFFFFFFFFFFFFFFFF8
000FFFFFFFFFFFFFFFFFFFFC
000FFFFFFFFFFFFFFFFFFFFC
000FFFFFFFFFFFFFFFFFFFFE
001FFFFFFFFFFFFFFFFFFFFE
001FFFFFFFFFFFFFFFFFFFFE
001FFFFFFFFFFFFFFFFFFFFE
001FFFFFFFFFFFFFFFFFFFFE
001FFFFFFFFFFFFFFFFFFFFE
001FFFFFFFFFFFFFFFFFFFFE
001FFFFFFFFFFFFFFFFFFFFE
001FFFFFFFFFFFFFFFFFFFFE
001FFFFFFFFFFFFFFFFFFFFE
003FFFFFFFFFFFFFFFFFFFFE
003FFFFFFFFFFFFFFFFFFFFE
003FFFFFFFFFFFFFFFFFFFFE
003FFFFFFFFFFFFFFFFFFFFE
003FFFFFFFFFFFFFFFFFFFFC
003FFFFFFFFFFFFFFFFFFFFC
003FFFFFFFFFFFFFFFFFFFFC
003FFFFFFFFFFFFFFFFFFFF8
003FFFFFFFFFFFFFFFFFFFF0
003FFFFFFFFFFFFFFFFFFFE0
003FFFFFFFFFFFFFFFFFFFC0
003FFFFFFFFFFFFFFFFFFC00
003FFFFFFF00000000000000
007FFFFFFE00000000000000
007FFFFFFE00000000000000
007FFFFFFE00000000000000
007FFFFFFE00000000000000
007FFFFFFE00000000000000
007FFFFFFE00000000000000
007FFFFFFE00000000000000
007FFFFFFE00000000000000
007FFFFFFE00000000000000
007FFFFFFC00000000000000
007FFFFFFC00000000000000
007FFFFFFC00000000000000
00FFFFFFFC00000000000000
00FFFFFFFC00000000000000
00FFFFFFFC00000000000000
00FFFFFFFC00000000000000
00FFFFFFFC00000000000000
00FFFFFFFC00000000000000
00FFFFFFF800000000000000
00FFFFFFF80C000000000000
00FFFFFFFFFFFFFF00000000
00FFFFFFFFFFFFFFF8000000
00FFFFFFFFFFFFFFFF000000
00FFFFFFFFFFFFFFFFC00000
01FFFFFFFFFFFFFFFFF00000
01FFFFFFFFFFFFFFFFFC0000
01FFFFFFFFFFFFFFFFFE0000
01FFFFFFFFFFFFFFFFFF8000
01FFFFFFFFFFFFFFFFFFC000
01FFFFFFFFFFFFFFFFFFE000
01FFFFFFFFFFFFFFFFFFF000
01FFFFFFFFFFFFFFFFFFF800
01FFFFFFFFFFFFFFFFFFF800
01FFFFFFFFFFFFFFFFFFFC00
01FFFFFFFFFFFFFFFFFFFE00
01FFFFFFFFFFFFFFFFFFFF00
03FFFFFFFFFFFFFFFFFFFF00
03FFFFFFFFFFFFFFFFFFFF80
03FFFFFFFFFFFFFFFFFFFF80
03FFFFFFFFFFFFFFFFFFFFC0
03FFFFFFFFFFFFFFFFFFFFC0
01FFFFFFFFFFFFFFFFFFFFE0
01FFFFFFFFFFFFFFFFFFFFE0
01FFFFFFFFFFFFFFFFFFFFE0
00FFFFFFFFFFFFFFFFFFFFF0
00FFFFFFFFFFFFFFFFFFFFF0
007FFFFFFFF1FFFFFFFFFFF0
001FFFF0000001FFFFFFFFF8
0003F8000000003FFFFFFFF8
000000000000001FFFFFFFF8
000000000000000FFFFFFFF8
000000000000000FFFFFFFFC
0000000000000007FFFFFFFC
0000000000000007FFFFFFFC
0000000000000003FFFFFFFC
0000000000000003FFFFFFFC
0000000000000003FFFFFFFC
0000000000000003FFFFFFFE
0000000000000003FFFFFFFE
0000000000000001FFFFFFFE
0000000000000001FFFFFFFE
0000000000000001FFFFFFFE
0000000000000001FFFFFFFE
0000000000000001FFFFFFFE
0000000000000001FFFFFFFE
0000000000000001FFFFFFFE
0000000000000001FFFFFFFE
0000000000000001FFFFFFFE
0000000000000001FFFFFFFE
0000000000000001FFFFFFFE
0000000000000001FFFFFFFE
0000000000000001FFFFFFFE
0000000000000003FFFFFFFE
0000000000000003FFFFFFFE
0000000000000003FFFFFFFE
0000000000000003FFFFFFFC
0000000000000007FFFFFFFC
0000000000000007FFFFFFFC
000000000000000FFFFFFFFC
00FF00000000000FFFFFFFFC
01FFE0000000001FFFFFFFFC
03FFFC000000003FFFFFFFF8
07FFFF800000007FFFFFFFF8
0FFFFFF8000000FFFFFFFFF8
0FFFFFFFC00003FFFFFFFFF0
1FFFFFFFFF003FFFFFFFFFF0
1FFFFFFFFFFFFFFFFFFFFFF0
3FFFFFFFFFFFFFFFFFFFFFE0
3FFFFFFFFFFFFFFFFFFFFFE0
3FFFFFFFFFFFFFFFFFFFFFE0
7FFFFFFFFFFFFFFFFFFFFFC0
7FFFFFFFFFFFFFFFFFFFFFC0
7FFFFFFFFFFFFFFFFFFFFF80
7FFFFFFFFFFFFFFFFFFFFF00
7FFFFFFFFFFFFFFFFFFFFF00
FFFFFFFFFFFFFFFFFFFFFE00
FFFFFFFFFFFFFFFFFFFFFC00
FFFFFFFFFFFFFFFFFFFFFC00
FFFFFFFFFFFFFFFFFFFFF800
FFFFFFFFFFFFFFFFFFFFF000
FFFFFFFFFFFFFFFFFFFFE000
7FFFFFFFFFFFFFFFFFFFC000
7FFFFFFFFFFFFFFFFFFF8000
7FFFFFFFFFFFFFFFFFFF0000
3FFFFFFFFFFFFFFFFFFE0000
1FFFFFFFFFFFFFFFFFF80000
07FFFFFFFFFFFFFFFFF00000
03FFFFFFFFFFFFFFFFC00000
007FFFFFFFFFFFFFFF000000
000FFFFFFFFFFFFFFC000000
0000FFFFFFFFFFFFF0000000
000003FFFFFFFFFF00000000
0000000FFFFFFFF800000000
0000000007FFFE0000000000
ENDCHAR
STARTCHAR 0036
ENCODING 54
SWIDTH 636 0
DWIDTH 137 0
BBX 103 144 16 0
BITMAP
000000000001FFFFFFFFFF0000
0000000001FFFFFFFFFFFFE000
000000003FFFFFFFFFFFFFF000
00000001FFFFFFFFFFFFFFF800
0000000FFFFFFFFFFFFFFFFC00
0000003FFFFFFFFFFFFFFFFC00
000000FFFFFFFFFFFFFFFFFE00
000003FFFFFFFFFFFFFFFFFE00
00000FFFFFFFFFFFFFFFFFFE00
00001FFFFFFFFFFFFFFFFFFE00
00003FFFFFFFFFFFFFFFFFFE00
00007FFFFFFFFFFFFFFFFFFE00
0001FFFFFFFFFFFFFFFFFFFE00
0003FFFFFFFFFFFFFFFFFFFE00
0003FFFFFFFFFFFFFFFFFFFE00
0007FFFFFFFFFFFFFFFFFFFE00
000FFFFFFFFFFFFFFFFFFFFE00
001FFFFFFFFFFFFFFFFFFFFE00
001FFFFFFFFFFFFFFFFFFFFE00
003FFFFFFFFFFFFFFFFFFFFE00
007FFFFFFFFFFFFFFFFFFFFE00
007FFFFFFFFFFFFFFFFFFFFE00
00FFFFFFFFFFFFFFFFFFFFFC00
00FFFFFFFFFFFFFFFFFFFFF800
01FFFFFFFFFFFFFFFFFFFFF000
01FFFFFFFFFFFFFFFFFFFFC000
01FFFFFFFFFFC0000000000000
03FFFFFFFFF000000000000000
03FFFFFFFFC000000000000000
03FFFFFFFF0000000000000000
07FFFFFFFE0000000000000000
07FFFFFFFE0000000000000000
07FFFFFFFC0000000000000000
0FFFFFFFFC0000000000000000
0FFFFFFFF80000000000000000
0FFFFFFFF80000000000000000
0FFFFFFFF80000000000000000
0FFFFFFFF00000000000000000
1FFFFFFFF00000000000000000
1FFFFFFFF00000000000000000
1FFFFFFFF00000000000000000
1FFFFFFFE00000000000000000
1FFFFFFFE00000000000000000
3FFFFFFFE00000000000000000
3FFFFFFFE00000000000000000
3FFFFFFFE00000000000000000
3FFFFFFFC00000000000000000
3FFFFFFFC00000000000000000
3FFFFFFFC00000000000000000
3FFFFFFFC00000000000000000
3FFFFFFFC00000000000000000
7FFFFFFFC000FFFFE000000000
7FFFFFFF80FFFFFFFF80000000
7FFFFFFFBFFFFFFFFFF8000000
7FFFFFFFFFFFFFFFFFFF000000
7FFFFFFFFFFFFFFFFFFFE00000
7FFFFFFFFFFFFFFFFFFFF80000
7FFFFFFFFFFFFFFFFFFFFC0000
7FFFFFFFFFFFFFFFFFFFFF0000
7FFFFFFFFFFFFFFFFFFFFF8000
7FFFFFFFFFFFFFFFFFFFFFC000
7FFFFFFFFFFFFFFFFFFFFFF000
7FFFFFFFFFFFFFFFFFFFFFF800
FFFFFFFFFFFFFFFFFFFFFFF800
FFFFFFFFFFFFFFFFFFFFFFFC00
FFFFFFFFFFFFFFFFFFFFFFFE00
FFFFFFFFFFFFFFFFFFFFFFFF00
FFFFFFFFFFFFFFFFFFFFFFFF00
FFFFFFFFFFFFFFFFFFFFFFFF80
FFFFFFFFFFFFFFFFFFFFFFFFC0
FFFFFFFFFFFFFFFFFFFFFFFFC0
FFFFFFFFFFFFFFFFFFFFFFFFE0
FFFFFFFFFFFFFFFFFFFFFFFFE0
FFFFFFFFFFFFFFFFFFFFFFFFE0
FFFFFFFFFFFFFFFFFFFFFFFFF0
FFFFFFFFFFFFFFFFFFFFFFFFF0
FFFFFFFFFFFFFFFFFFFFFFFFF0
FFFFFFFFFFFFFFFFFFFFFFFFF8
FFFFFFFFFFFFFFFFFFFFFFFFF8
FFFFFFFFFFFE0003FFFFFFFFF8
FFFFFFFFFF0000007FFFFFFFF8
FFFFFFFFE00000001FFFFFFFFC
FFFFFFFF000000000FFFFFFFFC
FFFFFFFF0000000007FFFFFFFC
FFFFFFFF0000000007FFFFFFFC
FFFFFFFF0000000003FFFFFFFC
FFFFFFFF0000000003FFFFFFFC
FFFFFFFF0000000003FFFFFFFE
FFFFFFFF0000000001FFFFFFFE
FFFFFFFF0000000001FFFFFFFE
FFFFFFFF0000000001FFFFFFFE
FFFFFFFF0000000001FFFFFFFE
FFFFFFFF0000000001FFFFFFFE
FFFFFFFF0000000001FFFFFFFE
FFFFFFFF0000000001FFFFFFFE
FFFFFFFF0000000001FFFFFFFE
FFFFFFFF0000000001FFFFFFFE
FFFFFFFF0000000001FFFFFFFE
FFFFFFFF0000000001FFFFFFFE
FFFFFFFF0000000001FFFFFFFE
FFFFFFFF0000000001FFFFFFFE
FFFFFFFF0000000001FFFFFFFE
FFFFFFFF0000000001FFFFFFFE
FFFFFFFF8000000001FFFFFFFE
FFFFFFFF8000000001FFFFFFFE
FFFFFFFF8000000003FFFFFFFE
7FFFFFFF8000000003FFFFFFFC
7FFFFFFFC000000003FFFFFFFC
7FFFFFFFC000000003FFFFFFFC
7FFFFFFFC000000007FFFFFFFC
7FFFFFFFE00000000FFFFFFFFC
7FFFFFFFF00000000FFFFFFFFC
7FFFFFFFF80000001FFFFFFFF8
3FFFFFFFFE0000007FFFFFFFF8
3FFFFFFFFF800001FFFFFFFFF8
3FFFFFFFFFFC001FFFFFFFFFF0
3FFFFFFFFFFFFFFFFFFFFFFFF0
1FFFFFFFFFFFFFFFFFFFFFFFF0
1FFFFFFFFFFFFFFFFFFFFFFFE0
1FFFFFFFFFFFFFFFFFFFFFFFE0
0FFFFFFFFFFFFFFFFFFFFFFFE0
0FFFFFFFFFFFFFFFFFFFFFFFC0
0FFFFFFFFFFFFFFFFFFFFFFF80
07FFFFFFFFFFFFFFFFFFFFFF80
07FFFFFFFFFFFFFFFFFFFFFF00
03FFFFFFFFFFFFFFFFFFFFFF00
01FFFFFFFFFFFFFFFFFFFFFE00
01FFFFFFFFFFFFFFFFFFFFFC00
00FFFFFFFFFFFFFFFFFFFFF800
007FFFFFFFFFFFFFFFFFFFF800
003FFFFFFFFFFFFFFFFFFFF000
001FFFFFFFFFFFFFFFFFFFE000
000FFFFFFFFFFFFFFFFFFFC000
0007FFFFFFFFFFFFFFFFFF0000
0003FFFFFFFFFFFFFFFFFE0000
0000FFFFFFFFFFFFFFFFFC0000
00007FFFFFFFFFFFFFFFF00000
00001FFFFFFFFFFFFFFFC00000
000007FFFFFFFFFFFFFF000000
000001FFFFFFFFFFFFFC000000
0000003FFFFFFFFFFFE0000000
00000007FFFFFFFFFE00000000
000000007FFFFFFFE000000000
0000000000FFFFF00000000000
ENDCHAR
STARTCHAR 0037
ENCODING 55
SWIDTH 631 0
DWIDTH 136 0
BBX 94 144 21 0
BITMAP
01FFFFFFFFFFFFFFFFFFF800
0FFFFFFFFFFFFFFFFFFFFF80
1FFFFFFFFFFFFFFFFFFFFFC0
3FFFFFFFFFFFFFFFFFFFFFF0
7FFFFFFFFFFFFFFFFFFFFFF0
7FFFFFFFFFFFFFFFFFFFFFF8
FFFFFFFFFFFFFFFFFFFFFFF8
FFFFFFFFFFFFFFFFFFFFFFFC
FFFFFFFFFFFFFFFFFFFFFFFC
FFFFFFFFFFFFFFFFFFFFFFFC
FFFFFFFFFFFFFFFFFFFFFFFC
FFFFFFFFFFFFFFFFFFFFFFFC
FFFFFFFFFFFFFFFFFFFFFFFC
FFFFFFFFFFFFFFFFFFFFFFFC
FFFFFFFFFFFFFFFFFFFFFFF8
FFFFFFFFFFFFFFFFFFFFFFF8
FFFFFFFFFFFFFFFFFFFFFFF8
FFFFFFFFFFFFFFFFFFFFFFF0
FFFFFFFFFFFFFFFFFFFFFFF0
FFFFFFFFFFFFFFFFFFFFFFE0
FFFFFFFFFFFFFFFFFFFFFFE0
FFFFFFFFFFFFFFFFFFFFFFE0
FFFFFFFFFFFFFFFFFFFFFFC0
7FFFFFFFFFFFFFFFFFFFFFC0
7FFFFFFFFFFFFFFFFFFFFF80
3FFFFFFFFFFFFFFFFFFFFF80
1FFFFFFFFFFFFFFFFFFFFF00
07FFFFFFFFFFFFFFFFFFFF00
00FFFFFFFFFFFFFFFFFFFF00
00000000000003FFFFFFFE00
00000000000003FFFFFFFE00
00000000000007FFFFFFFC00
00000000000007FFFFFFFC00
0000000000000FFFFFFFF800
0000000000000FFFFFFFF800
0000000000000FFFFFFFF800
0000000000001FFFFFFFF000
0000000000001FFFFFFFF000
0000000000003FFFFFFFE000
0000000000003FFFFFFFE000
0000000000007FFFFFFFC000
0000000000007FFFFFFFC000
000000000000FFFFFFFFC000
000000000000FFFFFFFF8000
000000000000FFFFFFFF8000
000000000001FFFFFFFF0000
000000000001FFFFFFFF0000
000000000003FFFFFFFE0000
000000000003FFFFFFFE0000
000000000007FFFFFFFE0000
000000000007FFFFFFFC0000
000000000007FFFFFFFC0000
00000000000FFFFFFFF80000
00000000000FFFFFFFF80000
00000000001FFFFFFFF00000
00000000001FFFFFFFF00000
00000000003FFFFFFFF00000
00000000003FFFFFFFE00000
00000000007FFFFFFFE00000
00000000007FFFFFFFC00000
00000000007FFFFFFFC00000
0000000000FFFFFFFF800000
0000000000FFFFFFFF800000
0000000001FFFFFFFF800000
0000000001FFFFFFFF000000
0000000003FFFFFFFF000000
0000000003FFFFFFFE000000
0000000003FFFFFFFE000000
0000000007FFFFFFFC000000
0000000007FFFFFFFC000000
000000000FFFFFFFFC000000
000000000FFFFFFFF8000000
000000001FFFFFFFF8000000
000000001FFFFFFFF0000000
000000001FFFFFFFF0000000
000000003FFFFFFFE0000000
000000003FFFFFFFE0000000
000000007FFFFFFFE0000000
000000007FFFFFFFC0000000
00000000FFFFFFFFC0000000
00000000FFFFFFFF80000000
00000001FFFFFFFF80000000
00000001FFFFFFFF00000000
00000001FFFFFFFF00000000
00000003FFFFFFFF00000000
00000003FFFFFFFE00000000
00000007FFFFFFFE00000000
00000007FFFFFFFC00000000
0000000FFFFFFFFC00000000
0000000FFFFFFFF800000000
0000000FFFFFFFF800000000
0000001FFFFFFFF800000000
0000001FFFFFFFF000000000
0000003FFFFFFFF000000000
0000003FFFFFFFE000000000
0000007FFFFFFFE000000000
0000007FFFFFFFC000000000
0000007FFFFFFFC000000000
000000FFFFFFFFC000000000
000000FFFFFFFF8000000000
000001FFFFFFFF8000000000
000001FFFFFFFF0000000000
000003FFFFFFFF0000000000
000003FFFFFFFE0000000000
000007FFFFFFFE0000000000
000007FFFFFFFE0000000000
000007FFFFFFFC0000000000
00000FFFFFFFFC0000000000
00000FFFFFFFF80000000000
00001FFFFFFFF80000000000
00001FFFFFFFF00000000000
00003FFFFFFFF00000000000
00003FFFFFFFF00000000000
00003FFFFFFFE00000000000
00007FFFFFFFE00000000000
00007FFFFFFFC00000000000
0000FFFFFFFFC00000000000
0000FFFFFFFF800000000000
0001FFFFFFFF800000000000
0001FFFFFFFF800000000000
0003FFFFFFFF000000000000
0003FFFFFFFF000000000000
0003FFFFFFFE000000000000
0007FFFFFFFE000000000000
0007FFFFFFFC000000000000
000FFFFFFFFC000000000000
000FFFFFFFFC000000000000
001FFFFFFFF8000000000000
001FFFFFFFF8000000000000
001FFFFFFFF0000000000000
003FFFFFFFF0000000000000
003FFFFFFFE0000000000000
003FFFFFFFE0000000000000
007FFFFFFFC0000000000000
007FFFFFFFC0000000000000
007FFFFFFF80000000000000
007FFFFFFF80000000000000
007FFFFFFF00000000000000
007FFFFFFF00000000000000
003FFFFFFE00000000000000
003FFFFFFC00000000000000
001FFFFFF800000000000000
0007FFFFE000000000000000
0001FFFF8000000000000000
ENDCHAR
STARTCHAR 0038
ENCODING 56
SWIDTH 636 0
DWIDTH 137 0
BBX 99 144 16 0
BITMAP
000000000FFFFFFE0000000000
0000000FFFFFFFFFFE00000000
000000FFFFFFFFFFFFF0000000
00000FFFFFFFFFFFFFFE000000
00003FFFFFFFFFFFFFFFC00000
0001FFFFFFFFFFFFFFFFF00000
0003FFFFFFFFFFFFFFFFF80000
000FFFFFFFFFFFFFFFFFFE0000
001FFFFFFFFFFFFFFFFFFF0000
003FFFFFFFFFFFFFFFFFFFC000
007FFFFFFFFFFFFFFFFFFFE000
00FFFFFFFFFFFFFFFFFFFFE000
01FFFFFFFFFFFFFFFFFFFFF000
03FFFFFFFFFFFFFFFFFFFFF800
07FFFFFFFFFFFFFFFFFFFFFC00
07FFFFFFFFFFFFFFFFFFFFFC00
0FFFFFFFFFFFFFFFFFFFFFFE00
0FFFFFFFFFFFFFFFFFFFFFFE00
1FFFFFFFFFFFFFFFFFFFFFFF00
1FFFFFFFFFFFFFFFFFFFFFFF00
1FFFFFFFFFFFFFFFFFFFFFFF80
3FFFFFFFFFFFFFFFFFFFFFFF80
3FFFFFFFFFFFFFFFFFFFFFFF80
3FFFFFFFFFFFFFFFFFFFFFFF80
7FFFFFFFFFFFFFFFFFFFFFFFC0
7FFFFFFFFFFFFFFFFFFFFFFFC0
7FFFFFFFFFFFFFFFFFFFFFFFC0
7FFFFFFFF8000000FFFFFFFFC0
7FFFFFFFE00000003FFFFFFFC0
7FFFFFFFC00000003FFFFFFFE0
FFFFFFFFC00000001FFFFFFFE0
FFFFFFFF800000001FFFFFFFE0
FFFFFFFF800000001FFFFFFFE0
FFFFFFFF000000001FFFFFFFE0
FFFFFFFF000000001FFFFFFFE0
FFFFFFFF000000001FFFFFFFE0
FFFFFFFF000000001FFFFFFFE0
FFFFFFFF000000001FFFFFFFE0
FFFFFFFF000000001FFFFFFFE0
FFFFFFFF000000001FFFFFFFE0
FFFFFFFF000000001FFFFFFFE0
FFFFFFFF000000001FFFFFFFE0
FFFFFFFF000000001FFFFFFFE0
FFFFFFFF800000003FFFFFFFE0
FFFFFFFF800000003FFFFFFFE0
7FFFFFFF800000003FFFFFFFC0
7FFFFFFFC00000007FFFFFFFC0
7FFFFFFFC0000000FFFFFFFFC0
7FFFFFFFE0000000FFFFFFFFC0
7FFFFFFFF0000001FFFFFFFF80
3FFFFFFFF8000003FFFFFFFF80
3FFFFFFFFC00000FFFFFFFFF80
3FFFFFFFFE00001FFFFFFFFF00
1FFFFFFFFF80007FFFFFFFFF00
1FFFFFFFFFC000FFFFFFFFFE00
0FFFFFFFFFF003FFFFFFFFFE00
0FFFFFFFFFFC0FFFFFFFFFFC00
07FFFFFFFFFF3FFFFFFFFFFC00
07FFFFFFFFFFFFFFFFFFFFF800
03FFFFFFFFFFFFFFFFFFFFF000
01FFFFFFFFFFFFFFFFFFFFF000
00FFFFFFFFFFFFFFFFFFFFE000
007FFFFFFFFFFFFFFFFFFFC000
003FFFFFFFFFFFFFFFFFFF8000
001FFFFFFFFFFFFFFFFFFF0000
0007FFFFFFFFFFFFFFFFFE0000
0003FFFFFFFFFFFFFFFFFC0000
0001FFFFFFFFFFFFFFFFF80000
00007FFFFFFFFFFFFFFFE00000
00003FFFFFFFFFFFFFFFC00000
00000FFFFFFFFFFFFFFF800000
000007FFFFFFFFFFFFFF000000
00000FFFFFFFFFFFFFFFC00000
00003FFFFFFFFFFFFFFFE00000
0000FFFFFFFFFFFFFFFFF80000
0001FFFFFFFFFFFFFFFFFC0000
0007FFFFFFFFFFFFFFFFFE0000
000FFFFFFFFFFFFFFFFFFF0000
003FFFFFFFFFFFFFFFFFFF8000
007FFFFFFFFFFFFFFFFFFFE000
00FFFFFFFFFFFFFFFFFFFFE000
01FFFFFFFFFFFFFFFFFFFFF000
03FFFFFFFFFFFFFFFFFFFFF800
07FFFFFFFFFFFFFFFFFFFFFC00
07FFFFFFFFFFFFFFFFFFFFFC00
0FFFFFFFFFFFFFFFFFFFFFFE00
1FFFFFFFFFFF0FFFFFFFFFFF00
1FFFFFFFFFFC03FFFFFFFFFF00
3FFFFFFFFFF000FFFFFFFFFF80
3FFFFFFFFFC0007FFFFFFFFF80
3FFFFFFFFF80001FFFFFFFFF80
7FFFFFFFFE00000FFFFFFFFFC0
7FFFFFFFFC000003FFFFFFFFC0
7FFFFFFFF8000001FFFFFFFFC0
7FFFFFFFF0000000FFFFFFFFC0
7FFFFFFFE0000000FFFFFFFFC0
FFFFFFFFC00000007FFFFFFFE0
FFFFFFFFC00000003FFFFFFFE0
FFFFFFFF800000003FFFFFFFE0
FFFFFFFF800000003FFFFFFFE0
FFFFFFFF000000001FFFFFFFE0
FFFFFFFF000000001FFFFFFFE0
FFFFFFFF000000001FFFFFFFE0
FFFFFFFF000000001FFFFFFFE0
FFFFFFFF000000001FFFFFFFE0
FFFFFFFF000000001FFFFFFFE0
FFFFFFFF000000001FFFFFFFE0
FFFFFFFF000000001FFFFFFFE0
FFFFFFFF000000001FFFFFFFE0
FFFFFFFF800000003FFFFFFFE0
FFFFFFFF800000003FFFFFFFE0
7FFFFFFF800000003FFFFFFFE0
7FFFFFFFC00000007FFFFFFFC0
7FFFFFFFE00000007FFFFFFFC0
7FFFFFFFF0000000FFFFFFFFC0
7FFFFFFFF8000003FFFFFFFFC0
7FFFFFFFFF00001FFFFFFFFFC0
3FFFFFFFFFFFFFFFFFFFFFFFC0
3FFFFFFFFFFFFFFFFFFFFFFF80
3FFFFFFFFFFFFFFFFFFFFFFF80
3FFFFFFFFFFFFFFFFFFFFFFF80
1FFFFFFFFFFFFFFFFFFFFFFF00
1FFFFFFFFFFFFFFFFFFFFFFF00
0FFFFFFFFFFFFFFFFFFFFFFF00
0FFFFFFFFFFFFFFFFFFFFFFE00
07FFFFFFFFFFFFFFFFFFFFFE00
07FFFFFFFFFFFFFFFFFFFFFC00
03FFFFFFFFFFFFFFFFFFFFFC00
03FFFFFFFFFFFFFFFFFFFFF800
01FFFFFFFFFFFFFFFFFFFFF000
00FFFFFFFFFFFFFFFFFFFFE000
007FFFFFFFFFFFFFFFFFFFE000
003FFFFFFFFFFFFFFFFFFFC000
001FFFFFFFFFFFFFFFFFFF8000
000FFFFFFFFFFFFFFFFFFF0000
0007FFFFFFFFFFFFFFFFFC0000
0001FFFFFFFFFFFFFFFFF80000
0000FFFFFFFFFFFFFFFFE00000
00003FFFFFFFFFFFFFFFC00000
00000FFFFFFFFFFFFFFE000000
000001FFFFFFFFFFFFF8000000
0000003FFFFFFFFFFF80000000
00000003FFFFFFFFF800000000
0000000003FFFFF80000000000
ENDCHAR
STARTCHAR 0039
ENCODING 57
SWIDTH 636 0
DWIDTH 137 0
BBX 102 144 17 0
BITMAP
00000000007FFFF00000000000
000000003FFFFFFFE000000000
00000003FFFFFFFFFE00000000
0000001FFFFFFFFFFFC0000000
000000FFFFFFFFFFFFF8000000
000003FFFFFFFFFFFFFE000000
00000FFFFFFFFFFFFFFF800000
00003FFFFFFFFFFFFFFFC00000
00007FFFFFFFFFFFFFFFF00000
0001FFFFFFFFFFFFFFFFF80000
0003FFFFFFFFFFFFFFFFFC0000
0007FFFFFFFFFFFFFFFFFE0000
000FFFFFFFFFFFFFFFFFFF0000
001FFFFFFFFFFFFFFFFFFF8000
003FFFFFFFFFFFFFFFFFFFC000
007FFFFFFFFFFFFFFFFFFFE000
007FFFFFFFFFFFFFFFFFFFF000
00FFFFFFFFFFFFFFFFFFFFF000
01FFFFFFFFFFFFFFFFFFFFF800
01FFFFFFFFFFFFFFFFFFFFFC00
03FFFFFFFFFFFFFFFFFFFFFC00
07FFFFFFFFFFFFFFFFFFFFFE00
07FFFFFFFFFFFFFFFFFFFFFE00
07FFFFFFFFFFFFFFFFFFFFFF00
0FFFFFFFFFFFFFFFFFFFFFFF00
0FFFFFFFFFFFFFFFFFFFFFFF80
1FFFFFFFFFFFFFFFFFFFFFFF80
1FFFFFFFFFF807FFFFFFFFFF80
1FFFFFFFFF00001FFFFFFFFFC0
3FFFFFFFFC000003FFFFFFFFC0
3FFFFFFFF0000000FFFFFFFFC0
3FFFFFFFE00000007FFFFFFFE0
3FFFFFFFE00000003FFFFFFFE0
7FFFFFFFC00000003FFFFFFFE0
7FFFFFFFC00000001FFFFFFFE0
7FFFFFFF800000001FFFFFFFF0
7FFFFFFF800000000FFFFFFFF0
7FFFFFFF800000000FFFFFFFF0
7FFFFFFF800000000FFFFFFFF0
FFFFFFFF000000000FFFFFFFF0
FFFFFFFF0000000007FFFFFFF8
FFFFFFFF0000000007FFFFFFF8
FFFFFFFF0000000007FFFFFFF8
FFFFFFFF0000000007FFFFFFF8
FFFFFFFF0000000007FFFFFFF8
FFFFFFFF0000000007FFFFFFF8
FFFFFFFF0000000007FFFFFFF8
FFFFFFFF0000000007FFFFFFF8
FFFFFFFF0000000007FFFFFFF8
FFFFFFFF0000000007FFFFFFFC
FFFFFFFF0000000007FFFFFFFC
FFFFFFFF0000000007FFFFFFFC
FFFFFFFF0000000007FFFFFFFC
FFFFFFFF0000000007FFFFFFFC
FFFFFFFF0000000007FFFFFFFC
FFFFFFFF8000000007FFFFFFFC
7FFFFFFF8000000007FFFFFFFC
7FFFFFFF8000000007FFFFFFFC
7FFFFFFFC000000007FFFFFFFC
7FFFFFFFC00000000FFFFFFFFC
7FFFFFFFE00000007FFFFFFFFC
7FFFFFFFF8000007FFFFFFFFFC
3FFFFFFFFF0003FFFFFFFFFFFC
3FFFFFFFFFFFFFFFFFFFFFFFFC
3FFFFFFFFFFFFFFFFFFFFFFFFC
1FFFFFFFFFFFFFFFFFFFFFFFFC
1FFFFFFFFFFFFFFFFFFFFFFFFC
1FFFFFFFFFFFFFFFFFFFFFFFFC
0FFFFFFFFFFFFFFFFFFFFFFFFC
0FFFFFFFFFFFFFFFFFFFFFFFFC
07FFFFFFFFFFFFFFFFFFFFFFFC
07FFFFFFFFFFFFFFFFFFFFFFFC
03FFFFFFFFFFFFFFFFFFFFFFFC
03FFFFFFFFFFFFFFFFFFFFFFFC
01FFFFFFFFFFFFFFFFFFFFFFFC
00FFFFFFFFFFFFFFFFFFFFFFFC
00FFFFFFFFFFFFFFFFFFFFFFFC
007FFFFFFFFFFFFFFFFFFFFFFC
003FFFFFFFFFFFFFFFFFFFFFFC
001FFFFFFFFFFFFFFFFFFFFFFC
000FFFFFFFFFFFFFFFFFFFFFFC
0007FFFFFFFFFFFFFFFFFFFFFC
0003FFFFFFFFFFFFFFFFFFFFFC
0000FFFFFFFFFFFFFFFFFFFFFC
00007FFFFFFFFFFFFFFFFFFFFC
00001FFFFFFFFFFFFFFFFFFFFC
000007FFFFFFFFFFFFFFFFFFFC
000001FFFFFFFFFFFFFFFFFFFC
0000003FFFFFFFFFE7FFFFFFFC
00000003FFFFFFFC07FFFFFFFC
000000000FFFFE0007FFFFFFFC
000000000000000007FFFFFFFC
000000000000000007FFFFFFF8
000000000000000007FFFFFFF8
000000000000000007FFFFFFF8
000000000000000007FFFFFFF8
000000000000000007FFFFFFF8
000000000000000007FFFFFFF8
000000000000000007FFFFFFF8
000000000000000007FFFFFFF8
000000000000000007FFFFFFF8
00000000000000000FFFFFFFF8
00000000000000000FFFFFFFF0
00000000000000000FFFFFFFF0
00000000000000000FFFFFFFF0
00000000000000001FFFFFFFF0
00000000000000001FFFFFFFF0
00000000000000001FFFFFFFF0
00000000000000003FFFFFFFE0
00000000000000003FFFFFFFE0
00300000000000007FFFFFFFE0
01FF800000000000FFFFFFFFE0
03FFF00000000001FFFFFFFFC0
07FFFE0000000007FFFFFFFFC0
0FFFFFF00000001FFFFFFFFFC0
0FFFFFFFC00000FFFFFFFFFF80
1FFFFFFFFFFFFFFFFFFFFFFF80
1FFFFFFFFFFFFFFFFFFFFFFF80
3FFFFFFFFFFFFFFFFFFFFFFF00
3FFFFFFFFFFFFFFFFFFFFFFF00
3FFFFFFFFFFFFFFFFFFFFFFE00
3FFFFFFFFFFFFFFFFFFFFFFE00
7FFFFFFFFFFFFFFFFFFFFFFC00
7FFFFFFFFFFFFFFFFFFFFFFC00
7FFFFFFFFFFFFFFFFFFFFFF800
7FFFFFFFFFFFFFFFFFFFFFF800
FFFFFFFFFFFFFFFFFFFFFFF000
FFFFFFFFFFFFFFFFFFFFFFE000
FFFFFFFFFFFFFFFFFFFFFFC000
FFFFFFFFFFFFFFFFFFFFFF8000
FFFFFFFFFFFFFFFFFFFFFF8000
FFFFFFFFFFFFFFFFFFFFFE0000
FFFFFFFFFFFFFFFFFFFFFC0000
7FFFFFFFFFFFFFFFFFFFF80000
7FFFFFFFFFFFFFFFFFFFF00000
3FFFFFFFFFFFFFFFFFFFC00000
1FFFFFFFFFFFFFFFFFFF800000
07FFFFFFFFFFFFFFFFFE000000
00FFFFFFFFFFFFFFFFF8000000
001FFFFFFFFFFFFFFFC0000000
0003FFFFFFFFFFFFFF00000000
00001FFFFFFFFFFFF000000000
0000007FFFFFFFFE0000000000
000000003FFFFF000000000000
ENDCHAR
STARTCHAR 003A
ENCODING 58
SWIDTH 320 0
DWIDTH 69 0
BBX 42 98 13 0
BITMAP
00003E000000
0000FFC00000
0003FFF00000
000FFFF80000
001FFFFE0000
003FFFFF0000
007FFFFF8000
00FFFFFFC000
01FFFFFFE000
03FFFFFFF000
07FFFFFFF800
0FFFFFFFFC00
1FFFFFFFFC00
1FFFFFFFFE00
3FFFFFFFFF00
3FFFFFFFFF00
7FFFFFFFFF80
7FFFFFFFFF80
FFFFFFFFFF80
FFFFFFFFFFC0
FFFFFFFFFFC0
FFFFFFFFFFC0
FFFFFFFFFF80
FFFFFFFFFF80
FFFFFFFFFF80
7FFFFFFFFF00
7FFFFFFFFF00
3FFFFFFFFE00
1FFFFFFFFC00
1FFFFFFFFC00
0FFFFFFFF800
07FFFFFFF000
03FFFFFFE000
01FFFFFFC000
00FFFFFF8000
007FFFFF0000
003FFFFE0000
001FFFFC0000
0007FFF80000
0003FFE00000
0000FF800000
00001E000000
000000000000
000000000000
000000000000
000000000000
000000000000
000000000000
000000000000
000000000000
000000000000
000000000000
000000000000
000000000000
000000000000
000000000000
000008000000
0000FF800000
0001FFE00000
0007FFF80000
000FFFFC0000
003FFFFE0000
007FFFFF0000
00FFFFFFC000
01FFFFFFE000
03FFFFFFE000
07FFFFFFF000
0FFFFFFFF800
0FFFFFFFFC00
1FFFFFFFFE00
3FFFFFFFFE00
3FFFFFFFFF00
7FFFFFFFFF00
7FFFFFFFFF80
FFFFFFFFFF80
FFFFFFFFFF80
FFFFFFFFFFC0
FFFFFFFFFFC0
FFFFFFFFFF80
FFFFFFFFFF80
FFFFFFFFFF80
7FFFFFFFFF00
7FFFFFFFFF00
3FFFFFFFFE00
3FFFFFFFFE00
1FFFFFFFFC00
0FFFFFFFF800
07FFFFFFF000
07FFFFFFF000
03FFFFFFE000
01FFFFFFC000
00FFFFFF8000
003FFFFF0000
001FFFFC0000
000FFFF80000
0003FFF00000
0000FFC00000
00003F000000
ENDCHAR
STARTCHAR 003B
ENCODING 59
SWIDTH 325 0
DWIDTH 70 0
BBX 49 136 7 -38
BITMAP
000000F8000000
000007FE000000
00000FFF800000
00003FFFE00000
00007FFFF00000
0000FFFFF80000
0001FFFFFC0000
0003FFFFFE0000
0007FFFFFF0000
000FFFFFFF8000
001FFFFFFFC000
003FFFFFFFE000
003FFFFFFFF000
007FFFFFFFF000
00FFFFFFFFF800
00FFFFFFFFFC00
01FFFFFFFFFC00
01FFFFFFFFFE00
03FFFFFFFFFE00
03FFFFFFFFFE00
03FFFFFFFFFE00
07FFFFFFFFFE00
07FFFFFFFFFE00
03FFFFFFFFFE00
03FFFFFFFFFE00
03FFFFFFFFFC00
01FFFFFFFFFC00
01FFFFFFFFF800
00FFFFFFFFF800
00FFFFFFFFF000
007FFFFFFFF000
003FFFFFFFE000
001FFFFFFFC000
001FFFFFFF8000
000FFFFFFF8000
0007FFFFFF0000
0003FFFFFE0000
0001FFFFFC0000
00007FFFF00000
00003FFFE00000
00001FFFC00000
000007FF000000
000001FC000000
00000000000000
00000000000000
00000000000000
00000000000000
00000000000000
00000000000000
00000000000000
00000000000000
00000000000000
00000000000000
00000000000000
00000000000000
00000000000000
00000000000000
00000000000000
00000020000000
000000FC000000
000003FE000000
000007FF800000
00000FFFC00000
00003FFFE00000
00007FFFF80000
0000FFFFFC0000
0000FFFFFE0000
0001FFFFFF0000
0003FFFFFF8000
0007FFFFFFC000
000FFFFFFFE000
001FFFFFFFF000
003FFFFFFFF800
007FFFFFFFFC00
007FFFFFFFFC00
00FFFFFFFFFE00
01FFFFFFFFFF00
03FFFFFFFFFF00
03FFFFFFFFFF00
03FFFFFFFFFF80
03FFFFFFFFFF80
03FFFFFFFFFF80
03FFFFFFFFFF80
03FFFFFFFFFF00
03FFFFFFFFFF00
01FFFFFFFFFF00
01FFFFFFFFFE00
00FFFFFFFFFE00
007FFFFFFFFE00
003FFFFFFFFC00
001FFFFFFFFC00
000FFFFFFFFC00
0007FFFFFFF800
0003FFFFFFF800
0001FFFFFFF000
0001FFFFFFF000
0001FFFFFFE000
0003FFFFFFE000
0003FFFFFFC000
0007FFFFFFC000
0007FFFFFF8000
000FFFFFFF8000
001FFFFFFF0000
001FFFFFFF0000
003FFFFFFE0000
007FFFFFFE0000
007FFFFFFC0000
00FFFFFFFC0000
00FFFFFFF80000
01FFFFFFF80000
03FFFFFFF00000
03FFFFFFE00000
07FFFFFFE00000
0FFFFFFFC00000
0FFFFFFFC00000
1FFFFFFF800000
1FFFFFFF800000
3FFFFFFF000000
3FFFFFFE000000
7FFFFFFE000000
7FFFFFFC000000
FFFFFFFC000000
FFFFFFF8000000
FFFFFFF0000000
FFFFFFF0000000
FFFFFFE0000000
7FFFFFC0000000
7FFFFFC0000000
3FFFFF80000000
1FFFFF00000000
1FFFFF00000000
07FFFE00000000
03FFFC00000000
01FFF800000000
007FF000000000
000FC000000000
ENDCHAR
STARTCHAR 003C
ENCODING 60
SWIDTH 724 0
DWIDTH 156 0
BBX 128 117 11 10
BITMAP
00000000000000000000000000000003
0000000000000000000000000000000F
0000000000000000000000000000007F
000000000000000000000000000003FF
00000000000000000000000000000FFF
00000000000000000000000000007FFF
0000000000000000000000000001FFFF
000000000000000000000000000FFFFF
000000000000000000000000007FFFFF
00000000000000000000000001FFFFFF
0000000000000000000000000FFFFFFF
0000000000000000000000007FFFFFFF
000000000000000000000001FFFFFFFF
00000000000000000000000FFFFFFFFF
00000000000000000000003FFFFFFFFF
0000000000000000000001FFFFFFFFFF
000000000000000000000FFFFFFFFFFF
000000000000000000003FFFFFFFFFFF
00000000000000000001FFFFFFFFFFFF
0000000000000000000FFFFFFFFFFFFF
0000000000000000003FFFFFFFFFFFFF
000000000000000001FFFFFFFFFFFFFF
00000000000000000FFFFFFFFFFFFFFF
00000000000000003FFFFFFFFFFFFFFF
0000000000000001FFFFFFFFFFFFFFFF
0000000000000007FFFFFFFFFFFFFFFF
000000000000003FFFFFFFFFFFFFFFFF
00000000000001FFFFFFFFFFFFFFFFFF
00000000000007FFFFFFFFFFFFFFFFFF
0000000000003FFFFFFFFFFFFFFFFFFE
000000000001FFFFFFFFFFFFFFFFFFF8
000000000007FFFFFFFFFFFFFFFFFFC0
00000000003FFFFFFFFFFFFFFFFFFE00
0000000000FFFFFFFFFFFFFFFFFFF000
0000000007FFFFFFFFFFFFFFFFFFC000
000000003FFFFFFFFFFFFFFFFFFE0000
00000000FFFFFFFFFFFFFFFFFFF00000
00000007FFFFFFFFFFFFFFFFFFC00000
0000003FFFFFFFFFFFFFFFFFFE000000
000000FFFFFFFFFFFFFFFFFFF0000000
000007FFFFFFFFFFFFFFFFFFC0000000
00001FFFFFFFFFFFFFFFFFFE00000000
0000FFFFFFFFFFFFFFFFFFF000000000
0007FFFFFFFFFFFFFFFFFFC000000000
001FFFFFFFFFFFFFFFFFFE0000000000
00FFFFFFFFFFFFFFFFFFF00000000000
07FFFFFFFFFFFFFFFFFF800000000000
1FFFFFFFFFFFFFFFFFFE000000000000
FFFFFFFFFFFFFFFFFFF0000000000000
FFFFFFFFFFFFFFFFFF80000000000000
FFFFFFFFFFFFFFFFFE00000000000000
FFFFFFFFFFFFFFFFF000000000000000
FFFFFFFFFFFFFFFF8000000000000000
FFFFFFFFFFFFFFFE0000000000000000
FFFFFFFFFFFFFFF00000000000000000
FFFFFFFFFFFFFF800000000000000000
FFFFFFFFFFFFFC000000000000000000
FFFFFFFFFFFFF0000000000000000000
FFFFFFFFFFFF80000000000000000000
FFFFFFFFFFFFF0000000000000000000
FFFFFFFFFFFFFC000000000000000000
FFFFFFFFFFFFFF800000000000000000
FFFFFFFFFFFFFFF00000000000000000
FFFFFFFFFFFFFFFE0000000000000000
FFFFFFFFFFFFFFFF8000000000000000
FFFFFFFFFFFFFFFFF000000000000000
FFFFFFFFFFFFFFFFFE00000000000000
FFFFFFFFFFFFFFFFFF80000000000000
FFFFFFFFFFFFFFFFFFF0000000000000
1FFFFFFFFFFFFFFFFFFE000000000000
07FFFFFFFFFFFFFFFFFF800000000000
00FFFFFFFFFFFFFFFFFFF00000000000
001FFFFFFFFFFFFFFFFFFE0000000000
0007FFFFFFFFFFFFFFFFFFC000000000
0000FFFFFFFFFFFFFFFFFFF000000000
00003FFFFFFFFFFFFFFFFFFE00000000
000007FFFFFFFFFFFFFFFFFFC0000000
000000FFFFFFFFFFFFFFFFFFF0000000
0000003FFFFFFFFFFFFFFFFFFE000000
00000007FFFFFFFFFFFFFFFFFFC00000
00000000FFFFFFFFFFFFFFFFFFF00000
000000003FFFFFFFFFFFFFFFFFFE0000
0000000007FFFFFFFFFFFFFFFFFFC000
0000000000FFFFFFFFFFFFFFFFFFF000
00000000003FFFFFFFFFFFFFFFFFFE00
000000000007FFFFFFFFFFFFFFFFFFC0
000000000001FFFFFFFFFFFFFFFFFFF8
0000000000003FFFFFFFFFFFFFFFFFFE
00000000000007FFFFFFFFFFFFFFFFFF
00000000000001FFFFFFFFFFFFFFFFFF
000000000000003FFFFFFFFFFFFFFFFF
0000000000000007FFFFFFFFFFFFFFFF
0000000000000001FFFFFFFFFFFFFFFF
00000000000000003FFFFFFFFFFFFFFF
00000000000000000FFFFFFFFFFFFFFF
000000000000000001FFFFFFFFFFFFFF
0000000000000000003FFFFFFFFFFFFF
0000000000000000000FFFFFFFFFFFFF
00000000000000000001FFFFFFFFFFFF
000000000000000000003FFFFFFFFFFF
000000000000000000000FFFFFFFFFFF
0000000000000000000001FFFFFFFFFF
00000000000000000000007FFFFFFFFF
00000000000000000000000FFFFFFFFF
000000000000000000000001FFFFFFFF
0000000000000000000000007FFFFFFF
0000000000000000000000000FFFFFFF
00000000000000000000000001FFFFFF
000000000000000000000000007FFFFF
000000000000000000000000000FFFFF
0000000000000000000000000001FFFF
00000000000000000000000000007FFF
00000000000000000000000000000FFF
000000000000000000000000000003FF
0000000000000000000000000000007F
0000000000000000000000000000000F
00000000000000000000000000000003
ENDCHAR
STARTCHAR 003D
ENCODING 61
SWIDTH 520 0
DWIDTH 112 0
BBX 91 61 10 28
BITMAP
FFFFFFFFFFFFFFFFFFFFFFE0
FFFFFFFFFFFFFFFFFFFFFFE0
FFFFFFFFFFFFFFFFFFFFFFE0
FFFFFFFFFFFFFFFFFFFFFFE0
FFFFFFFFFFFFFFFFFFFFFFE0
FFFFFFFFFFFFFFFFFFFFFFE0
FFFFFFFFFFFFFFFFFFFFFFE0
FFFFFFFFFFFFFFFFFFFFFFE0
FFFFFFFFFFFFFFFFFFFFFFE0
FFFFFFFFFFFFFFFFFFFFFFE0
FFFFFFFFFFFFFFFFFFFFFFE0
FFFFFFFFFFFFFFFFFFFFFFE0
FFFFFFFFFFFFFFFFFFFFFFE0
FFFFFFFFFFFFFFFFFFFFFFE0
FFFFFFFFFFFFFFFFFFFFFFE0
FFFFFFFFFFFFFFFFFFFFFFE0
FFFFFFFFFFFFFFFFFFFFFFE0
FFFFFFFFFFFFFFFFFFFFFFE0
FFFFFFFFFFFFFFFFFFFFFFE0
FFFFFFFFFFFFFFFFFFFFFFE0
FFFFFFFFFFFFFFFFFFFFFFE0
FFFFFFFFFFFFFFFFFFFFFFE0
000000000000000000000000
000000000000000000000000
000000000000000000000000
000000000000000000000000
000000000000000000000000
000000000000000000000000
000000000000000000000000
000000000000000000000000
000000000000000000000000
000000000000000000000000
000000000000000000000000
000000000000000000000000
000000000000000000000000
000000000000000000000000
000000000000000000000000
000000000000000000000000
000000000000000000000000
FFFFFFFFFFFFFFFFFFFFFFE0
FFFFFFFFFFFFFFFFFFFFFFE0
FFFFFFFFFFFFFFFFFFFFFFE0
FFFFFFFFFFFFFFFFFFFFFFE0
FFFFFFFFFFFFFFFFFFFFFFE0
FFFFFFFFFFFFFFFFFFFFFFE0
FFFFFFFFFFFFFFFFFFFFFFE0
FFFFFFFFFFFFFFFFFFFFFFE0
FFFFFFFFFFFFFFFFFFFFFFE0
FFFFFFFFFFFFFFFFFFFFFFE0
FFFFFFFFFFFFFFFFFFFFFFE0
FFFFFFFFFFFFFFFFFFFFFFE0
FFFFFFFFFFFFFFFFFFFFFFE0
FFFFFFFFFFFFFFFFFFFFFFE0
FFFFFFFFFFFFFFFFFFFFFFE0
FFFFFFFFFFFFFFFFFFFFFFE0
FFFFFFFFFFFFFFFFFFFFFFE0
FFFFFFFFFFFFFFFFFFFFFFE0
FFFFFFFFFFFFFFFFFFFFFFE0
FFFFFFFFFFFFFFFFFFFFFFE0
FFFFFFFFFFFFFFFFFFFFFFE0
FFFFFFFFFFFFFFFFFFFFFFE0
ENDCHAR
STARTCHAR 003E
ENCODING 62
SWIDTH 724 0
DWIDTH 156 0
BBX 127 117 15 9
BITMAP
80000000000000000000000000000000
E0000000000000000000000000000000
FC000000000000000000000000000000
FF800000000000000000000000000000
FFE00000000000000000000000000000
FFFC0000000000000000000000000000
FFFF8000000000000000000000000000
FFFFE000000000000000000000000000
FFFFFC00000000000000000000000000
FFFFFF00000000000000000000000000
FFFFFFE0000000000000000000000000
FFFFFFFC000000000000000000000000
FFFFFFFF000000000000000000000000
FFFFFFFFE00000000000000000000000
FFFFFFFFFC0000000000000000000000
FFFFFFFFFF0000000000000000000000
FFFFFFFFFFE000000000000000000000
FFFFFFFFFFF800000000000000000000
FFFFFFFFFFFF00000000000000000000
FFFFFFFFFFFFE0000000000000000000
FFFFFFFFFFFFF8000000000000000000
FFFFFFFFFFFFFF000000000000000000
FFFFFFFFFFFFFFE00000000000000000
FFFFFFFFFFFFFFF80000000000000000
FFFFFFFFFFFFFFFF0000000000000000
FFFFFFFFFFFFFFFFC000000000000000
FFFFFFFFFFFFFFFFF800000000000000
FFFFFFFFFFFFFFFFFF00000000000000
FFFFFFFFFFFFFFFFFFC0000000000000
FFFFFFFFFFFFFFFFFFF8000000000000
3FFFFFFFFFFFFFFFFFFF000000000000
07FFFFFFFFFFFFFFFFFFC00000000000
00FFFFFFFFFFFFFFFFFFF80000000000
001FFFFFFFFFFFFFFFFFFE0000000000
0007FFFFFFFFFFFFFFFFFFC000000000
0000FFFFFFFFFFFFFFFFFFF800000000
00001FFFFFFFFFFFFFFFFFFE00000000
000007FFFFFFFFFFFFFFFFFFC0000000
000000FFFFFFFFFFFFFFFFFFF0000000
0000001FFFFFFFFFFFFFFFFFFE000000
00000007FFFFFFFFFFFFFFFFFFC00000
00000000FFFFFFFFFFFFFFFFFFF00000
000000001FFFFFFFFFFFFFFFFFFE0000
0000000007FFFFFFFFFFFFFFFFFFC000
0000000000FFFFFFFFFFFFFFFFFFF000
00000000001FFFFFFFFFFFFFFFFFFE00
000000000003FFFFFFFFFFFFFFFFFF80
000000000000FFFFFFFFFFFFFFFFFFF0
0000000000001FFFFFFFFFFFFFFFFFFE
00000000000003FFFFFFFFFFFFFFFFFE
00000000000000FFFFFFFFFFFFFFFFFE
000000000000001FFFFFFFFFFFFFFFFE
0000000000000003FFFFFFFFFFFFFFFE
0000000000000000FFFFFFFFFFFFFFFE
00000000000000001FFFFFFFFFFFFFFE
000000000000000003FFFFFFFFFFFFFE
0000000000000000007FFFFFFFFFFFFE
0000000000000000001FFFFFFFFFFFFE
00000000000000000003FFFFFFFFFFFE
0000000000000000000FFFFFFFFFFFFE
0000000000000000007FFFFFFFFFFFFE
000000000000000003FFFFFFFFFFFFFE
00000000000000000FFFFFFFFFFFFFFE
00000000000000007FFFFFFFFFFFFFFE
0000000000000003FFFFFFFFFFFFFFFE
000000000000001FFFFFFFFFFFFFFFFE
000000000000007FFFFFFFFFFFFFFFFE
00000000000003FFFFFFFFFFFFFFFFFE
0000000000001FFFFFFFFFFFFFFFFFFE
0000000000007FFFFFFFFFFFFFFFFFF0
000000000003FFFFFFFFFFFFFFFFFFC0
00000000001FFFFFFFFFFFFFFFFFFE00
00000000007FFFFFFFFFFFFFFFFFF800
0000000003FFFFFFFFFFFFFFFFFFC000
000000001FFFFFFFFFFFFFFFFFFE0000
000000007FFFFFFFFFFFFFFFFFF80000
00000003FFFFFFFFFFFFFFFFFFC00000
0000001FFFFFFFFFFFFFFFFFFE000000
000000FFFFFFFFFFFFFFFFFFF8000000
000003FFFFFFFFFFFFFFFFFFC0000000
00001FFFFFFFFFFFFFFFFFFF00000000
0000FFFFFFFFFFFFFFFFFFF800000000
0003FFFFFFFFFFFFFFFFFFC000000000
001FFFFFFFFFFFFFFFFFFF0000000000
00FFFFFFFFFFFFFFFFFFF80000000000
03FFFFFFFFFFFFFFFFFFE00000000000
1FFFFFFFFFFFFFFFFFFF000000000000
FFFFFFFFFFFFFFFFFFF8000000000000
FFFFFFFFFFFFFFFFFFE0000000000000
FFFFFFFFFFFFFFFFFF00000000000000
FFFFFFFFFFFFFFFFF800000000000000
FFFFFFFFFFFFFFFFE000000000000000
FFFFFFFFFFFFFFFF0000000000000000
FFFFFFFFFFFFFFFC0000000000000000
FFFFFFFFFFFFFFE00000000000000000
FFFFFFFFFFFFFF000000000000000000
FFFFFFFFFFFFFC000000000000000000
FFFFFFFFFFFFE0000000000000000000
FFFFFFFFFFFF00000000000000000000
FFFFFFFFFFFC00000000000000000000
FFFFFFFFFFE000000000000000000000
FFFFFFFFFF8000000000000000000000
FFFFFFFFFC0000000000000000000000
FFFFFFFFE00000000000000000000000
FFFFFFFF800000000000000000000000
FFFFFFFC000000000000000000000000
FFFFFFE0000000000000000000000000
FFFFFF80000000000000000000000000
FFFFFC00000000000000000000000000
FFFFF000000000000000000000000000
FFFF8000000000000000000000000000
FFFC0000000000000000000000000000
FFF00000000000000000000000000000
FF800000000000000000000000000000
FC000000000000000000000000000000
F0000000000000000000000000000000
80000000000000000000000000000000
ENDCHAR
STARTCHAR 003F
ENCODING 63
SWIDTH 515 0
DWIDTH 111 0
BBX 84 144 14 0
BITMAP
000007FFFFFFF000000000
001FFFFFFFFFFFE0000000
03FFFFFFFFFFFFFE000000
0FFFFFFFFFFFFFFFC00000
1FFFFFFFFFFFFFFFF00000
3FFFFFFFFFFFFFFFFC0000
7FFFFFFFFFFFFFFFFF0000
7FFFFFFFFFFFFFFFFF8000
FFFFFFFFFFFFFFFFFFC000
FFFFFFFFFFFFFFFFFFF000
FFFFFFFFFFFFFFFFFFF800
FFFFFFFFFFFFFFFFFFFC00
FFFFFFFFFFFFFFFFFFFC00
FFFFFFFFFFFFFFFFFFFE00
FFFFFFFFFFFFFFFFFFFF00
FFFFFFFFFFFFFFFFFFFF00
FFFFFFFFFFFFFFFFFFFF80
FFFFFFFFFFFFFFFFFFFF80
FFFFFFFFFFFFFFFFFFFFC0
FFFFFFFFFFFFFFFFFFFFC0
7FFFFFFFFFFFFFFFFFFFC0
7FFFFFFFFFFFFFFFFFFFE0
7FFFFFFFFFFFFFFFFFFFE0
3FFFFFFFFFFFFFFFFFFFE0
1FFFFFFFFFFFFFFFFFFFE0
0FFFFFFFFFFFFFFFFFFFF0
03FFFFFFFFFFFFFFFFFFF0
000000000003FFFFFFFFF0
000000000000FFFFFFFFF0
0000000000007FFFFFFFF0
0000000000003FFFFFFFF0
0000000000003FFFFFFFF0
0000000000001FFFFFFFF0
0000000000001FFFFFFFF0
0000000000001FFFFFFFF0
0000000000001FFFFFFFF0
0000000000001FFFFFFFF0
0000000000001FFFFFFFF0
0000000000001FFFFFFFE0
0000000000003FFFFFFFE0
0000000000003FFFFFFFE0
0000000000007FFFFFFFE0
000000000000FFFFFFFFC0
000000000000FFFFFFFFC0
000000000001FFFFFFFF80
000000000003FFFFFFFF80
000000000007FFFFFFFF00
00000000001FFFFFFFFF00
00000000003FFFFFFFFE00
00000000007FFFFFFFFC00
0000000001FFFFFFFFF800
0000000003FFFFFFFFF000
0000000007FFFFFFFFE000
000000001FFFFFFFFFC000
000000003FFFFFFFFF8000
00000000FFFFFFFFFF0000
00000001FFFFFFFFFE0000
00000003FFFFFFFFFC0000
0000000FFFFFFFFFF80000
0000001FFFFFFFFFE00000
0000003FFFFFFFFFC00000
0000007FFFFFFFFF800000
000000FFFFFFFFFE000000
000001FFFFFFFFFC000000
000003FFFFFFFFF0000000
000007FFFFFFFFE0000000
00000FFFFFFFFFC0000000
00000FFFFFFFFF00000000
00001FFFFFFFFE00000000
00003FFFFFFFFC00000000
00003FFFFFFFF800000000
00003FFFFFFFF000000000
00007FFFFFFFE000000000
00007FFFFFFFC000000000
00007FFFFFFF8000000000
00007FFFFFFF0000000000
00007FFFFFFE0000000000
00007FFFFFFC0000000000
00007FFFFFFC0000000000
00007FFFFFF80000000000
00007FFFFFF80000000000
00007FFFFFF00000000000
00007FFFFFF00000000000
00007FFFFFF00000000000
00003FFFFFF00000000000
00003FFFFFF00000000000
00003FFFFFF00000000000
00001FFFFFE00000000000
00000FFFFFC00000000000
000007FFFF800000000000
000000FFFC000000000000
0000000000000000000000
0000000000000000000000
0000000000000000000000
0000000000000000000000
0000000000000000000000
0000000000000000000000
0000000000000000000000
0000000000000000000000
0000000000000000000000
0000000000000000000000
0000000000000000000000
00000007F0000000000000
0000001FFC000000000000
0000007FFE000000000000
000000FFFF800000000000
000001FFFFC00000000000
000003FFFFE00000000000
000007FFFFF00000000000
00000FFFFFF80000000000
00001FFFFFFC0000000000
00003FFFFFFE0000000000
00007FFFFFFF0000000000
0000FFFFFFFF8000000000
0000FFFFFFFF8000000000
0001FFFFFFFFC000000000
0003FFFFFFFFE000000000
0003FFFFFFFFE000000000
0007FFFFFFFFF000000000
0007FFFFFFFFF000000000
0007FFFFFFFFF000000000
000FFFFFFFFFF000000000
000FFFFFFFFFF000000000
000FFFFFFFFFF000000000
000FFFFFFFFFF000000000
0007FFFFFFFFF000000000
0007FFFFFFFFF000000000
0007FFFFFFFFE000000000
0003FFFFFFFFE000000000
0003FFFFFFFFC000000000
0001FFFFFFFFC000000000
0000FFFFFFFF8000000000
0000FFFFFFFF0000000000
00007FFFFFFE0000000000
00003FFFFFFE0000000000
00001FFFFFFC0000000000
00000FFFFFF80000000000
000007FFFFF00000000000
000003FFFFE00000000000
000001FFFFC00000000000
000000FFFF000000000000
0000003FFE000000000000
0000000FF8000000000000
00000003E0000000000000
ENDCHAR
STARTCHAR 0040
ENCODING 64
SWIDTH 1096 0
DWIDTH 236 0
BBX 197 194 17 -45
BITMAP
00000000000000000000003FFFFFF000000000000000000000
00000000000000000000FFFFFFFFFFF8000000000000000000
0000000000000000007FFFFFFFFFFFFFE00000000000000000
00000000000000000FFFFFFFFFFFFFFFFE0000000000000000
0000000000000000FFFFFFFFFFFFFFFFFFE000000000000000
0000000000000007FFFFFFFFFFFFFFFFFFFC00000000000000
000000000000007FFFFFFFFFFFFFFFFFFFFF80000000000000
00000000000001FFFFFFFFFFFFFFFFFFFFFFF0000000000000
0000000000000FFFFFFFFFFFFFFFFFFFFFFFFC000000000000
0000000000003FFFFFFFFFFFFFFFFFFFFFFFFF000000000000
000000000001FFFFFFFFFFFFFFFFFFFFFFFFFFC00000000000
000000000007FFFFFFFFFFFFFFFFFFFFFFFFFFF00000000000
00000000001FFFFFFFFFFFFFFFFFFFFFFFFFFFFC0000000000
00000000007FFFFFFFFFFFFFFFFFFFFFFFFFFFFF0000000000
0000000000FFFFFFFFFFFFFFFFFFFFFFFFFFFFFF8000000000
0000000003FFFFFFFFFFFFFFFFFFFFFFFFFFFFFFE000000000
000000000FFFFFFFFFFFFFFFFFFFFFFFFFFFFFFFF000000000
000000001FFFFFFFFFFFFFFFFFFFFFFFFFFFFFFFF800000000
000000003FFFFFFFFFFFFFFFFFFFFFFFFFFFFFFFFE00000000
00000000FFFFFFFFFFFFFFFFFFFFFFFFFFFFFFFFFF00000000
00000001FFFFFFFFFFFFFFFFFFFFFFFFFFFFFFFFFF80000000
00000003FFFFFFFFFFFFFFFFFFFFFFFFFFFFFFFFFFC0000000
0000000FFFFFFFFFFFFFFFFFFFFFFFFFFFFFFFFFFFE0000000
0000001FFFFFFFFFFFFFFFFFFFFFFFFFFFFFFFFFFFF0000000
0000003FFFFFFFFFFFFFFFFFFFFFFFFFFFFFFFFFFFF8000000
0000007FFFFFFFFFFFFFFFFFFFFFFFFFFFFFFFFFFFFC000000
000000FFFFFFFFFFFFFFFFC000001FFFFFFFFFFFFFFE000000
000001FFFFFFFFFFFFFF80000000003FFFFFFFFFFFFF000000
000003FFFFFFFFFFFFE0000000000001FFFFFFFFFFFF800000
000007FFFFFFFFFFFE000000000000003FFFFFFFFFFFC00000
000007FFFFFFFFFFF00000000000000007FFFFFFFFFFC00000
00000FFFFFFFFFFF800000000000000000FFFFFFFFFFE00000
00001FFFFFFFFFFC0000000000000000003FFFFFFFFFF00000
00003FFFFFFFFFF00000000000000000000FFFFFFFFFF80000
00007FFFFFFFFFC000000000000000000003FFFFFFFFF80000
00007FFFFFFFFF0000000000000000000001FFFFFFFFFC0000
0000FFFFFFFFFE00000000000000000000007FFFFFFFFC0000
0001FFFFFFFFF800000000000000000000003FFFFFFFFE0000
0001FFFFFFFFF000000000000000000000001FFFFFFFFF0000
0003FFFFFFFFE000000000000000000000000FFFFFFFFF0000
0007FFFFFFFFC0000000000000000000000007FFFFFFFF8000
0007FFFFFFFF80000000000000000000000003FFFFFFFF8000
000FFFFFFFFF00000000000000000000000001FFFFFFFFC000
000FFFFFFFFE00000000000000000000000000FFFFFFFFC000
001FFFFFFFFC000000000000000000000000007FFFFFFFE000
001FFFFFFFF8000000000000000000000000007FFFFFFFE000
003FFFFFFFF0000000000007FFFF00000000003FFFFFFFF000
003FFFFFFFE0000000001FFFFFFFFE000000001FFFFFFFF000
007FFFFFFFE00000001FFFFFFFFFFFC00000001FFFFFFFF000
007FFFFFFFC0000003FFFFFFFFFFFFF80000000FFFFFFFF800
00FFFFFFFFC000003FFFFFFFFFFFFFFE0000000FFFFFFFF800
00FFFFFFFF800000FFFFFFFFFFFFFFFF80000007FFFFFFFC00
00FFFFFFFF000001FFFFFFFFFFFFFFFFE0000007FFFFFFFC00
01FFFFFFFF000003FFFFFFFFFFFFFFFFF0000003FFFFFFFC00
01FFFFFFFE000007FFFFFFFFFFFFFFFFF8000003FFFFFFFE00
03FFFFFFFE000007FFFFFFFFFFFFFFFFFC000001FFFFFFFE00
03FFFFFFFE000007FFFFFFFFFFFFFFFFFE000001FFFFFFFE00
03FFFFFFFC00000FFFFFFFFFFFFFFFFFFF000001FFFFFFFF00
07FFFFFFFC00000FFFFFFFFFFFFFFFFFFF800000FFFFFFFF00
07FFFFFFF800000FFFFFFFFFFFFFFFFFFF800000FFFFFFFF00
07FFFFFFF800000FFFFFFFFFFFFFFFFFFFC00000FFFFFFFF00
07FFFFFFF800000FFFFFFFFFFFFFFFFFFFE000007FFFFFFF80
0FFFFFFFF000000FFFFFFFFFFFFFFFFFFFE000007FFFFFFF80
0FFFFFFFF000000FFFFFFFFFFFFFFFFFFFF000007FFFFFFF80
0FFFFFFFF000000FFFFFFFFFFFFFFFFFFFF000003FFFFFFF80
0FFFFFFFF000000FFFFFFFFFFFFFFFFFFFF000003FFFFFFFC0
1FFFFFFFE0000007FFFFFFFFFFFFFFFFFFF800003FFFFFFFC0
1FFFFFFFE0000007FFFFFFFFFFFFFFFFFFF800003FFFFFFFC0
1FFFFFFFE0000001FFFFFFFFFFFFFFFFFFF800003FFFFFFFC0
1FFFFFFFE000000000000000001FFFFFFFF800001FFFFFFFC0
3FFFFFFFC0000000000000000007FFFFFFFC00001FFFFFFFE0
3FFFFFFFC0000000000000000003FFFFFFFC00001FFFFFFFE0
3FFFFFFFC0000000000000000003FFFFFFFC00001FFFFFFFE0
3FFFFFFFC0000000000000000001FFFFFFFC00001FFFFFFFE0
3FFFFFFFC0000000000000000001FFFFFFFC00001FFFFFFFE0
3FFFFFFFC0000000000000000001FFFFFFFC00000FFFFFFFE0
7FFFFFFF80000000000000000000FFFFFFFE00000FFFFFFFF0
7FFFFFFF80000000000000000000FFFFFFFE00000FFFFFFFF0
7FFFFFFF80000000000000000000FFFFFFFE00000FFFFFFFF0
7FFFFFFF80000000000000000000FFFFFFFE00000FFFFFFFF0
7FFFFFFF80000000000000000000FFFFFFFE00000FFFFFFFF0
7FFFFFFF80000000000000000000FFFFFFFE00000FFFFFFFF0
7FFFFFFF80000000000000000000FFFFFFFE00000FFFFFFFF0
7FFFFFFF80000000000000000000FFFFFFFE00000FFFFFFFF0
7FFFFFFF80000000000000000000FFFFFFFE00000FFFFFFFF0
FFFFFFFF80000000000003FFFFFEFFFFFFFE000007FFFFFFF0
FFFFFFFF000000000001FFFFFFFFFFFFFFFE000007FFFFFFF8
FFFFFFFF00000000001FFFFFFFFFFFFFFFFE000007FFFFFFF8
FFFFFFFF0000000001FFFFFFFFFFFFFFFFFE000007FFFFFFF8
FFFFFFFF0000000007FFFFFFFFFFFFFFFFFE000007FFFFFFF8
FFFFFFFF000000001FFFFFFFFFFFFFFFFFFE000007FFFFFFF8
FFFFFFFF000000007FFFFFFFFFFFFFFFFFFE000007FFFFFFF8
FFFFFFFF00000001FFFFFFFFFFFFFFFFFFFE000007FFFFFFF8
FFFFFFFF00000003FFFFFFFFFFFFFFFFFFFE000007FFFFFFF8
FFFFFFFF00000007FFFFFFFFFFFFFFFFFFFE000007FFFFFFF8
FFFFFFFF0000000FFFFFFFFFFFFFFFFFFFFE000007FFFFFFF8
FFFFFFFF0000001FFFFFFFFFFFFFFFFFFFFE000007FFFFFFF8
FFFFFFFF0000003FFFFFFFFFFFFFFFFFFFFE000007FFFFFFF8
FFFFFFFF0000007FFFFFFFFFFFFFFFFFFFFE000007FFFFFFF8
FFFFFFFF0000007FFFFFFFFFFFFFFFFFFFFE000007FFFFFFF8
FFFFFFFF000000FFFFFFFFFFFFFFFFFFFFFE000007FFFFFFF8
FFFFFFFF000001FFFFFFFFFFFFFFFFFFFFFE000007FFFFFFF8
FFFFFFFF000001FFFFFFFFFFFFFFFFFFFFFE000007FFFFFFF8
FFFFFFFF000003FFFFFFFFFFFFFFFFFFFFFE000007FFFFFFF8
FFFFFFFF000003FFFFFFFFFFFFFFFFFFFFFE000007FFFFFFF8
FFFFFFFF000003FFFFFFFFFFFFFFFFFFFFFE000007FFFFFFF8
FFFFFFFF000007FFFFFFFFFC0000FFFFFFFE000007FFFFFFF8
FFFFFFFF000007FFFFFFFF800000FFFFFFFE000007FFFFFFF8
FFFFFFFF000007FFFFFFFE000000FFFFFFFE000007FFFFFFF8
FFFFFFFF00000FFFFFFFF8000000FFFFFFFE000007FFFFFFF8
FFFFFFFF00000FFFFFFFF0000000FFFFFFFE000007FFFFFFF8
7FFFFFFF00000FFFFFFFE0000000FFFFFFFE000007FFFFFFF0
7FFFFFFF80000FFFFFFFC0000000FFFFFFFE000007FFFFFFF0
7FFFFFFF80000FFFFFFFC0000000FFFFFFFE000007FFFFFFF0
7FFFFFFF80001FFFFFFF80000000FFFFFFFE000007FFFFFFF0
7FFFFFFF80001FFFFFFF80000000FFFFFFFE00000FFFFFFFF0
7FFFFFFF80001FFFFFFF80000000FFFFFFFE00000FFFFFFFF0
7FFFFFFF80001FFFFFFF80000000FFFFFFFE00000FFFFFFFF0
7FFFFFFF80001FFFFFFF80000000FFFFFFFF00000FFFFFFFE0
7FFFFFFF80001FFFFFFF80000000FFFFFFFF00000FFFFFFFE0
3FFFFFFFC0001FFFFFFF80000000FFFFFFFF00001FFFFFFFE0
3FFFFFFFC0001FFFFFFF80000001FFFFFFFF00001FFFFFFFE0
3FFFFFFFC0001FFFFFFFC0000007FFFFFFFF80001FFFFFFFC0
3FFFFFFFC0001FFFFFFFC000001FFFFFFFFF80003FFFFFFFC0
3FFFFFFFC0001FFFFFFFC000007FFFFFFFFFC0007FFFFFFFC0
3FFFFFFFC0001FFFFFFFE00003FFFFFFFFFFE0007FFFFFFF80
1FFFFFFFE0001FFFFFFFE0001FFFFFFFFFFFF000FFFFFFFF80
1FFFFFFFE0001FFFFFFFF803FFFFFFFFFFFFFC07FFFFFFFF80
1FFFFFFFE0001FFFFFFFFFFFFFFFFFFFFFFFFFFFFFFFFFFF00
1FFFFFFFE0000FFFFFFFFFFFFFFFFFFFFFFFFFFFFFFFFFFF00
1FFFFFFFF0000FFFFFFFFFFFFFFFFFFFFFFFFFFFFFFFFFFE00
0FFFFFFFF0000FFFFFFFFFFFFFFFFFFFFFFFFFFFFFFFFFFE00
0FFFFFFFF0000FFFFFFFFFFFFFFFFFFFFFFFFFFFFFFFFFFC00
0FFFFFFFF8000FFFFFFFFFFFFFFFFFFFFFFFFFFFFFFFFFFC00
0FFFFFFFF80007FFFFFFFFFFFFFFFFFFFFFFFFFFFFFFFFF800
07FFFFFFF80007FFFFFFFFFFFFFFFFFFFFFFFFFFFFFFFFF800
07FFFFFFFC0007FFFFFFFFFFFFFFFFFFFFFFFFFFFFFFFFF000
07FFFFFFFC0003FFFFFFFFFFFFFFFFFFFFFFFFFFFFFFFFE000
07FFFFFFFE0003FFFFFFFFFFFFFFFDFFFFFFFFFFFFFFFFE000
03FFFFFFFE0001FFFFFFFFFFFFFFF8FFFFFFFFFFFFFFFFC000
03FFFFFFFE0001FFFFFFFFFFFFFFF0FFFFFFFFFFFFFFFF8000
03FFFFFFFF0000FFFFFFFFFFFFFFE07FFFFFFFFFFFFFFF0000
01FFFFFFFF8000FFFFFFFFFFFFFFC03FFFFFFFFFFFFFFE0000
01FFFFFFFF80007FFFFFFFFFFFFF801FFFFFFFFFFFFFFC0000
01FFFFFFFFC0003FFFFFFFFFFFFF000FFFFFFFFFFFFFF80000
00FFFFFFFFC0003FFFFFFFFFFFFE0007FFFFFFFFFFFFF00000
00FFFFFFFFE0001FFFFFFFFFFFFC0003FFFFFFFFFFFFE00000
007FFFFFFFF0000FFFFFFFFFFFF00001FFFFFFFFFFFFC00000
007FFFFFFFF00007FFFFFFFFFFE000007FFFFFFFFFFF000000
007FFFFFFFF80001FFFFFFFFFF8000003FFFFFFFFFFC000000
003FFFFFFFFC0000FFFFFFFFFE0000000FFFFFFFFFF0000000
003FFFFFFFFE00003FFFFFFFF800000003FFFFFFFFC0000000
001FFFFFFFFF00000FFFFFFFE000000000FFFFFFFE00000000
001FFFFFFFFF800001FFFFFE00000000001FFFFFF000000000
000FFFFFFFFFC000000FFFC0000000000000FFFC0000000000
000FFFFFFFFFE0000000000000000000000000000000000000
0007FFFFFFFFF0000000000000000000000000000000000000
0007FFFFFFFFF8000000000000000000000000000000000000
0003FFFFFFFFFE000000000000000000000000000000000000
0001FFFFFFFFFF000000000000000000000000000000000000
0001FFFFFFFFFFC00000000000000000000000000000000000
0000FFFFFFFFFFF000000000000000003E0000000000000000
00007FFFFFFFFFFC0000000000000001FF8000000000000000
00007FFFFFFFFFFF000000000000001FFFC000000000000000
00003FFFFFFFFFFFE0000000000001FFFFE000000000000000
00001FFFFFFFFFFFFC00000000003FFFFFE000000000000000
00000FFFFFFFFFFFFFC000000007FFFFFFF000000000000000
00000FFFFFFFFFFFFFFF800007FFFFFFFFF000000000000000
000007FFFFFFFFFFFFFFFFFFFFFFFFFFFFF800000000000000
000003FFFFFFFFFFFFFFFFFFFFFFFFFFFFF800000000000000
000001FFFFFFFFFFFFFFFFFFFFFFFFFFFFF800000000000000
000000FFFFFFFFFFFFFFFFFFFFFFFFFFFFFC00000000000000
0000007FFFFFFFFFFFFFFFFFFFFFFFFFFFFC00000000000000
0000003FFFFFFFFFFFFFFFFFFFFFFFFFFFFC00000000000000
0000001FFFFFFFFFFFFFFFFFFFFFFFFFFFFE00000000000000
0000000FFFFFFFFFFFFFFFFFFFFFFFFFFFFE00000000000000
00000007FFFFFFFFFFFFFFFFFFFFFFFFFFFE00000000000000
00000001FFFFFFFFFFFFFFFFFFFFFFFFFFFE00000000000000
00000000FFFFFFFFFFFFFFFFFFFFFFFFFFFE00000000000000
000000007FFFFFFFFFFFFFFFFFFFFFFFFFFE00000000000000
000000001FFFFFFFFFFFFFFFFFFFFFFFFFFE00000000000000
0000000007FFFFFFFFFFFFFFFFFFFFFFFFFC00000000000000
0000000003FFFFFFFFFFFFFFFFFFFFFFFFFC00000000000000
0000000000FFFFFFFFFFFFFFFFFFFFFFFFF800000000000000
00000000003FFFFFFFFFFFFFFFFFFFFFFFE000000000000000
00000000000FFFFFFFFFFFFFFFFFFFFFFF8000000000000000
000000000003FFFFFFFFFFFFFFFFFFFFFE0000000000000000
0000000000007FFFFFFFFFFFFFFFFFFFF00000000000000000
0000000000001FFFFFFFFFFFFFFFFFFF000000000000000000
00000000000003FFFFFFFFFFFFFFFFF8000000000000000000
000000000000003FFFFFFFFFFFFFFF00000000000000000000
0000000000000003FFFFFFFFFFFFE000000000000000000000
00000000000000001FFFFFFFFFF00000000000000000000000
0000000000000000001FFFFFE0000000000000000000000000
ENDCHAR
STARTCHAR 0041
ENCODING 65
SWIDTH 645 0
DWIDTH 139 0
BBX 130 144 3 0
BITMAP
000000000000001FFFC000000000000000
00000000000003FFFFF800000000000000
0000000000000FFFFFFC00000000000000
0000000000001FFFFFFE00000000000000
0000000000003FFFFFFF00000000000000
0000000000007FFFFFFF80000000000000
000000000000FFFFFFFFC0000000000000
000000000000FFFFFFFFC0000000000000
000000000001FFFFFFFFE0000000000000
000000000001FFFFFFFFE0000000000000
000000000003FFFFFFFFE0000000000000
000000000003FFFFFFFFF0000000000000
000000000007FFFFFFFFF0000000000000
000000000007FFFFFFFFF0000000000000
000000000007FFFFFFFFF8000000000000
00000000000FFFFFFFFFF8000000000000
00000000000FFFFFFFFFFC000000000000
00000000001FFFFFFFFFFC000000000000
00000000001FFFFFFFFFFC000000000000
00000000001FFFFFFFFFFE000000000000
00000000003FFFFFFFFFFE000000000000
00000000003FFFFFFFFFFE000000000000
00000000003FFFFFFFFFFF000000000000
00000000007FFFFFFFFFFF000000000000
00000000007FFFFFFFFFFF800000000000
0000000000FFFFFFFFFFFF800000000000
0000000000FFFFFFFFFFFF800000000000
0000000000FFFFFFFFFFFFC00000000000
0000000001FFFFFFFFFFFFC00000000000
0000000001FFFFFFFFFFFFE00000000000
0000000001FFFFFFFFFFFFE00000000000
0000000003FFFFFFFFFFFFE00000000000
0000000003FFFFFFFFFFFFF00000000000
0000000003FFFFFFFFFFFFF00000000000
0000000007FFFFFFFFFFFFF00000000000
0000000007FFFFFFFFFFFFF80000000000
000000000FFFFFFFFFFFFFF80000000000
000000000FFFFFFFFFFFFFFC0000000000
000000000FFFFFFFFFFFFFFC0000000000
000000001FFFFFFFFFFFFFFC0000000000
000000001FFFFFFFFFFFFFFE0000000000
000000001FFFFFFFFFFFFFFE0000000000
000000003FFFFFFFFFFFFFFE0000000000
000000003FFFFFFFFFFFFFFF0000000000
000000007FFFFFFFFFFFFFFF0000000000
000000007FFFFFFFFFFFFFFF8000000000
000000007FFFFFFF7FFFFFFF8000000000
00000000FFFFFFFE7FFFFFFF8000000000
00000000FFFFFFFE7FFFFFFFC000000000
00000000FFFFFFFE3FFFFFFFC000000000
00000001FFFFFFFC3FFFFFFFC000000000
00000001FFFFFFFC3FFFFFFFE000000000
00000003FFFFFFFC1FFFFFFFE000000000
00000003FFFFFFF81FFFFFFFF000000000
00000003FFFFFFF81FFFFFFFF000000000
00000007FFFFFFF80FFFFFFFF000000000
00000007FFFFFFF00FFFFFFFF800000000
00000007FFFFFFF00FFFFFFFF800000000
0000000FFFFFFFF007FFFFFFFC00000000
0000000FFFFFFFE007FFFFFFFC00000000
0000001FFFFFFFE007FFFFFFFC00000000
0000001FFFFFFFE003FFFFFFFE00000000
0000001FFFFFFFC003FFFFFFFE00000000
0000003FFFFFFFC003FFFFFFFE00000000
0000003FFFFFFFC001FFFFFFFF00000000
0000003FFFFFFF8001FFFFFFFF00000000
0000007FFFFFFF8001FFFFFFFF80000000
0000007FFFFFFF8000FFFFFFFF80000000
0000007FFFFFFF0000FFFFFFFF80000000
000000FFFFFFFF0000FFFFFFFFC0000000
000000FFFFFFFF00007FFFFFFFC0000000
000001FFFFFFFE00007FFFFFFFC0000000
000001FFFFFFFE00007FFFFFFFE0000000
000001FFFFFFFE00003FFFFFFFE0000000
000003FFFFFFFC00003FFFFFFFF0000000
000003FFFFFFFC00003FFFFFFFF0000000
000003FFFFFFFC00001FFFFFFFF0000000
000007FFFFFFF800001FFFFFFFF8000000
000007FFFFFFF800000FFFFFFFF8000000
00000FFFFFFFF800000FFFFFFFF8000000
00000FFFFFFFF000000FFFFFFFFC000000
00000FFFFFFFF0000007FFFFFFFC000000
00001FFFFFFFF0000007FFFFFFFE000000
00001FFFFFFFE0000007FFFFFFFE000000
00001FFFFFFFE0000003FFFFFFFE000000
00003FFFFFFFE0000003FFFFFFFF000000
00003FFFFFFFC0000003FFFFFFFF000000
00007FFFFFFFC0000001FFFFFFFF800000
00007FFFFFFF80000001FFFFFFFF800000
00007FFFFFFF80000001FFFFFFFF800000
0000FFFFFFFF80000000FFFFFFFFC00000
0000FFFFFFFF00000000FFFFFFFFC00000
0000FFFFFFFF00000000FFFFFFFFC00000
0001FFFFFFFFFFFFFFFFFFFFFFFFE00000
0001FFFFFFFFFFFFFFFFFFFFFFFFE00000
0003FFFFFFFFFFFFFFFFFFFFFFFFF00000
0003FFFFFFFFFFFFFFFFFFFFFFFFF00000
0003FFFFFFFFFFFFFFFFFFFFFFFFF00000
0007FFFFFFFFFFFFFFFFFFFFFFFFF80000
0007FFFFFFFFFFFFFFFFFFFFFFFFF80000
0007FFFFFFFFFFFFFFFFFFFFFFFFF80000
000FFFFFFFFFFFFFFFFFFFFFFFFFFC0000
000FFFFFFFFFFFFFFFFFFFFFFFFFFC0000
000FFFFFFFFFFFFFFFFFFFFFFFFFFE0000
001FFFFFFFFFFFFFFFFFFFFFFFFFFE0000
001FFFFFFFFFFFFFFFFFFFFFFFFFFE0000
003FFFFFFFFFFFFFFFFFFFFFFFFFFF0000
003FFFFFFFFFFFFFFFFFFFFFFFFFFF0000
003FFFFFFFFFFFFFFFFFFFFFFFFFFF0000
007FFFFFFFFFFFFFFFFFFFFFFFFFFF8000
007FFFFFFFFFFFFFFFFFFFFFFFFFFF8000
007FFFFFFFFFFFFFFFFFFFFFFFFFFFC000
00FFFFFFFFFFFFFFFFFFFFFFFFFFFFC000
00FFFFFFFFFFFFFFFFFFFFFFFFFFFFC000
01FFFFFFFFFFFFFFFFFFFFFFFFFFFFE000
01FFFFFFFFFFFFFFFFFFFFFFFFFFFFE000
01FFFFFFFFFFFFFFFFFFFFFFFFFFFFF000
03FFFFFFFFFFFFFFFFFFFFFFFFFFFFF000
03FFFFFFFE0000000000003FFFFFFFF000
03FFFFFFFE0000000000003FFFFFFFF800
07FFFFFFFC0000000000001FFFFFFFF800
07FFFFFFFC0000000000001FFFFFFFF800
0FFFFFFFFC0000000000001FFFFFFFFC00
0FFFFFFFF80000000000000FFFFFFFFC00
0FFFFFFFF80000000000000FFFFFFFFE00
1FFFFFFFF000000000000007FFFFFFFE00
1FFFFFFFF000000000000007FFFFFFFE00
1FFFFFFFF000000000000007FFFFFFFF00
3FFFFFFFE000000000000003FFFFFFFF00
3FFFFFFFE000000000000003FFFFFFFF00
3FFFFFFFE000000000000003FFFFFFFF80
7FFFFFFFC000000000000001FFFFFFFF80
7FFFFFFFC000000000000001FFFFFFFFC0
7FFFFFFFC000000000000000FFFFFFFFC0
FFFFFFFF8000000000000000FFFFFFFFC0
FFFFFFFF8000000000000000FFFFFFFFC0
FFFFFFFF00000000000000007FFFFFFFC0
FFFFFFFF00000000000000007FFFFFFFC0
FFFFFFFE00000000000000003FFFFFFF80
FFFFFFFE00000000000000003FFFFFFF80
7FFFFFFC00000000000000001FFFFFFF00
7FFFFFF800000000000000000FFFFFFE00
1FFFFFE0000000000000000003FFFFFC00
07FFFF80000000000000000000FFFFF000
ENDCHAR
STARTCHAR 0042
ENCODING 66
SWIDTH 622 0
DWIDTH 134 0
BBX 101 144 17 0
BITMAP
00FFFFFFFFFFFFF00000000000
07FFFFFFFFFFFFFFE000000000
1FFFFFFFFFFFFFFFFE00000000
3FFFFFFFFFFFFFFFFFC0000000
3FFFFFFFFFFFFFFFFFF0000000
7FFFFFFFFFFFFFFFFFFC000000
7FFFFFFFFFFFFFFFFFFF000000
FFFFFFFFFFFFFFFFFFFF800000
FFFFFFFFFFFFFFFFFFFFE00000
FFFFFFFFFFFFFFFFFFFFF00000
FFFFFFFFFFFFFFFFFFFFF80000
FFFFFFFFFFFFFFFFFFFFFC0000
FFFFFFFFFFFFFFFFFFFFFC0000
FFFFFFFFFFFFFFFFFFFFFE0000
FFFFFFFFFFFFFFFFFFFFFF0000
FFFFFFFFFFFFFFFFFFFFFF8000
FFFFFFFFFFFFFFFFFFFFFF8000
FFFFFFFFFFFFFFFFFFFFFFC000
FFFFFFFFFFFFFFFFFFFFFFC000
FFFFFFFFFFFFFFFFFFFFFFE000
FFFFFFFFFFFFFFFFFFFFFFE000
FFFFFFFFFFFFFFFFFFFFFFE000
FFFFFFFFFFFFFFFFFFFFFFF000
FFFFFFFFFFFFFFFFFFFFFFF000
FFFFFFFFFFFFFFFFFFFFFFF000
FFFFFFFFFFFFFFFFFFFFFFF800
FFFFFFFFFFFFFFFFFFFFFFF800
FFFFFFFFFFFFFFFFFFFFFFF800
FFFFFFFF8000007FFFFFFFF800
FFFFFFFF8000001FFFFFFFF800
FFFFFFFF8000000FFFFFFFFC00
FFFFFFFF80000007FFFFFFFC00
FFFFFFFF80000007FFFFFFFC00
FFFFFFFF80000007FFFFFFFC00
FFFFFFFF80000003FFFFFFFC00
FFFFFFFF80000003FFFFFFFC00
FFFFFFFF80000003FFFFFFFC00
FFFFFFFF80000003FFFFFFFC00
FFFFFFFF80000003FFFFFFFC00
FFFFFFFF80000003FFFFFFFC00
FFFFFFFF80000003FFFFFFFC00
FFFFFFFF80000003FFFFFFFC00
FFFFFFFF80000003FFFFFFFC00
FFFFFFFF80000003FFFFFFFC00
FFFFFFFF80000003FFFFFFFC00
FFFFFFFF80000003FFFFFFFC00
FFFFFFFF80000003FFFFFFFC00
FFFFFFFF80000003FFFFFFF800
FFFFFFFF80000003FFFFFFF800
FFFFFFFF80000007FFFFFFF800
FFFFFFFF80000007FFFFFFF800
FFFFFFFF80000007FFFFFFF800
FFFFFFFF80000007FFFFFFF000
FFFFFFFF8000000FFFFFFFF000
FFFFFFFF8000000FFFFFFFF000
FFFFFFFF8000001FFFFFFFE000
FFFFFFFF8000003FFFFFFFE000
FFFFFFFF800000FFFFFFFFC000
FFFFFFFF80000FFFFFFFFFC000
FFFFFFFFFFFFFFFFFFFFFF8000
FFFFFFFFFFFFFFFFFFFFFF8000
FFFFFFFFFFFFFFFFFFFFFF0000
FFFFFFFFFFFFFFFFFFFFFE0000
FFFFFFFFFFFFFFFFFFFFFC0000
FFFFFFFFFFFFFFFFFFFFF80000
FFFFFFFFFFFFFFFFFFFFF80000
FFFFFFFFFFFFFFFFFFFFFE0000
FFFFFFFFFFFFFFFFFFFFFF8000
FFFFFFFFFFFFFFFFFFFFFFC000
FFFFFFFFFFFFFFFFFFFFFFE000
FFFFFFFFFFFFFFFFFFFFFFF000
FFFFFFFFFFFFFFFFFFFFFFF800
FFFFFFFFFFFFFFFFFFFFFFFC00
FFFFFFFFFFFFFFFFFFFFFFFC00
FFFFFFFFFFFFFFFFFFFFFFFE00
FFFFFFFFFFFFFFFFFFFFFFFF00
FFFFFFFFFFFFFFFFFFFFFFFF00
FFFFFFFFFFFFFFFFFFFFFFFF80
FFFFFFFFFFFFFFFFFFFFFFFF80
FFFFFFFFFFFFFFFFFFFFFFFFC0
FFFFFFFFFFFFFFFFFFFFFFFFC0
FFFFFFFFFFFFFFFFFFFFFFFFC0
FFFFFFFFFFFFFFFFFFFFFFFFE0
FFFFFFFFFFFFFFFFFFFFFFFFE0
FFFFFFFFFFFFFFFFFFFFFFFFE0
FFFFFFFFFFFFFFFFFFFFFFFFF0
FFFFFFFF80000FFFFFFFFFFFF0
FFFFFFFF8000007FFFFFFFFFF0
FFFFFFFF8000001FFFFFFFFFF0
FFFFFFFF8000000FFFFFFFFFF0
FFFFFFFF80000007FFFFFFFFF0
FFFFFFFF80000007FFFFFFFFF8
FFFFFFFF80000007FFFFFFFFF8
FFFFFFFF80000003FFFFFFFFF8
FFFFFFFF80000003FFFFFFFFF8
FFFFFFFF80000003FFFFFFFFF8
FFFFFFFF80000003FFFFFFFFF8
FFFFFFFF80000003FFFFFFFFF8
FFFFFFFF80000003FFFFFFFFF8
FFFFFFFF80000003FFFFFFFFF8
FFFFFFFF80000003FFFFFFFFF8
FFFFFFFF80000003FFFFFFFFF8
FFFFFFFF80000003FFFFFFFFF8
FFFFFFFF80000003FFFFFFFFF8
FFFFFFFF80000003FFFFFFFFF8
FFFFFFFF80000003FFFFFFFFF8
FFFFFFFF80000003FFFFFFFFF8
FFFFFFFF80000007FFFFFFFFF8
FFFFFFFF80000007FFFFFFFFF8
FFFFFFFF80000007FFFFFFFFF8
FFFFFFFF8000000FFFFFFFFFF0
FFFFFFFF8000000FFFFFFFFFF0
FFFFFFFF8000001FFFFFFFFFF0
FFFFFFFF8000003FFFFFFFFFF0
FFFFFFFF8000007FFFFFFFFFF0
FFFFFFFF800001FFFFFFFFFFE0
FFFFFFFFFFFFFFFFFFFFFFFFE0
FFFFFFFFFFFFFFFFFFFFFFFFE0
FFFFFFFFFFFFFFFFFFFFFFFFE0
FFFFFFFFFFFFFFFFFFFFFFFFC0
FFFFFFFFFFFFFFFFFFFFFFFFC0
FFFFFFFFFFFFFFFFFFFFFFFFC0
FFFFFFFFFFFFFFFFFFFFFFFF80
FFFFFFFFFFFFFFFFFFFFFFFF80
FFFFFFFFFFFFFFFFFFFFFFFF00
FFFFFFFFFFFFFFFFFFFFFFFF00
FFFFFFFFFFFFFFFFFFFFFFFE00
FFFFFFFFFFFFFFFFFFFFFFFE00
FFFFFFFFFFFFFFFFFFFFFFFC00
FFFFFFFFFFFFFFFFFFFFFFFC00
FFFFFFFFFFFFFFFFFFFFFFF800
FFFFFFFFFFFFFFFFFFFFFFF000
FFFFFFFFFFFFFFFFFFFFFFE000
FFFFFFFFFFFFFFFFFFFFFFC000
FFFFFFFFFFFFFFFFFFFFFF8000
FFFFFFFFFFFFFFFFFFFFFF0000
FFFFFFFFFFFFFFFFFFFFFE0000
7FFFFFFFFFFFFFFFFFFFFC0000
7FFFFFFFFFFFFFFFFFFFF00000
3FFFFFFFFFFFFFFFFFFFC00000
3FFFFFFFFFFFFFFFFFFF000000
1FFFFFFFFFFFFFFFFFFC000000
07FFFFFFFFFFFFFFFFC0000000
00FFFFFFFFFFFFFFE000000000
ENDCHAR
STARTCHAR 0043
ENCODING 67
SWIDTH 576 0
DWIDTH 124 0
BBX 101 144 12 0
BITMAP
000000000007FFFFFFFFFFF000
0000000007FFFFFFFFFFFFFF00
000000007FFFFFFFFFFFFFFFC0
00000007FFFFFFFFFFFFFFFFE0
0000001FFFFFFFFFFFFFFFFFF0
0000007FFFFFFFFFFFFFFFFFF0
000001FFFFFFFFFFFFFFFFFFF8
000007FFFFFFFFFFFFFFFFFFF8
00001FFFFFFFFFFFFFFFFFFFF8
00003FFFFFFFFFFFFFFFFFFFF8
00007FFFFFFFFFFFFFFFFFFFF8
0000FFFFFFFFFFFFFFFFFFFFF8
0001FFFFFFFFFFFFFFFFFFFFF8
0003FFFFFFFFFFFFFFFFFFFFF8
0007FFFFFFFFFFFFFFFFFFFFF8
000FFFFFFFFFFFFFFFFFFFFFF8
001FFFFFFFFFFFFFFFFFFFFFF8
001FFFFFFFFFFFFFFFFFFFFFF8
003FFFFFFFFFFFFFFFFFFFFFF8
007FFFFFFFFFFFFFFFFFFFFFF8
007FFFFFFFFFFFFFFFFFFFFFF8
00FFFFFFFFFFFFFFFFFFFFFFF8
00FFFFFFFFFFFFFFFFFFFFFFF0
01FFFFFFFFFFFFFFFFFFFFFFF0
01FFFFFFFFFFFFFFFFFFFFFFF0
03FFFFFFFFFFFFFFFFFFFFFFE0
03FFFFFFFFFFFFFFFFFFFFFFC0
07FFFFFFFFFFFFFFFFFFFFFE00
07FFFFFFFFFFFC000000000000
07FFFFFFFFFF80000000000000
0FFFFFFFFFFC00000000000000
0FFFFFFFFFF800000000000000
0FFFFFFFFFE000000000000000
1FFFFFFFFFC000000000000000
1FFFFFFFFFC000000000000000
1FFFFFFFFF8000000000000000
1FFFFFFFFF0000000000000000
3FFFFFFFFF0000000000000000
3FFFFFFFFE0000000000000000
3FFFFFFFFE0000000000000000
3FFFFFFFFC0000000000000000
3FFFFFFFFC0000000000000000
3FFFFFFFF80000000000000000
7FFFFFFFF80000000000000000
7FFFFFFFF80000000000000000
7FFFFFFFF00000000000000000
7FFFFFFFF00000000000000000
7FFFFFFFF00000000000000000
7FFFFFFFF00000000000000000
7FFFFFFFF00000000000000000
7FFFFFFFE00000000000000000
7FFFFFFFE00000000000000000
FFFFFFFFE00000000000000000
FFFFFFFFE00000000000000000
FFFFFFFFE00000000000000000
FFFFFFFFE00000000000000000
FFFFFFFFE00000000000000000
FFFFFFFFE00000000000000000
FFFFFFFFC00000000000000000
FFFFFFFFC00000000000000000
FFFFFFFFC00000000000000000
FFFFFFFFC00000000000000000
FFFFFFFFC00000000000000000
FFFFFFFFC00000000000000000
FFFFFFFFC00000000000000000
FFFFFFFFC00000000000000000
FFFFFFFFC00000000000000000
FFFFFFFFC00000000000000000
FFFFFFFFC00000000000000000
FFFFFFFFC00000000000000000
FFFFFFFFC00000000000000000
FFFFFFFFC00000000000000000
FFFFFFFFC00000000000000000
FFFFFFFFC00000000000000000
FFFFFFFFC00000000000000000
FFFFFFFFC00000000000000000
FFFFFFFFC00000000000000000
FFFFFFFFC00000000000000000
FFFFFFFFC00000000000000000
FFFFFFFFC00000000000000000
FFFFFFFFC00000000000000000
FFFFFFFFC00000000000000000
FFFFFFFFC00000000000000000
FFFFFFFFC00000000000000000
FFFFFFFFC00000000000000000
FFFFFFFFC00000000000000000
FFFFFFFFC00000000000000000
7FFFFFFFE00000000000000000
7FFFFFFFE00000000000000000
7FFFFFFFE00000000000000000
7FFFFFFFE00000000000000000
7FFFFFFFE00000000000000000
7FFFFFFFE00000000000000000
7FFFFFFFF00000000000000000
7FFFFFFFF00000000000000000
7FFFFFFFF00000000000000000
7FFFFFFFF00000000000000000
3FFFFFFFF80000000000000000
3FFFFFFFF80000000000000000
3FFFFFFFF80000000000000000
3FFFFFFFFC0000000000000000
3FFFFFFFFC0000000000000000
3FFFFFFFFE0000000000000000
1FFFFFFFFE0000000000000000
1FFFFFFFFF0000000000000000
1FFFFFFFFF0000000000000000
1FFFFFFFFF8000000000000000
0FFFFFFFFFC000000000000000
0FFFFFFFFFE000000000000000
0FFFFFFFFFF000000000000000
07FFFFFFFFFC00000000000000
07FFFFFFFFFF00000000000000
07FFFFFFFFFFE0000000000000
03FFFFFFFFFFFF000000000000
03FFFFFFFFFFFFFFFFFFFFFE00
03FFFFFFFFFFFFFFFFFFFFFF80
01FFFFFFFFFFFFFFFFFFFFFFE0
01FFFFFFFFFFFFFFFFFFFFFFE0
00FFFFFFFFFFFFFFFFFFFFFFF0
00FFFFFFFFFFFFFFFFFFFFFFF0
007FFFFFFFFFFFFFFFFFFFFFF8
007FFFFFFFFFFFFFFFFFFFFFF8
003FFFFFFFFFFFFFFFFFFFFFF8
001FFFFFFFFFFFFFFFFFFFFFF8
001FFFFFFFFFFFFFFFFFFFFFF8
000FFFFFFFFFFFFFFFFFFFFFF8
0007FFFFFFFFFFFFFFFFFFFFF8
0003FFFFFFFFFFFFFFFFFFFFF8
0001FFFFFFFFFFFFFFFFFFFFF8
0000FFFFFFFFFFFFFFFFFFFFF8
00007FFFFFFFFFFFFFFFFFFFF8
00003FFFFFFFFFFFFFFFFFFFF8
00001FFFFFFFFFFFFFFFFFFFF8
00000FFFFFFFFFFFFFFFFFFFF8
000003FFFFFFFFFFFFFFFFFFF8
000001FFFFFFFFFFFFFFFFFFF8
0000007FFFFFFFFFFFFFFFFFF8
0000001FFFFFFFFFFFFFFFFFF0
00000007FFFFFFFFFFFFFFFFF0
00000000FFFFFFFFFFFFFFFFE0
000000001FFFFFFFFFFFFFFFE0
0000000001FFFFFFFFFFFFFF80
00000000000FFFFFFFFFFFFE00
0000000000001FFFFFFFFFE000
ENDCHAR
STARTCHAR 0044
ENCODING 68
SWIDTH 664 0
DWIDTH 143 0
BBX 113 144 15 0
BITMAP
00FFFFFFFFFFFFFFF0000000000000
07FFFFFFFFFFFFFFFFF00000000000
1FFFFFFFFFFFFFFFFFFF8000000000
3FFFFFFFFFFFFFFFFFFFF000000000
3FFFFFFFFFFFFFFFFFFFFE00000000
7FFFFFFFFFFFFFFFFFFFFF80000000
7FFFFFFFFFFFFFFFFFFFFFE0000000
FFFFFFFFFFFFFFFFFFFFFFF0000000
FFFFFFFFFFFFFFFFFFFFFFFC000000
FFFFFFFFFFFFFFFFFFFFFFFE000000
FFFFFFFFFFFFFFFFFFFFFFFF000000
FFFFFFFFFFFFFFFFFFFFFFFFC00000
FFFFFFFFFFFFFFFFFFFFFFFFE00000
FFFFFFFFFFFFFFFFFFFFFFFFF00000
FFFFFFFFFFFFFFFFFFFFFFFFF00000
FFFFFFFFFFFFFFFFFFFFFFFFF80000
FFFFFFFFFFFFFFFFFFFFFFFFFC0000
FFFFFFFFFFFFFFFFFFFFFFFFFE0000
FFFFFFFFFFFFFFFFFFFFFFFFFE0000
FFFFFFFFFFFFFFFFFFFFFFFFFF0000
FFFFFFFFFFFFFFFFFFFFFFFFFF8000
FFFFFFFFFFFFFFFFFFFFFFFFFF8000
FFFFFFFFFFFFFFFFFFFFFFFFFFC000
FFFFFFFFFFFFFFFFFFFFFFFFFFC000
FFFFFFFFFFFFFFFFFFFFFFFFFFE000
FFFFFFFFFFFFFFFFFFFFFFFFFFE000
FFFFFFFFFFFFFFFFFFFFFFFFFFF000
FFFFFFFFFFFFFFFFFFFFFFFFFFF000
FFFFFFFFFFFFFFFFFFFFFFFFFFF000
FFFFFFFF8000001FFFFFFFFFFFF800
FFFFFFFF800000007FFFFFFFFFF800
FFFFFFFF800000000FFFFFFFFFF800
FFFFFFFF8000000007FFFFFFFFF800
FFFFFFFF8000000001FFFFFFFFFC00
FFFFFFFF8000000000FFFFFFFFFC00
FFFFFFFF80000000007FFFFFFFFC00
FFFFFFFF80000000003FFFFFFFFC00
FFFFFFFF80000000003FFFFFFFFE00
FFFFFFFF80000000001FFFFFFFFE00
FFFFFFFF80000000001FFFFFFFFE00
FFFFFFFF80000000000FFFFFFFFE00
FFFFFFFF80000000000FFFFFFFFE00
FFFFFFFF800000000007FFFFFFFF00
FFFFFFFF800000000007FFFFFFFF00
FFFFFFFF800000000007FFFFFFFF00
FFFFFFFF800000000007FFFFFFFF00
FFFFFFFF800000000003FFFFFFFF00
FFFFFFFF800000000003FFFFFFFF00
FFFFFFFF800000000003FFFFFFFF00
FFFFFFFF800000000003FFFFFFFF00
FFFFFFFF800000000003FFFFFFFF00
FFFFFFFF800000000001FFFFFFFF80
FFFFFFFF800000000001FFFFFFFF80
FFFFFFFF800000000001FFFFFFFF80
FFFFFFFF800000000001FFFFFFFF80
FFFFFFFF800000000001FFFFFFFF80
FFFFFFFF800000000001FFFFFFFF80
FFFFFFFF800000000001FFFFFFFF80
FFFFFFFF800000000001FFFFFFFF80
FFFFFFFF800000000001FFFFFFFF80
FFFFFFFF800000000001FFFFFFFF80
FFFFFFFF800000000001FFFFFFFF80
FFFFFFFF800000000001FFFFFFFF80
FFFFFFFF800000000001FFFFFFFF80
FFFFFFFF800000000001FFFFFFFF80
FFFFFFFF800000000001FFFFFFFF80
FFFFFFFF800000000001FFFFFFFF80
FFFFFFFF800000000001FFFFFFFF80
FFFFFFFF800000000001FFFFFFFF80
FFFFFFFF800000000001FFFFFFFF80
FFFFFFFF800000000001FFFFFFFF80
FFFFFFFF800000000001FFFFFFFF80
FFFFFFFF800000000001FFFFFFFF80
FFFFFFFF800000000001FFFFFFFF80
FFFFFFFF800000000001FFFFFFFF80
FFFFFFFF800000000001FFFFFFFF80
FFFFFFFF800000000001FFFFFFFF80
FFFFFFFF800000000001FFFFFFFF80
FFFFFFFF800000000001FFFFFFFF80
FFFFFFFF800000000001FFFFFFFF80
FFFFFFFF800000000001FFFFFFFF80
FFFFFFFF800000000001FFFFFFFF80
FFFFFFFF800000000001FFFFFFFF80
FFFFFFFF800000000001FFFFFFFF80
FFFFFFFF800000000001FFFFFFFF80
FFFFFFFF800000000001FFFFFFFF80
FFFFFFFF800000000001FFFFFFFF80
FFFFFFFF800000000001FFFFFFFF80
FFFFFFFF800000000001FFFFFFFF00
FFFFFFFF800000000001FFFFFFFF00
FFFFFFFF800000000001FFFFFFFF00
FFFFFFFF800000000003FFFFFFFF00
FFFFFFFF800000000003FFFFFFFF00
FFFFFFFF800000000003FFFFFFFF00
FFFFFFFF800000000003FFFFFFFF00
FFFFFFFF800000000003FFFFFFFF00
FFFFFFFF800000000003FFFFFFFF00
FFFFFFFF800000000003FFFFFFFF00
FFFFFFFF800000000007FFFFFFFE00
FFFFFFFF800000000007FFFFFFFE00
FFFFFFFF800000000007FFFFFFFE00
FFFFFFFF80000000000FFFFFFFFE00
FFFFFFFF80000000000FFFFFFFFE00
FFFFFFFF80000000000FFFFFFFFC00
FFFFFFFF80000000001FFFFFFFFC00
FFFFFFFF80000000001FFFFFFFFC00
FFFFFFFF80000000003FFFFFFFFC00
FFFFFFFF80000000007FFFFFFFFC00
FFFFFFFF8000000000FFFFFFFFF800
FFFFFFFF8000000001FFFFFFFFF800
FFFFFFFF8000000003FFFFFFFFF800
FFFFFFFF800000000FFFFFFFFFF000
FFFFFFFF800000007FFFFFFFFFF000
FFFFFFFF80000003FFFFFFFFFFF000
FFFFFFFF800000FFFFFFFFFFFFE000
FFFFFFFFFFFFFFFFFFFFFFFFFFE000
FFFFFFFFFFFFFFFFFFFFFFFFFFC000
FFFFFFFFFFFFFFFFFFFFFFFFFFC000
FFFFFFFFFFFFFFFFFFFFFFFFFF8000
FFFFFFFFFFFFFFFFFFFFFFFFFF8000
FFFFFFFFFFFFFFFFFFFFFFFFFF0000
FFFFFFFFFFFFFFFFFFFFFFFFFF0000
FFFFFFFFFFFFFFFFFFFFFFFFFE0000
FFFFFFFFFFFFFFFFFFFFFFFFFE0000
FFFFFFFFFFFFFFFFFFFFFFFFFC0000
FFFFFFFFFFFFFFFFFFFFFFFFF80000
FFFFFFFFFFFFFFFFFFFFFFFFF00000
FFFFFFFFFFFFFFFFFFFFFFFFF00000
FFFFFFFFFFFFFFFFFFFFFFFFE00000
FFFFFFFFFFFFFFFFFFFFFFFFC00000
FFFFFFFFFFFFFFFFFFFFFFFF800000
FFFFFFFFFFFFFFFFFFFFFFFF000000
FFFFFFFFFFFFFFFFFFFFFFFC000000
FFFFFFFFFFFFFFFFFFFFFFF8000000
FFFFFFFFFFFFFFFFFFFFFFF0000000
FFFFFFFFFFFFFFFFFFFFFFC0000000
FFFFFFFFFFFFFFFFFFFFFF00000000
7FFFFFFFFFFFFFFFFFFFFC00000000
7FFFFFFFFFFFFFFFFFFFF000000000
3FFFFFFFFFFFFFFFFFFF8000000000
3FFFFFFFFFFFFFFFFFFC0000000000
1FFFFFFFFFFFFFFFFFC00000000000
07FFFFFFFFFFFFFFF8000000000000
00FFFFFFFFFFFFF800000000000000
ENDCHAR
STARTCHAR 0045
ENCODING 69
SWIDTH 552 0
DWIDTH 119 0
BBX 90 144 15 0
BITMAP
00FFFFFFFFFFFFFFFFFFE000
07FFFFFFFFFFFFFFFFFFF800
1FFFFFFFFFFFFFFFFFFFFC00
3FFFFFFFFFFFFFFFFFFFFE00
3FFFFFFFFFFFFFFFFFFFFF00
7FFFFFFFFFFFFFFFFFFFFF00
7FFFFFFFFFFFFFFFFFFFFF80
FFFFFFFFFFFFFFFFFFFFFF80
FFFFFFFFFFFFFFFFFFFFFF80
FFFFFFFFFFFFFFFFFFFFFF80
FFFFFFFFFFFFFFFFFFFFFF80
FFFFFFFFFFFFFFFFFFFFFF80
FFFFFFFFFFFFFFFFFFFFFF80
FFFFFFFFFFFFFFFFFFFFFF80
FFFFFFFFFFFFFFFFFFFFFF80
FFFFFFFFFFFFFFFFFFFFFF80
FFFFFFFFFFFFFFFFFFFFFF80
FFFFFFFFFFFFFFFFFFFFFF80
FFFFFFFFFFFFFFFFFFFFFF80
FFFFFFFFFFFFFFFFFFFFFF80
FFFFFFFFFFFFFFFFFFFFFF80
FFFFFFFFFFFFFFFFFFFFFF80
FFFFFFFFFFFFFFFFFFFFFF80
FFFFFFFFFFFFFFFFFFFFFF00
FFFFFFFFFFFFFFFFFFFFFE00
FFFFFFFFFFFFFFFFFFFFFC00
FFFFFFFFFFFFFFFFFFFFF800
FFFFFFFFFFFFFFFFFFFFE000
FFFFFFFF8000000000000000
FFFFFFFF8000000000000000
FFFFFFFF8000000000000000
FFFFFFFF8000000000000000
FFFFFFFF8000000000000000
FFFFFFFF8000000000000000
FFFFFFFF8000000000000000
FFFFFFFF8000000000000000
FFFFFFFF8000000000000000
FFFFFFFF8000000000000000
FFFFFFFF8000000000000000
FFFFFFFF8000000000000000
FFFFFFFF8000000000000000
FFFFFFFF8000000000000000
FFFFFFFF8000000000000000
FFFFFFFF8000000000000000
FFFFFFFF8000000000000000
FFFFFFFF8000000000000000
FFFFFFFF8000000000000000
FFFFFFFF8000000000000000
FFFFFFFF8000000000000000
FFFFFFFF8000000000000000
FFFFFFFF8000000000000000
FFFFFFFF8000000000000000
FFFFFFFF8000000000000000
FFFFFFFF8000000000000000
FFFFFFFF8000000000000000
FFFFFFFFFFFFFFFFFFFC0000
FFFFFFFFFFFFFFFFFFFF0000
FFFFFFFFFFFFFFFFFFFFC000
FFFFFFFFFFFFFFFFFFFFE000
FFFFFFFFFFFFFFFFFFFFE000
FFFFFFFFFFFFFFFFFFFFF000
FFFFFFFFFFFFFFFFFFFFF000
FFFFFFFFFFFFFFFFFFFFF000
FFFFFFFFFFFFFFFFFFFFF000
FFFFFFFFFFFFFFFFFFFFF800
FFFFFFFFFFFFFFFFFFFFF800
FFFFFFFFFFFFFFFFFFFFF800
FFFFFFFFFFFFFFFFFFFFF800
FFFFFFFFFFFFFFFFFFFFF800
FFFFFFFFFFFFFFFFFFFFF800
FFFFFFFFFFFFFFFFFFFFF800
FFFFFFFFFFFFFFFFFFFFF800
FFFFFFFFFFFFFFFFFFFFF800
FFFFFFFFFFFFFFFFFFFFF800
FFFFFFFFFFFFFFFFFFFFF000
FFFFFFFFFFFFFFFFFFFFF000
FFFFFFFFFFFFFFFFFFFFF000
FFFFFFFFFFFFFFFFFFFFE000
FFFFFFFFFFFFFFFFFFFFC000
FFFFFFFFFFFFFFFFFFFF8000
FFFFFFFFFFFFFFFFFFFF0000
FFFFFFFFFFFFFFFFFFF80000
FFFFFFFF8000000000000000
FFFFFFFF8000000000000000
FFFFFFFF8000000000000000
FFFFFFFF8000000000000000
FFFFFFFF8000000000000000
FFFFFFFF8000000000000000
FFFFFFFF8000000000000000
FFFFFFFF8000000000000000
FFFFFFFF8000000000000000
FFFFFFFF8000000000000000
FFFFFFFF8000000000000000
FFFFFFFF8000000000000000
FFFFFFFF8000000000000000
FFFFFFFF8000000000000000
FFFFFFFF8000000000000000
FFFFFFFF8000000000000000
FFFFFFFF8000000000000000
FFFFFFFF8000000000000000
FFFFFFFF8000000000000000
FFFFFFFF8000000000000000
FFFFFFFF8000000000000000
FFFFFFFF8000000000000000
FFFFFFFF8000000000000000
FFFFFFFF8000000000000000
FFFFFFFF8000000000000000
FFFFFFFF8000000000000000
FFFFFFFF8000000000000000
FFFFFFFF8000000000000000
FFFFFFFF8000000000000000
FFFFFFFF8000000000000000
FFFFFFFF8000000000000000
FFFFFFFF8000000000000000
FFFFFFFF8000000000000000
FFFFFFFFFFFFFFFFFFFF8000
FFFFFFFFFFFFFFFFFFFFF800
FFFFFFFFFFFFFFFFFFFFFC00
FFFFFFFFFFFFFFFFFFFFFE00
FFFFFFFFFFFFFFFFFFFFFF00
FFFFFFFFFFFFFFFFFFFFFF00
FFFFFFFFFFFFFFFFFFFFFF80
FFFFFFFFFFFFFFFFFFFFFF80
FFFFFFFFFFFFFFFFFFFFFF80
FFFFFFFFFFFFFFFFFFFFFF80
FFFFFFFFFFFFFFFFFFFFFF80
FFFFFFFFFFFFFFFFFFFFFF80
FFFFFFFFFFFFFFFFFFFFFFC0
FFFFFFFFFFFFFFFFFFFFFFC0
FFFFFFFFFFFFFFFFFFFFFFC0
FFFFFFFFFFFFFFFFFFFFFFC0
FFFFFFFFFFFFFFFFFFFFFFC0
FFFFFFFFFFFFFFFFFFFFFF80
FFFFFFFFFFFFFFFFFFFFFF80
FFFFFFFFFFFFFFFFFFFFFF80
FFFFFFFFFFFFFFFFFFFFFF80
FFFFFFFFFFFFFFFFFFFFFF80
7FFFFFFFFFFFFFFFFFFFFF80
7FFFFFFFFFFFFFFFFFFFFF00
3FFFFFFFFFFFFFFFFFFFFF00
3FFFFFFFFFFFFFFFFFFFFE00
1FFFFFFFFFFFFFFFFFFFFC00
07FFFFFFFFFFFFFFFFFFF800
00FFFFFFFFFFFFFFFFFFC000
ENDCHAR
STARTCHAR 0046
ENCODING 70
SWIDTH 506 0
DWIDTH 109 0
BBX 85 144 15 0
BITMAP
00FFFFFFFFFFFFFFFFFE00
07FFFFFFFFFFFFFFFFFF80
1FFFFFFFFFFFFFFFFFFFC0
3FFFFFFFFFFFFFFFFFFFE0
3FFFFFFFFFFFFFFFFFFFF0
7FFFFFFFFFFFFFFFFFFFF0
7FFFFFFFFFFFFFFFFFFFF8
FFFFFFFFFFFFFFFFFFFFF8
FFFFFFFFFFFFFFFFFFFFF8
FFFFFFFFFFFFFFFFFFFFF8
FFFFFFFFFFFFFFFFFFFFF8
FFFFFFFFFFFFFFFFFFFFF8
FFFFFFFFFFFFFFFFFFFFF8
FFFFFFFFFFFFFFFFFFFFF8
FFFFFFFFFFFFFFFFFFFFF8
FFFFFFFFFFFFFFFFFFFFF8
FFFFFFFFFFFFFFFFFFFFF8
FFFFFFFFFFFFFFFFFFFFF8
FFFFFFFFFFFFFFFFFFFFF8
FFFFFFFFFFFFFFFFFFFFF8
FFFFFFFFFFFFFFFFFFFFF8
FFFFFFFFFFFFFFFFFFFFF8
FFFFFFFFFFFFFFFFFFFFF0
FFFFFFFFFFFFFFFFFFFFF0
FFFFFFFFFFFFFFFFFFFFE0
FFFFFFFFFFFFFFFFFFFFC0
FFFFFFFFFFFFFFFFFFFF80
FFFFFFFFFFFFFFFFFFFE00
FFFFFFFF80000000000000
FFFFFFFF80000000000000
FFFFFFFF80000000000000
FFFFFFFF80000000000000
FFFFFFFF80000000000000
FFFFFFFF80000000000000
FFFFFFFF80000000000000
FFFFFFFF80000000000000
FFFFFFFF80000000000000
FFFFFFFF80000000000000
FFFFFFFF80000000000000
FFFFFFFF80000000000000
FFFFFFFF80000000000000
FFFFFFFF80000000000000
FFFFFFFF80000000000000
FFFFFFFF80000000000000
FFFFFFFF80000000000000
FFFFFFFF80000000000000
FFFFFFFF80000000000000
FFFFFFFF80000000000000
FFFFFFFF80000000000000
FFFFFFFF80000000000000
FFFFFFFF80000000000000
FFFFFFFF80000000000000
FFFFFFFF80000000000000
FFFFFFFF80000000000000
FFFFFFFF80000000000000
FFFFFFFFFFFFFFFFFFC000
FFFFFFFFFFFFFFFFFFF800
FFFFFFFFFFFFFFFFFFFC00
FFFFFFFFFFFFFFFFFFFE00
FFFFFFFFFFFFFFFFFFFF00
FFFFFFFFFFFFFFFFFFFF00
FFFFFFFFFFFFFFFFFFFF00
FFFFFFFFFFFFFFFFFFFF80
FFFFFFFFFFFFFFFFFFFF80
FFFFFFFFFFFFFFFFFFFF80
FFFFFFFFFFFFFFFFFFFF80
FFFFFFFFFFFFFFFFFFFF80
FFFFFFFFFFFFFFFFFFFF80
FFFFFFFFFFFFFFFFFFFF80
FFFFFFFFFFFFFFFFFFFF80
FFFFFFFFFFFFFFFFFFFF80
FFFFFFFFFFFFFFFFFFFF80
FFFFFFFFFFFFFFFFFFFF80
FFFFFFFFFFFFFFFFFFFF80
FFFFFFFFFFFFFFFFFFFF80
FFFFFFFFFFFFFFFFFFFF80
FFFFFFFFFFFFFFFFFFFF00
FFFFFFFFFFFFFFFFFFFF00
FFFFFFFFFFFFFFFFFFFE00
FFFFFFFFFFFFFFFFFFFC00
FFFFFFFFFFFFFFFFFFF800
FFFFFFFFFFFFFFFFFFC000
FFFFFFFF80000000000000
FFFFFFFF80000000000000
FFFFFFFF80000000000000
FFFFFFFF80000000000000
FFFFFFFF80000000000000
FFFFFFFF80000000000000
FFFFFFFF80000000000000
FFFFFFFF80000000000000
FFFFFFFF80000000000000
FFFFFFFF80000000000000
FFFFFFFF80000000000000
FFFFFFFF80000000000000
FFFFFFFF80000000000000
FFFFFFFF80000000000000
FFFFFFFF80000000000000
FFFFFFFF80000000000000
FFFFFFFF80000000000000
FFFFFFFF80000000000000
FFFFFFFF80000000000000
FFFFFFFF80000000000000
FFFFFFFF80000000000000
FFFFFFFF80000000000000
FFFFFFFF80000000000000
FFFFFFFF80000000000000
FFFFFFFF80000000000000
FFFFFFFF80000000000000
FFFFFFFF80000000000000
FFFFFFFF80000000000000
FFFFFFFF80000000000000
FFFFFFFF80000000000000
FFFFFFFF80000000000000
FFFFFFFF80000000000000
FFFFFFFF80000000000000
FFFFFFFF80000000000000
FFFFFFFF80000000000000
FFFFFFFF80000000000000
FFFFFFFF80000000000000
FFFFFFFF80000000000000
FFFFFFFF80000000000000
FFFFFFFF80000000000000
FFFFFFFF80000000000000
FFFFFFFF80000000000000
FFFFFFFF80000000000000
FFFFFFFF80000000000000
FFFFFFFF80000000000000
FFFFFFFF80000000000000
FFFFFFFF80000000000000
FFFFFFFF80000000000000
FFFFFFFF80000000000000
FFFFFFFF80000000000000
FFFFFFFF80000000000000
FFFFFFFF80000000000000
FFFFFFFF80000000000000
FFFFFFFF80000000000000
FFFFFFFF80000000000000
7FFFFFFF00000000000000
7FFFFFFF00000000000000
3FFFFFFE00000000000000
3FFFFFFE00000000000000
1FFFFFFC00000000000000
07FFFFF000000000000000
00FFFFC000000000000000
ENDCHAR
STARTCHAR 0047
ENCODING 71
SWIDTH 636 0
DWIDTH 137 0
BBX 108 144 12 0
BITMAP
000000000007FFFFFFFFFF000000
0000000007FFFFFFFFFFFFFFE000
000000007FFFFFFFFFFFFFFFFE00
00000007FFFFFFFFFFFFFFFFFF80
0000001FFFFFFFFFFFFFFFFFFFC0
000000FFFFFFFFFFFFFFFFFFFFE0
000003FFFFFFFFFFFFFFFFFFFFE0
000007FFFFFFFFFFFFFFFFFFFFF0
00001FFFFFFFFFFFFFFFFFFFFFF0
00003FFFFFFFFFFFFFFFFFFFFFF0
00007FFFFFFFFFFFFFFFFFFFFFF0
0000FFFFFFFFFFFFFFFFFFFFFFF0
0001FFFFFFFFFFFFFFFFFFFFFFF0
0003FFFFFFFFFFFFFFFFFFFFFFF0
0007FFFFFFFFFFFFFFFFFFFFFFF0
000FFFFFFFFFFFFFFFFFFFFFFFF0
001FFFFFFFFFFFFFFFFFFFFFFFF0
003FFFFFFFFFFFFFFFFFFFFFFFF0
003FFFFFFFFFFFFFFFFFFFFFFFF0
007FFFFFFFFFFFFFFFFFFFFFFFF0
007FFFFFFFFFFFFFFFFFFFFFFFF0
00FFFFFFFFFFFFFFFFFFFFFFFFF0
00FFFFFFFFFFFFFFFFFFFFFFFFF0
01FFFFFFFFFFFFFFFFFFFFFFFFE0
01FFFFFFFFFFFFFFFFFFFFFFFFE0
03FFFFFFFFFFFFFFFFFFFFFFFFE0
03FFFFFFFFFFFFFFFFFFFFFFFFC0
07FFFFFFFFFFFFFFFFFFFFFFFF80
07FFFFFFFFFFFFFFFFFFFFFFFC00
07FFFFFFFFFFFE00000000000000
0FFFFFFFFFFF8000000000000000
0FFFFFFFFFFC0000000000000000
0FFFFFFFFFF80000000000000000
1FFFFFFFFFF00000000000000000
1FFFFFFFFFE00000000000000000
1FFFFFFFFFC00000000000000000
1FFFFFFFFF800000000000000000
3FFFFFFFFF000000000000000000
3FFFFFFFFF000000000000000000
3FFFFFFFFE000000000000000000
3FFFFFFFFE000000000000000000
3FFFFFFFFC000000000000000000
3FFFFFFFFC000000000000000000
7FFFFFFFFC000000000000000000
7FFFFFFFF8000000000000000000
7FFFFFFFF8000000000000000000
7FFFFFFFF8000000000000000000
7FFFFFFFF0000000000000000000
7FFFFFFFF0000000000000000000
7FFFFFFFF0000000000000000000
7FFFFFFFF0000000000000000000
7FFFFFFFF0000000000000000000
FFFFFFFFE0000000000000000000
FFFFFFFFE0000000000000000000
FFFFFFFFE0000000000000000000
FFFFFFFFE0000000000000000000
FFFFFFFFE00003FFFFFFFFFFF800
FFFFFFFFE0000FFFFFFFFFFFFE00
FFFFFFFFE0003FFFFFFFFFFFFF80
FFFFFFFFE0007FFFFFFFFFFFFFC0
FFFFFFFFC0007FFFFFFFFFFFFFC0
FFFFFFFFC000FFFFFFFFFFFFFFE0
FFFFFFFFC000FFFFFFFFFFFFFFE0
FFFFFFFFC001FFFFFFFFFFFFFFF0
FFFFFFFFC001FFFFFFFFFFFFFFF0
FFFFFFFFC001FFFFFFFFFFFFFFF0
FFFFFFFFC001FFFFFFFFFFFFFFF0
FFFFFFFFC001FFFFFFFFFFFFFFF0
FFFFFFFFC001FFFFFFFFFFFFFFF0
FFFFFFFFC001FFFFFFFFFFFFFFF0
FFFFFFFFC001FFFFFFFFFFFFFFF0
FFFFFFFFC001FFFFFFFFFFFFFFF0
FFFFFFFFC001FFFFFFFFFFFFFFF0
FFFFFFFFC001FFFFFFFFFFFFFFF0
FFFFFFFFC001FFFFFFFFFFFFFFF0
FFFFFFFFC001FFFFFFFFFFFFFFF0
FFFFFFFFC000FFFFFFFFFFFFFFF0
FFFFFFFFC000FFFFFFFFFFFFFFF0
FFFFFFFFC000FFFFFFFFFFFFFFF0
FFFFFFFFC0007FFFFFFFFFFFFFF0
FFFFFFFFC0003FFFFFFFFFFFFFF0
FFFFFFFFC0001FFFFFFFFFFFFFF0
FFFFFFFFC00003FFFFFFFFFFFFF0
FFFFFFFFC0000000001FFFFFFFF0
FFFFFFFFC0000000001FFFFFFFF0
FFFFFFFFC0000000001FFFFFFFF0
FFFFFFFFC0000000001FFFFFFFF0
7FFFFFFFC0000000001FFFFFFFF0
7FFFFFFFC0000000001FFFFFFFF0
7FFFFFFFE0000000001FFFFFFFF0
7FFFFFFFE0000000001FFFFFFFF0
7FFFFFFFE0000000001FFFFFFFF0
7FFFFFFFE0000000001FFFFFFFF0
7FFFFFFFE0000000001FFFFFFFF0
7FFFFFFFE0000000001FFFFFFFF0
7FFFFFFFE0000000001FFFFFFFF0
7FFFFFFFF0000000001FFFFFFFF0
3FFFFFFFF0000000001FFFFFFFF0
3FFFFFFFF0000000001FFFFFFFF0
3FFFFFFFF0000000001FFFFFFFF0
3FFFFFFFF8000000001FFFFFFFF0
3FFFFFFFF8000000001FFFFFFFF0
3FFFFFFFF8000000001FFFFFFFF0
1FFFFFFFFC000000001FFFFFFFF0
1FFFFFFFFC000000001FFFFFFFF0
1FFFFFFFFE000000001FFFFFFFF0
1FFFFFFFFE000000001FFFFFFFF0
0FFFFFFFFF000000001FFFFFFFF0
0FFFFFFFFF000000001FFFFFFFF0
0FFFFFFFFF800000001FFFFFFFF0
0FFFFFFFFFC00000001FFFFFFFF0
07FFFFFFFFE00000001FFFFFFFF0
07FFFFFFFFF00000001FFFFFFFF0
03FFFFFFFFFC0000001FFFFFFFF0
03FFFFFFFFFF0000001FFFFFFFF0
03FFFFFFFFFFC000001FFFFFFFF0
01FFFFFFFFFFFF0000FFFFFFFFF0
01FFFFFFFFFFFFFFFFFFFFFFFFF0
00FFFFFFFFFFFFFFFFFFFFFFFFF0
00FFFFFFFFFFFFFFFFFFFFFFFFF0
007FFFFFFFFFFFFFFFFFFFFFFFF0
007FFFFFFFFFFFFFFFFFFFFFFFF0
003FFFFFFFFFFFFFFFFFFFFFFFF0
001FFFFFFFFFFFFFFFFFFFFFFFF0
001FFFFFFFFFFFFFFFFFFFFFFFF0
000FFFFFFFFFFFFFFFFFFFFFFFF0
0007FFFFFFFFFFFFFFFFFFFFFFF0
0003FFFFFFFFFFFFFFFFFFFFFFF0
0001FFFFFFFFFFFFFFFFFFFFFFF0
0000FFFFFFFFFFFFFFFFFFFFFFF0
00007FFFFFFFFFFFFFFFFFFFFFF0
00003FFFFFFFFFFFFFFFFFFFFFF0
00001FFFFFFFFFFFFFFFFFFFFFF0
00000FFFFFFFFFFFFFFFFFFFFFE0
000003FFFFFFFFFFFFFFFFFFFFE0
000001FFFFFFFFFFFFFFFFFFFFC0
0000007FFFFFFFFFFFFFFFFFFF80
0000001FFFFFFFFFFFFFFFFFFF00
00000007FFFFFFFFFFFFFFFFFE00
00000000FFFFFFFFFFFFFFFFF800
000000001FFFFFFFFFFFFFFFC000
0000000001FFFFFFFFFFFFFE0000
00000000001FFFFFFFFFFFC00000
0000000000001FFFFFFFC0000000
ENDCHAR
STARTCHAR 0048
ENCODING 72
SWIDTH 678 0
DWIDTH 146 0
BBX 113 144 15 1
BITMAP
01FFFFC0000000000000000FFFC000
07FFFFF000000000000001FFFFF000
1FFFFFFC00000000000007FFFFFC00
3FFFFFFE0000000000001FFFFFFE00
3FFFFFFE0000000000003FFFFFFE00
7FFFFFFF0000000000003FFFFFFF00
7FFFFFFF0000000000007FFFFFFF00
FFFFFFFF8000000000007FFFFFFF80
FFFFFFFF800000000000FFFFFFFF80
FFFFFFFF800000000000FFFFFFFF80
FFFFFFFF800000000000FFFFFFFF80
FFFFFFFF800000000000FFFFFFFF80
FFFFFFFF800000000000FFFFFFFF80
FFFFFFFF800000000000FFFFFFFF80
FFFFFFFF800000000000FFFFFFFF80
FFFFFFFF800000000000FFFFFFFF80
FFFFFFFF800000000000FFFFFFFF80
FFFFFFFF800000000000FFFFFFFF80
FFFFFFFF800000000000FFFFFFFF80
FFFFFFFF800000000000FFFFFFFF80
FFFFFFFF800000000000FFFFFFFF80
FFFFFFFF800000000000FFFFFFFF80
FFFFFFFF800000000000FFFFFFFF80
FFFFFFFF800000000000FFFFFFFF80
FFFFFFFF800000000000FFFFFFFF80
FFFFFFFF800000000000FFFFFFFF80
FFFFFFFF800000000000FFFFFFFF80
FFFFFFFF800000000000FFFFFFFF80
FFFFFFFF800000000000FFFFFFFF80
FFFFFFFF800000000000FFFFFFFF80
FFFFFFFF800000000000FFFFFFFF80
FFFFFFFF800000000000FFFFFFFF80
FFFFFFFF800000000000FFFFFFFF80
FFFFFFFF800000000000FFFFFFFF80
FFFFFFFF800000000000FFFFFFFF80
FFFFFFFF800000000000FFFFFFFF80
FFFFFFFF800000000000FFFFFFFF80
FFFFFFFF800000000000FFFFFFFF80
FFFFFFFF800000000000FFFFFFFF80
FFFFFFFF800000000000FFFFFFFF80
FFFFFFFF800000000000FFFFFFFF80
FFFFFFFF800000000000FFFFFFFF80
FFFFFFFF800000000000FFFFFFFF80
FFFFFFFF800000000000FFFFFFFF80
FFFFFFFF800000000000FFFFFFFF80
FFFFFFFF800000000000FFFFFFFF80
FFFFFFFF800000000000FFFFFFFF80
FFFFFFFF800000000000FFFFFFFF80
FFFFFFFF800000000000FFFFFFFF80
FFFFFFFF800000000000FFFFFFFF80
FFFFFFFF800000000000FFFFFFFF80
FFFFFFFF800000000000FFFFFFFF80
FFFFFFFF800000000000FFFFFFFF80
FFFFFFFF800000000000FFFFFFFF80
FFFFFFFFFFFFFFFFFFFFFFFFFFFF80
FFFFFFFFFFFFFFFFFFFFFFFFFFFF80
FFFFFFFFFFFFFFFFFFFFFFFFFFFF80
FFFFFFFFFFFFFFFFFFFFFFFFFFFF80
FFFFFFFFFFFFFFFFFFFFFFFFFFFF80
FFFFFFFFFFFFFFFFFFFFFFFFFFFF80
FFFFFFFFFFFFFFFFFFFFFFFFFFFF80
FFFFFFFFFFFFFFFFFFFFFFFFFFFF80
FFFFFFFFFFFFFFFFFFFFFFFFFFFF80
FFFFFFFFFFFFFFFFFFFFFFFFFFFF80
FFFFFFFFFFFFFFFFFFFFFFFFFFFF80
FFFFFFFFFFFFFFFFFFFFFFFFFFFF80
FFFFFFFFFFFFFFFFFFFFFFFFFFFF80
FFFFFFFFFFFFFFFFFFFFFFFFFFFF80
FFFFFFFFFFFFFFFFFFFFFFFFFFFF80
FFFFFFFFFFFFFFFFFFFFFFFFFFFF80
FFFFFFFFFFFFFFFFFFFFFFFFFFFF80
FFFFFFFFFFFFFFFFFFFFFFFFFFFF80
FFFFFFFFFFFFFFFFFFFFFFFFFFFF80
FFFFFFFFFFFFFFFFFFFFFFFFFFFF80
FFFFFFFFFFFFFFFFFFFFFFFFFFFF80
FFFFFFFFFFFFFFFFFFFFFFFFFFFF80
FFFFFFFFFFFFFFFFFFFFFFFFFFFF80
FFFFFFFFFFFFFFFFFFFFFFFFFFFF80
FFFFFFFFFFFFFFFFFFFFFFFFFFFF80
FFFFFFFFFFFFFFFFFFFFFFFFFFFF80
FFFFFFFFFFFFFFFFFFFFFFFFFFFF80
FFFFFFFF800000000000FFFFFFFF80
FFFFFFFF800000000000FFFFFFFF80
FFFFFFFF800000000000FFFFFFFF80
FFFFFFFF800000000000FFFFFFFF80
FFFFFFFF800000000000FFFFFFFF80
FFFFFFFF800000000000FFFFFFFF80
FFFFFFFF800000000000FFFFFFFF80
FFFFFFFF800000000000FFFFFFFF80
FFFFFFFF800000000000FFFFFFFF80
FFFFFFFF800000000000FFFFFFFF80
FFFFFFFF800000000000FFFFFFFF80
FFFFFFFF800000000000FFFFFFFF80
FFFFFFFF800000000000FFFFFFFF80
FFFFFFFF800000000000FFFFFFFF80
FFFFFFFF800000000000FFFFFFFF80
FFFFFFFF800000000000FFFFFFFF80
FFFFFFFF800000000000FFFFFFFF80
FFFFFFFF800000000000FFFFFFFF80
FFFFFFFF800000000000FFFFFFFF80
FFFFFFFF800000000000FFFFFFFF80
FFFFFFFF800000000000FFFFFFFF80
FFFFFFFF800000000000FFFFFFFF80
FFFFFFFF800000000000FFFFFFFF80
FFFFFFFF800000000000FFFFFFFF80
FFFFFFFF800000000000FFFFFFFF80
FFFFFFFF800000000000FFFFFFFF80
FFFFFFFF800000000000FFFFFFFF80
FFFFFFFF800000000000FFFFFFFF80
FFFFFFFF800000000000FFFFFFFF80
FFFFFFFF800000000000FFFFFFFF80
FFFFFFFF800000000000FFFFFFFF80
FFFFFFFF800000000000FFFFFFFF80
FFFFFFFF800000000000FFFFFFFF80
FFFFFFFF800000000000FFFFFFFF80
FFFFFFFF800000000000FFFFFFFF80
FFFFFFFF800000000000FFFFFFFF80
FFFFFFFF800000000000FFFFFFFF80
FFFFFFFF800000000000FFFFFFFF80
FFFFFFFF800000000000FFFFFFFF80
FFFFFFFF800000000000FFFFFFFF80
FFFFFFFF800000000000FFFFFFFF80
FFFFFFFF800000000000FFFFFFFF80
FFFFFFFF800000000000FFFFFFFF80
FFFFFFFF800000000000FFFFFFFF80
FFFFFFFF800000000000FFFFFFFF80
FFFFFFFF800000000000FFFFFFFF80
FFFFFFFF800000000000FFFFFFFF80
FFFFFFFF800000000000FFFFFFFF80
FFFFFFFF800000000000FFFFFFFF80
FFFFFFFF800000000000FFFFFFFF80
FFFFFFFF800000000000FFFFFFFF80
FFFFFFFF800000000000FFFFFFFF80
FFFFFFFF800000000000FFFFFFFF80
FFFFFFFF800000000000FFFFFFFF80
FFFFFFFF800000000000FFFFFFFF80
FFFFFFFF000000000000FFFFFFFF80
7FFFFFFF0000000000007FFFFFFF00
7FFFFFFF0000000000007FFFFFFF00
3FFFFFFE0000000000003FFFFFFE00
3FFFFFFC0000000000003FFFFFFE00
1FFFFFF80000000000001FFFFFFC00
07FFFFE000000000000007FFFFF000
00FFFC0000000000000000FFFF8000
ENDCHAR
STARTCHAR 0049
ENCODING 73
SWIDTH 306 0
DWIDTH 66 0
BBX 33 144 16 0
BITMAP
00FFFFC000
07FFFFF000
1FFFFFFC00
3FFFFFFE00
3FFFFFFF00
7FFFFFFF00
7FFFFFFF00
FFFFFFFF80
FFFFFFFF80
FFFFFFFF80
FFFFFFFF80
FFFFFFFF80
FFFFFFFF80
FFFFFFFF80
FFFFFFFF80
FFFFFFFF80
FFFFFFFF80
FFFFFFFF80
FFFFFFFF80
FFFFFFFF80
FFFFFFFF80
FFFFFFFF80
FFFFFFFF80
FFFFFFFF80
FFFFFFFF80
FFFFFFFF80
FFFFFFFF80
FFFFFFFF80
FFFFFFFF80
FFFFFFFF80
FFFFFFFF80
FFFFFFFF80
FFFFFFFF80
FFFFFFFF80
FFFFFFFF80
FFFFFFFF80
FFFFFFFF80
FFFFFFFF80
FFFFFFFF80
FFFFFFFF80
FFFFFFFF80
FFFFFFFF80
FFFFFFFF80
FFFFFFFF80
FFFFFFFF80
FFFFFFFF80
FFFFFFFF80
FFFFFFFF80
FFFFFFFF80
FFFFFFFF80
FFFFFFFF80
FFFFFFFF80
FFFFFFFF80
FFFFFFFF80
FFFFFFFF80
FFFFFFFF80
FFFFFFFF80
FFFFFFFF80
FFFFFFFF80
FFFFFFFF80
FFFFFFFF80
FFFFFFFF80
FFFFFFFF80
FFFFFFFF80
FFFFFFFF80
FFFFFFFF80
FFFFFFFF80
FFFFFFFF80
FFFFFFFF80
FFFFFFFF80
FFFFFFFF80
FFFFFFFF80
FFFFFFFF80
FFFFFFFF80
FFFFFFFF80
FFFFFFFF80
FFFFFFFF80
FFFFFFFF80
FFFFFFFF80
FFFFFFFF80
FFFFFFFF80
FFFFFFFF80
FFFFFFFF80
FFFFFFFF80
FFFFFFFF80
FFFFFFFF80
FFFFFFFF80
FFFFFFFF80
FFFFFFFF80
FFFFFFFF80
FFFFFFFF80
FFFFFFFF80
FFFFFFFF80
FFFFFFFF80
FFFFFFFF80
FFFFFFFF80
FFFFFFFF80
FFFFFFFF80
FFFFFFFF80
FFFFFFFF80
FFFFFFFF80
FFFFFFFF80
FFFFFFFF80
FFFFFFFF80
FFFFFFFF80
FFFFFFFF80
FFFFFFFF80
FFFFFFFF80
FFFFFFFF80
FFFFFFFF80
FFFFFFFF80
FFFFFFFF80
FFFFFFFF80
FFFFFFFF80
FFFFFFFF80
FFFFFFFF80
FFFFFFFF80
FFFFFFFF80
FFFFFFFF80
FFFFFFFF80
FFFFFFFF80
FFFFFFFF80
FFFFFFFF80
FFFFFFFF80
FFFFFFFF80
FFFFFFFF80
FFFFFFFF80
FFFFFFFF80
FFFFFFFF80
FFFFFFFF80
FFFFFFFF80
FFFFFFFF80
FFFFFFFF80
FFFFFFFF80
FFFFFFFF80
FFFFFFFF80
FFFFFFFF80
7FFFFFFF00
7FFFFFFF00
3FFFFFFE00
3FFFFFFE00
1FFFFFFC00
07FFFFF000
00FFFFC000
ENDCHAR
STARTCHAR 004A
ENCODING 74
SWIDTH 362 0
DWIDTH 78 0
BBX 70 144 -5 0
BITMAP
00007FFFFFFFFFFE00
0001FFFFFFFFFFFFC0
0007FFFFFFFFFFFFE0
000FFFFFFFFFFFFFF0
000FFFFFFFFFFFFFF8
001FFFFFFFFFFFFFF8
001FFFFFFFFFFFFFF8
003FFFFFFFFFFFFFFC
003FFFFFFFFFFFFFFC
003FFFFFFFFFFFFFFC
003FFFFFFFFFFFFFFC
003FFFFFFFFFFFFFFC
003FFFFFFFFFFFFFFC
003FFFFFFFFFFFFFFC
003FFFFFFFFFFFFFFC
003FFFFFFFFFFFFFFC
003FFFFFFFFFFFFFFC
003FFFFFFFFFFFFFFC
003FFFFFFFFFFFFFFC
003FFFFFFFFFFFFFFC
001FFFFFFFFFFFFFFC
001FFFFFFFFFFFFFFC
001FFFFFFFFFFFFFFC
000FFFFFFFFFFFFFFC
000FFFFFFFFFFFFFFC
0007FFFFFFFFFFFFFC
0003FFFFFFFFFFFFFC
00007FFFFFFFFFFFFC
0000000007FFFFFFFC
0000000007FFFFFFFC
0000000007FFFFFFFC
0000000007FFFFFFFC
0000000007FFFFFFFC
0000000007FFFFFFFC
0000000007FFFFFFFC
0000000007FFFFFFFC
0000000007FFFFFFFC
0000000007FFFFFFFC
0000000007FFFFFFFC
0000000007FFFFFFFC
0000000007FFFFFFFC
0000000007FFFFFFFC
0000000007FFFFFFFC
0000000007FFFFFFFC
0000000007FFFFFFFC
0000000007FFFFFFFC
0000000007FFFFFFFC
0000000007FFFFFFFC
0000000007FFFFFFFC
0000000007FFFFFFFC
0000000007FFFFFFFC
0000000007FFFFFFFC
0000000007FFFFFFFC
0000000007FFFFFFFC
0000000007FFFFFFFC
0000000007FFFFFFFC
0000000007FFFFFFFC
0000000007FFFFFFFC
0000000007FFFFFFFC
0000000007FFFFFFFC
0000000007FFFFFFFC
0000000007FFFFFFFC
0000000007FFFFFFFC
0000000007FFFFFFFC
0000000007FFFFFFFC
0000000007FFFFFFFC
0000000007FFFFFFFC
0000000007FFFFFFFC
0000000007FFFFFFFC
0000000007FFFFFFFC
0000000007FFFFFFFC
0000000007FFFFFFFC
0000000007FFFFFFFC
0000000007FFFFFFFC
0000000007FFFFFFFC
0000000007FFFFFFFC
0000000007FFFFFFFC
0000000007FFFFFFFC
0000000007FFFFFFFC
0000000007FFFFFFFC
0000000007FFFFFFFC
0000000007FFFFFFFC
0000000007FFFFFFFC
0000000007FFFFFFFC
0000000007FFFFFFFC
0000000007FFFFFFFC
0000000007FFFFFFFC
0000000007FFFFFFFC
0000000007FFFFFFFC
0000000007FFFFFFFC
0000000007FFFFFFFC
0000000007FFFFFFFC
0000000007FFFFFFFC
0000000007FFFFFFFC
0000000007FFFFFFFC
0000000007FFFFFFFC
0000000007FFFFFFFC
0000000007FFFFFFFC
000000000FFFFFFFFC
000000000FFFFFFFFC
000000000FFFFFFFFC
000000000FFFFFFFFC
000000000FFFFFFFFC
000000000FFFFFFFFC
000000000FFFFFFFFC
000000000FFFFFFFFC
000000001FFFFFFFFC
000000001FFFFFFFFC
000000001FFFFFFFFC
000000001FFFFFFFFC
000000003FFFFFFFFC
000000007FFFFFFFFC
000000007FFFFFFFF8
00000001FFFFFFFFF8
0000001FFFFFFFFFF8
03FFFFFFFFFFFFFFF8
0FFFFFFFFFFFFFFFF8
1FFFFFFFFFFFFFFFF0
3FFFFFFFFFFFFFFFF0
7FFFFFFFFFFFFFFFF0
7FFFFFFFFFFFFFFFF0
7FFFFFFFFFFFFFFFE0
FFFFFFFFFFFFFFFFE0
FFFFFFFFFFFFFFFFC0
FFFFFFFFFFFFFFFFC0
FFFFFFFFFFFFFFFF80
FFFFFFFFFFFFFFFF80
FFFFFFFFFFFFFFFF00
FFFFFFFFFFFFFFFE00
FFFFFFFFFFFFFFFE00
FFFFFFFFFFFFFFFC00
FFFFFFFFFFFFFFF800
FFFFFFFFFFFFFFF000
FFFFFFFFFFFFFFE000
7FFFFFFFFFFFFFC000
7FFFFFFFFFFFFF0000
7FFFFFFFFFFFFE0000
3FFFFFFFFFFFF80000
3FFFFFFFFFFFE00000
1FFFFFFFFFFF800000
0FFFFFFFFFFC000000
03FFFFFFFFE0000000
007FFFFFFC00000000
0003FFFE0000000000
ENDCHAR
STARTCHAR 004B
ENCODING 75
SWIDTH 613 0
DWIDTH 132 0
BBX 111 144 15 3
BITMAP
01FFFFC000000000000003FFF800
07FFFFF00000000000003FFFFE00
1FFFFFFC000000000000FFFFFF80
3FFFFFFE000000000003FFFFFFC0
3FFFFFFF00000000000FFFFFFFC0
7FFFFFFF00000000001FFFFFFFE0
7FFFFFFF00000000003FFFFFFFE0
FFFFFFFF80000000007FFFFFFFE0
FFFFFFFF8000000000FFFFFFFFE0
FFFFFFFF8000000001FFFFFFFFE0
FFFFFFFF8000000003FFFFFFFFE0
FFFFFFFF8000000007FFFFFFFFC0
FFFFFFFF8000000007FFFFFFFFC0
FFFFFFFF800000000FFFFFFFFF80
FFFFFFFF800000001FFFFFFFFF80
FFFFFFFF800000003FFFFFFFFF00
FFFFFFFF800000007FFFFFFFFE00
FFFFFFFF80000000FFFFFFFFFC00
FFFFFFFF80000001FFFFFFFFF800
FFFFFFFF80000001FFFFFFFFF000
FFFFFFFF80000003FFFFFFFFF000
FFFFFFFF80000007FFFFFFFFE000
FFFFFFFF8000000FFFFFFFFFC000
FFFFFFFF8000001FFFFFFFFF8000
FFFFFFFF8000003FFFFFFFFF0000
FFFFFFFF8000007FFFFFFFFE0000
FFFFFFFF800000FFFFFFFFFC0000
FFFFFFFF800000FFFFFFFFF80000
FFFFFFFF800001FFFFFFFFF00000
FFFFFFFF800003FFFFFFFFE00000
FFFFFFFF800007FFFFFFFFC00000
FFFFFFFF80000FFFFFFFFFC00000
FFFFFFFF80001FFFFFFFFF800000
FFFFFFFF80003FFFFFFFFF000000
FFFFFFFF80007FFFFFFFFE000000
FFFFFFFF80007FFFFFFFFC000000
FFFFFFFF8000FFFFFFFFF8000000
FFFFFFFF8001FFFFFFFFF0000000
FFFFFFFF8003FFFFFFFFE0000000
FFFFFFFF8007FFFFFFFFC0000000
FFFFFFFF800FFFFFFFFF80000000
FFFFFFFF801FFFFFFFFF00000000
FFFFFFFF801FFFFFFFFF00000000
FFFFFFFF803FFFFFFFFE00000000
FFFFFFFF807FFFFFFFFC00000000
FFFFFFFF80FFFFFFFFF800000000
FFFFFFFF81FFFFFFFFF000000000
FFFFFFFF83FFFFFFFFE000000000
FFFFFFFF87FFFFFFFFC000000000
FFFFFFFF8FFFFFFFFF8000000000
FFFFFFFF8FFFFFFFFF0000000000
FFFFFFFF9FFFFFFFFE0000000000
FFFFFFFFBFFFFFFFFC0000000000
FFFFFFFFFFFFFFFFFC0000000000
FFFFFFFFFFFFFFFFF80000000000
FFFFFFFFFFFFFFFFF00000000000
FFFFFFFFFFFFFFFFE00000000000
FFFFFFFFFFFFFFFFC00000000000
FFFFFFFFFFFFFFFF800000000000
FFFFFFFFFFFFFFFF000000000000
FFFFFFFFFFFFFFFE000000000000
FFFFFFFFFFFFFFFC000000000000
FFFFFFFFFFFFFFF8000000000000
FFFFFFFFFFFFFFF8000000000000
FFFFFFFFFFFFFFF0000000000000
FFFFFFFFFFFFFFE0000000000000
FFFFFFFFFFFFFFC0000000000000
FFFFFFFFFFFFFF80000000000000
FFFFFFFFFFFFFF00000000000000
FFFFFFFFFFFFFE00000000000000
FFFFFFFFFFFFFC00000000000000
FFFFFFFFFFFFF800000000000000
FFFFFFFFFFFFF800000000000000
FFFFFFFFFFFFFC00000000000000
FFFFFFFFFFFFFE00000000000000
FFFFFFFFFFFFFF00000000000000
FFFFFFFFFFFFFF80000000000000
FFFFFFFFFFFFFFC0000000000000
FFFFFFFFFFFFFFE0000000000000
FFFFFFFFFFFFFFF0000000000000
FFFFFFFFFFFFFFF8000000000000
FFFFFFFFFFFFFFFC000000000000
FFFFFFFFFFFFFFFE000000000000
FFFFFFFFFFFFFFFF000000000000
FFFFFFFFFFFFFFFF800000000000
FFFFFFFFFFFFFFFFC00000000000
FFFFFFFFFFFFFFFFE00000000000
FFFFFFFFFFFFFFFFF00000000000
FFFFFFFFFFFFFFFFF80000000000
FFFFFFFFFFFFFFFFFC0000000000
FFFFFFFFFFFFFFFFFE0000000000
FFFFFFFFFFFFFFFFFF0000000000
FFFFFFFFFFFFFFFFFF8000000000
FFFFFFFFFFFFFFFFFFC000000000
FFFFFFFFFFFFFFFFFFE000000000
FFFFFFFFBFFFFFFFFFF000000000
FFFFFFFF9FFFFFFFFFF800000000
FFFFFFFF8FFFFFFFFFFC00000000
FFFFFFFF87FFFFFFFFFE00000000
FFFFFFFF83FFFFFFFFFF00000000
FFFFFFFF81FFFFFFFFFF80000000
FFFFFFFF81FFFFFFFFFFC0000000
FFFFFFFF80FFFFFFFFFFE0000000
FFFFFFFF807FFFFFFFFFF0000000
FFFFFFFF803FFFFFFFFFF8000000
FFFFFFFF801FFFFFFFFFFC000000
FFFFFFFF800FFFFFFFFFFE000000
FFFFFFFF8007FFFFFFFFFF000000
FFFFFFFF8003FFFFFFFFFF800000
FFFFFFFF8001FFFFFFFFFFC00000
FFFFFFFF8000FFFFFFFFFFE00000
FFFFFFFF80007FFFFFFFFFF00000
FFFFFFFF80003FFFFFFFFFF80000
FFFFFFFF80003FFFFFFFFFFC0000
FFFFFFFF80001FFFFFFFFFFE0000
FFFFFFFF80000FFFFFFFFFFF0000
FFFFFFFF800007FFFFFFFFFF8000
FFFFFFFF800003FFFFFFFFFFC000
FFFFFFFF800001FFFFFFFFFFE000
FFFFFFFF800000FFFFFFFFFFF000
FFFFFFFF8000007FFFFFFFFFF800
FFFFFFFF8000003FFFFFFFFFFC00
FFFFFFFF8000001FFFFFFFFFFE00
FFFFFFFF8000000FFFFFFFFFFF00
FFFFFFFF8000000FFFFFFFFFFF80
FFFFFFFF80000007FFFFFFFFFFC0
FFFFFFFF80000003FFFFFFFFFFE0
FFFFFFFF80000001FFFFFFFFFFF0
FFFFFFFF80000000FFFFFFFFFFF8
FFFFFFFF800000007FFFFFFFFFFC
FFFFFFFF800000003FFFFFFFFFFC
FFFFFFFF800000001FFFFFFFFFFE
FFFFFFFF800000000FFFFFFFFFFE
FFFFFFFF8000000007FFFFFFFFFE
FFFFFFFF8000000003FFFFFFFFFE
FFFFFFFF8000000001FFFFFFFFFE
FFFFFFFF0000000001FFFFFFFFFE
7FFFFFFF0000000000FFFFFFFFFE
7FFFFFFF00000000007FFFFFFFFE
3FFFFFFE00000000003FFFFFFFFE
3FFFFFFC00000000001FFFFFFFFC
1FFFFFF8000000000007FFFFFFF8
07FFFFE0000000000001FFFFFFF0
00FFFC000000000000003FFFFF80
ENDCHAR
STARTCHAR 004C
ENCODING 76
SWIDTH 483 0
DWIDTH 104 0
BBX 83 144 15 0
BITMAP
00FFFFC000000000000000
07FFFFF000000000000000
1FFFFFFC00000000000000
3FFFFFFE00000000000000
3FFFFFFF00000000000000
7FFFFFFF00000000000000
7FFFFFFF00000000000000
FFFFFFFF80000000000000
FFFFFFFF80000000000000
FFFFFFFF80000000000000
FFFFFFFF80000000000000
FFFFFFFF80000000000000
FFFFFFFF80000000000000
FFFFFFFF80000000000000
FFFFFFFF80000000000000
FFFFFFFF80000000000000
FFFFFFFF80000000000000
FFFFFFFF80000000000000
FFFFFFFF80000000000000
FFFFFFFF80000000000000
FFFFFFFF80000000000000
FFFFFFFF80000000000000
FFFFFFFF80000000000000
FFFFFFFF80000000000000
FFFFFFFF80000000000000
FFFFFFFF80000000000000
FFFFFFFF80000000000000
FFFFFFFF80000000000000
FFFFFFFF80000000000000
FFFFFFFF80000000000000
FFFFFFFF80000000000000
FFFFFFFF80000000000000
FFFFFFFF80000000000000
FFFFFFFF80000000000000
FFFFFFFF80000000000000
FFFFFFFF80000000000000
FFFFFFFF80000000000000
FFFFFFFF80000000000000
FFFFFFFF80000000000000
FFFFFFFF80000000000000
FFFFFFFF80000000000000
FFFFFFFF80000000000000
FFFFFFFF80000000000000
FFFFFFFF80000000000000
FFFFFFFF80000000000000
FFFFFFFF80000000000000
FFFFFFFF80000000000000
FFFFFFFF80000000000000
FFFFFFFF80000000000000
FFFFFFFF80000000000000
FFFFFFFF80000000000000
FFFFFFFF80000000000000
FFFFFFFF80000000000000
FFFFFFFF80000000000000
FFFFFFFF80000000000000
FFFFFFFF80000000000000
FFFFFFFF80000000000000
FFFFFFFF80000000000000
FFFFFFFF80000000000000
FFFFFFFF80000000000000
FFFFFFFF80000000000000
FFFFFFFF80000000000000
FFFFFFFF80000000000000
FFFFFFFF80000000000000
FFFFFFFF80000000000000
FFFFFFFF80000000000000
FFFFFFFF80000000000000
FFFFFFFF80000000000000
FFFFFFFF80000000000000
FFFFFFFF80000000000000
FFFFFFFF80000000000000
FFFFFFFF80000000000000
FFFFFFFF80000000000000
FFFFFFFF80000000000000
FFFFFFFF80000000000000
FFFFFFFF80000000000000
FFFFFFFF80000000000000
FFFFFFFF80000000000000
FFFFFFFF80000000000000
FFFFFFFF80000000000000
FFFFFFFF80000000000000
FFFFFFFF80000000000000
FFFFFFFF80000000000000
FFFFFFFF80000000000000
FFFFFFFF80000000000000
FFFFFFFF80000000000000
FFFFFFFF80000000000000
FFFFFFFF80000000000000
FFFFFFFF80000000000000
FFFFFFFF80000000000000
FFFFFFFF80000000000000
FFFFFFFF80000000000000
FFFFFFFF80000000000000
FFFFFFFF80000000000000
FFFFFFFF80000000000000
FFFFFFFF80000000000000
FFFFFFFF80000000000000
FFFFFFFF80000000000000
FFFFFFFF80000000000000
FFFFFFFF80000000000000
FFFFFFFF80000000000000
FFFFFFFF80000000000000
FFFFFFFF80000000000000
FFFFFFFF80000000000000
FFFFFFFF80000000000000
FFFFFFFF80000000000000
FFFFFFFF80000000000000
FFFFFFFF80000000000000
FFFFFFFF80000000000000
FFFFFFFF80000000000000
FFFFFFFF80000000000000
FFFFFFFF80000000000000
FFFFFFFF80000000000000
FFFFFFFF80000000000000
FFFFFFFF80000000000000
FFFFFFFFFFFFFFFFFFE000
FFFFFFFFFFFFFFFFFFFE00
FFFFFFFFFFFFFFFFFFFF00
FFFFFFFFFFFFFFFFFFFF80
FFFFFFFFFFFFFFFFFFFFC0
FFFFFFFFFFFFFFFFFFFFC0
FFFFFFFFFFFFFFFFFFFFE0
FFFFFFFFFFFFFFFFFFFFE0
FFFFFFFFFFFFFFFFFFFFE0
FFFFFFFFFFFFFFFFFFFFE0
FFFFFFFFFFFFFFFFFFFFE0
FFFFFFFFFFFFFFFFFFFFE0
FFFFFFFFFFFFFFFFFFFFE0
FFFFFFFFFFFFFFFFFFFFE0
FFFFFFFFFFFFFFFFFFFFE0
FFFFFFFFFFFFFFFFFFFFE0
FFFFFFFFFFFFFFFFFFFFE0
FFFFFFFFFFFFFFFFFFFFE0
FFFFFFFFFFFFFFFFFFFFE0
FFFFFFFFFFFFFFFFFFFFE0
FFFFFFFFFFFFFFFFFFFFE0
FFFFFFFFFFFFFFFFFFFFE0
7FFFFFFFFFFFFFFFFFFFE0
7FFFFFFFFFFFFFFFFFFFC0
3FFFFFFFFFFFFFFFFFFFC0
3FFFFFFFFFFFFFFFFFFF80
1FFFFFFFFFFFFFFFFFFF00
07FFFFFFFFFFFFFFFFFE00
00FFFFFFFFFFFFFFFFF000
ENDCHAR
STARTCHAR 004D
ENCODING 77
SWIDTH 817 0
DWIDTH 176 0
BBX 140 144 16 -2
BITMAP
00FFFFFF00000000000000000007FFFFF000
07FFFFFFC000000000000000003FFFFFFE00
1FFFFFFFF00000000000000000FFFFFFFF80
3FFFFFFFF80000000000000001FFFFFFFFC0
7FFFFFFFFC0000000000000003FFFFFFFFE0
7FFFFFFFFE0000000000000003FFFFFFFFE0
7FFFFFFFFF0000000000000007FFFFFFFFF0
FFFFFFFFFF000000000000000FFFFFFFFFF0
FFFFFFFFFF800000000000000FFFFFFFFFF0
FFFFFFFFFF800000000000001FFFFFFFFFF0
FFFFFFFFFFC00000000000001FFFFFFFFFF0
FFFFFFFFFFC00000000000001FFFFFFFFFF0
FFFFFFFFFFC00000000000003FFFFFFFFFF0
FFFFFFFFFFE00000000000003FFFFFFFFFF0
FFFFFFFFFFE00000000000007FFFFFFFFFF0
FFFFFFFFFFF00000000000007FFFFFFFFFF0
FFFFFFFFFFF0000000000000FFFFFFFFFFF0
FFFFFFFFFFF0000000000000FFFFFFFFFFF0
FFFFFFFFFFF8000000000000FFFFFFFFFFF0
FFFFFFFFFFF8000000000001FFFFFFFFFFF0
FFFFFFFFFFFC000000000001FFFFFFFFFFF0
FFFFFFFFFFFC000000000003FFFFFFFFFFF0
FFFFFFFFFFFC000000000003FFFFFFFFFFF0
FFFFFFFFFFFE000000000003FFFFFFFFFFF0
FFFFFFFFFFFE000000000007FFFFFFFFFFF0
FFFFFFFFFFFF000000000007FFFFFFFFFFF0
FFFFFFFFFFFF00000000000FFFFFFFFFFFF0
FFFFFFFFFFFF00000000000FFFFFFFFFFFF0
FFFFFFFFFFFF80000000000FFFFFFFFFFFF0
FFFFFFFFFFFF80000000001FFFFFFFFFFFF0
FFFFFFFFFFFFC0000000001FFFFFFFFFFFF0
FFFFFFFFFFFFC0000000003FFFFFFFFFFFF0
FFFFFFFFFFFFC0000000003FFFFFFFFFFFF0
FFFFFFFFFFFFE0000000003FFFFFFFFFFFF0
FFFFFFFFFFFFE0000000007FFFFFFFFFFFF0
FFFFFFFFFFFFF0000000007FFFFFFFFFFFF0
FFFFFFFFFFFFF0000000007FFFFFFFFFFFF0
FFFFFFFFFFFFF000000000FFFFFFFFFFFFF0
FFFFFFFFFFFFF800000000FFFFFFFFFFFFF0
FFFFFFFFFFFFF800000001FFFFFFFFFFFFF0
FFFFFFFFFFFFFC00000001FFFFFFFFFFFFF0
FFFFFFFFFFFFFC00000001FFFFFFFFFFFFF0
FFFFFFFFFFFFFC00000003FFFFFFFFFFFFF0
FFFFFFFFFFFFFE00000003FFFFFFFFFFFFF0
FFFFFFFFFFFFFE00000007FFFFFFFFFFFFF0
FFFFFFFFFFFFFF00000007FFFFFFFFFFFFF0
FFFFFFFFFFFFFF00000007FFFFFFFFFFFFF0
FFFFFFFFFFFFFF0000000FFFFFFFFFFFFFF0
FFFFFFFFFFFFFF8000000FFFFFFFFFFFFFF0
FFFFFFFFFFFFFF8000001FFFFFFFFFFFFFF0
FFFFFFFFFFFFFF8000001FFFFFFFFFFFFFF0
FFFFFFFFFFFFFFC000001FFFFFFFFFFFFFF0
FFFFFFFFFFFFFFC000003FFFFFFFFFFFFFF0
FFFFFFFFFFFFFFE000003FFFFFFFFFFFFFF0
FFFFFFFFFFFFFFE000003FFFFFFFFFFFFFF0
FFFFFFFFFFFFFFE000007FFFFFFFFFFFFFF0
FFFFFFFFFFFFFFF000007FFFFFFFFFFFFFF0
FFFFFFFFFFFFFFF00000FFFFFFFFFFFFFFF0
FFFFFFFFFFFFFFF80000FFFFFFFFFFFFFFF0
FFFFFFFFFFFFFFF80000FFFFFFFFFFFFFFF0
FFFFFFFFFFFFFFF80001FFFFFFFFFFFFFFF0
FFFFFFFDFFFFFFFC0001FFFFFFFBFFFFFFF0
FFFFFFFDFFFFFFFC0003FFFFFFFBFFFFFFF0
FFFFFFFCFFFFFFFE0003FFFFFFF3FFFFFFF0
FFFFFFFCFFFFFFFE0003FFFFFFF3FFFFFFF0
FFFFFFFCFFFFFFFE0007FFFFFFF3FFFFFFF0
FFFFFFFC7FFFFFFF0007FFFFFFE3FFFFFFF0
FFFFFFFC7FFFFFFF000FFFFFFFE3FFFFFFF0
FFFFFFFC3FFFFFFF800FFFFFFFC3FFFFFFF0
FFFFFFFC3FFFFFFF800FFFFFFFC3FFFFFFF0
FFFFFFFC3FFFFFFF801FFFFFFFC3FFFFFFF0
FFFFFFFC1FFFFFFFC01FFFFFFF83FFFFFFF0
FFFFFFFC1FFFFFFFC03FFFFFFF83FFFFFFF0
FFFFFFFC1FFFFFFFC03FFFFFFF83FFFFFFF0
FFFFFFFC0FFFFFFFE03FFFFFFF03FFFFFFF0
FFFFFFFC0FFFFFFFE07FFFFFFF03FFFFFFF0
FFFFFFFC07FFFFFFF07FFFFFFE03FFFFFFF0
FFFFFFFC07FFFFFFF0FFFFFFFE03FFFFFFF0
FFFFFFFC07FFFFFFF0FFFFFFFE03FFFFFFF0
FFFFFFFC03FFFFFFF8FFFFFFFC03FFFFFFF0
FFFFFFFC03FFFFFFF9FFFFFFFC03FFFFFFF0
FFFFFFFC01FFFFFFFDFFFFFFFC03FFFFFFF0
FFFFFFFC01FFFFFFFFFFFFFFF803FFFFFFF0
FFFFFFFC01FFFFFFFFFFFFFFF803FFFFFFF0
FFFFFFFC00FFFFFFFFFFFFFFF803FFFFFFF0
FFFFFFFC00FFFFFFFFFFFFFFF003FFFFFFF0
FFFFFFFC00FFFFFFFFFFFFFFF003FFFFFFF0
FFFFFFFC007FFFFFFFFFFFFFE003FFFFFFF0
FFFFFFFC007FFFFFFFFFFFFFE003FFFFFFF0
FFFFFFFC003FFFFFFFFFFFFFE003FFFFFFF0
FFFFFFFC003FFFFFFFFFFFFFC003FFFFFFF0
FFFFFFFC003FFFFFFFFFFFFFC003FFFFFFF0
FFFFFFFC001FFFFFFFFFFFFFC003FFFFFFF0
FFFFFFFC001FFFFFFFFFFFFF8003FFFFFFF0
FFFFFFFC001FFFFFFFFFFFFF8003FFFFFFF0
FFFFFFFC000FFFFFFFFFFFFF8003FFFFFFF0
FFFFFFFC000FFFFFFFFFFFFF0003FFFFFFF0
FFFFFFFC000FFFFFFFFFFFFF0003FFFFFFF0
FFFFFFFC0007FFFFFFFFFFFE0003FFFFFFF0
FFFFFFFC0007FFFFFFFFFFFE0003FFFFFFF0
FFFFFFFC0003FFFFFFFFFFFE0003FFFFFFF0
FFFFFFFC0003FFFFFFFFFFFC0003FFFFFFF0
FFFFFFFC0003FFFFFFFFFFFC0003FFFFFFF0
FFFFFFFC0001FFFFFFFFFFFC0003FFFFFFF0
FFFFFFFC0001FFFFFFFFFFF80003FFFFFFF0
FFFFFFFC0000FFFFFFFFFFF80003FFFFFFF0
FFFFFFFC0000FFFFFFFFFFF80003FFFFFFF0
FFFFFFFC0000FFFFFFFFFFF00003FFFFFFF0
FFFFFFFC00007FFFFFFFFFF00003FFFFFFF0
FFFFFFFC00007FFFFFFFFFE00003FFFFFFF0
FFFFFFFC00007FFFFFFFFFE00003FFFFFFF0
FFFFFFFC00003FFFFFFFFFE00003FFFFFFF0
FFFFFFFC00003FFFFFFFFFC00003FFFFFFF0
FFFFFFFC00001FFFFFFFFFC00003FFFFFFF0
FFFFFFFC00001FFFFFFFFF800003FFFFFFF0
FFFFFFFC00001FFFFFFFFF800003FFFFFFF0
FFFFFFFC00000FFFFFFFFF800003FFFFFFF0
FFFFFFFC00000FFFFFFFFF000003FFFFFFF0
FFFFFFFC000007FFFFFFFF000003FFFFFFF0
FFFFFFFC000007FFFFFFFE000003FFFFFFF0
FFFFFFFC000003FFFFFFFE000003FFFFFFF0
FFFFFFFC000003FFFFFFFC000003FFFFFFF0
FFFFFFFC000001FFFFFFFC000003FFFFFFF0
FFFFFFFC000000FFFFFFF8000003FFFFFFF0
FFFFFFFC000000FFFFFFF0000003FFFFFFF0
FFFFFFFC0000007FFFFFE0000003FFFFFFF0
FFFFFFFC0000001FFFFF80000003FFFFFFF0
FFFFFFFC00000007FFFE00000003FFFFFFF0
FFFFFFFC00000000000000000003FFFFFFF0
FFFFFFFC00000000000000000003FFFFFFF0
FFFFFFFC00000000000000000003FFFFFFF0
FFFFFFFC00000000000000000003FFFFFFF0
FFFFFFFC00000000000000000003FFFFFFF0
FFFFFFFC00000000000000000003FFFFFFF0
FFFFFFFC00000000000000000003FFFFFFF0
FFFFFFFC00000000000000000003FFFFFFF0
FFFFFFF800000000000000000001FFFFFFF0
FFFFFFF800000000000000000001FFFFFFF0
FFFFFFF000000000000000000001FFFFFFE0
FFFFFFE000000000000000000000FFFFFFE0
FFFFFFC0000000000000000000007FFFFFC0
FFFFFF00000000000000000000003FFFFFC0
7FFFF800000000000000000000000FFFFF80
7FFF00000000000000000000000000FFFE00
ENDCHAR
STARTCHAR 004E
ENCODING 78
SWIDTH 706 0
DWIDTH 152 0
BBX 119 144 15 2
BITMAP
00FFFF0000000000000000003FFF00
07FFFFC00000000000000003FFFFE0
1FFFFFF0000000000000000FFFFFF0
3FFFFFF8000000000000003FFFFFF8
7FFFFFFC000000000000007FFFFFFC
7FFFFFFE00000000000000FFFFFFFC
7FFFFFFF00000000000000FFFFFFFC
FFFFFFFF00000000000000FFFFFFFE
FFFFFFFF80000000000001FFFFFFFE
FFFFFFFFC0000000000001FFFFFFFE
FFFFFFFFE0000000000001FFFFFFFE
FFFFFFFFE0000000000001FFFFFFFE
FFFFFFFFF0000000000001FFFFFFFE
FFFFFFFFF8000000000001FFFFFFFE
FFFFFFFFFC000000000001FFFFFFFE
FFFFFFFFFC000000000001FFFFFFFE
FFFFFFFFFE000000000001FFFFFFFE
FFFFFFFFFF000000000001FFFFFFFE
FFFFFFFFFF800000000001FFFFFFFE
FFFFFFFFFF800000000001FFFFFFFE
FFFFFFFFFFC00000000001FFFFFFFE
FFFFFFFFFFE00000000001FFFFFFFE
FFFFFFFFFFE00000000001FFFFFFFE
FFFFFFFFFFF00000000001FFFFFFFE
FFFFFFFFFFF80000000001FFFFFFFE
FFFFFFFFFFF80000000001FFFFFFFE
FFFFFFFFFFFC0000000001FFFFFFFE
FFFFFFFFFFFE0000000001FFFFFFFE
FFFFFFFFFFFF0000000001FFFFFFFE
FFFFFFFFFFFF0000000001FFFFFFFE
FFFFFFFFFFFF8000000001FFFFFFFE
FFFFFFFFFFFFC000000001FFFFFFFE
FFFFFFFFFFFFC000000001FFFFFFFE
FFFFFFFFFFFFE000000001FFFFFFFE
FFFFFFFFFFFFF000000001FFFFFFFE
FFFFFFFFFFFFF800000001FFFFFFFE
FFFFFFFFFFFFF800000001FFFFFFFE
FFFFFFFFFFFFFC00000001FFFFFFFE
FFFFFFFFFFFFFE00000001FFFFFFFE
FFFFFFFFFFFFFE00000001FFFFFFFE
FFFFFFFFFFFFFF00000001FFFFFFFE
FFFFFFFFFFFFFF80000001FFFFFFFE
FFFFFFFFFFFFFFC0000001FFFFFFFE
FFFFFFFFFFFFFFC0000001FFFFFFFE
FFFFFFFFFFFFFFE0000001FFFFFFFE
FFFFFFFFFFFFFFF0000001FFFFFFFE
FFFFFFFFFFFFFFF0000001FFFFFFFE
FFFFFFFFFFFFFFF8000001FFFFFFFE
FFFFFFFFFFFFFFFC000001FFFFFFFE
FFFFFFFFFFFFFFFE000001FFFFFFFE
FFFFFFFFFFFFFFFE000001FFFFFFFE
FFFFFFFFFFFFFFFF000001FFFFFFFE
FFFFFFFFFFFFFFFF800001FFFFFFFE
FFFFFFFFFFFFFFFF800001FFFFFFFE
FFFFFFFFFFFFFFFFC00001FFFFFFFE
FFFFFFFFFFFFFFFFE00001FFFFFFFE
FFFFFFFFFFFFFFFFE00001FFFFFFFE
FFFFFFFFFFFFFFFFF00001FFFFFFFE
FFFFFFFFFFFFFFFFF80001FFFFFFFE
FFFFFFFFFFFFFFFFFC0001FFFFFFFE
FFFFFFFFFFFFFFFFFC0001FFFFFFFE
FFFFFFFF7FFFFFFFFE0001FFFFFFFE
FFFFFFFF7FFFFFFFFF0001FFFFFFFE
FFFFFFFF3FFFFFFFFF0001FFFFFFFE
FFFFFFFF1FFFFFFFFF8001FFFFFFFE
FFFFFFFF1FFFFFFFFFC001FFFFFFFE
FFFFFFFF0FFFFFFFFFE001FFFFFFFE
FFFFFFFF07FFFFFFFFE001FFFFFFFE
FFFFFFFF07FFFFFFFFF001FFFFFFFE
FFFFFFFF03FFFFFFFFF801FFFFFFFE
FFFFFFFF01FFFFFFFFF801FFFFFFFE
FFFFFFFF00FFFFFFFFFC01FFFFFFFE
FFFFFFFF00FFFFFFFFFE01FFFFFFFE
FFFFFFFF007FFFFFFFFF01FFFFFFFE
FFFFFFFF003FFFFFFFFF01FFFFFFFE
FFFFFFFF003FFFFFFFFF81FFFFFFFE
FFFFFFFF001FFFFFFFFFC1FFFFFFFE
FFFFFFFF000FFFFFFFFFC1FFFFFFFE
FFFFFFFF000FFFFFFFFFE1FFFFFFFE
FFFFFFFF0007FFFFFFFFF1FFFFFFFE
FFFFFFFF0003FFFFFFFFF1FFFFFFFE
FFFFFFFF0001FFFFFFFFF9FFFFFFFE
FFFFFFFF0001FFFFFFFFFDFFFFFFFE
FFFFFFFF0000FFFFFFFFFFFFFFFFFE
FFFFFFFF00007FFFFFFFFFFFFFFFFE
FFFFFFFF00007FFFFFFFFFFFFFFFFE
FFFFFFFF00003FFFFFFFFFFFFFFFFE
FFFFFFFF00001FFFFFFFFFFFFFFFFE
FFFFFFFF00001FFFFFFFFFFFFFFFFE
FFFFFFFF00000FFFFFFFFFFFFFFFFE
FFFFFFFF000007FFFFFFFFFFFFFFFE
FFFFFFFF000007FFFFFFFFFFFFFFFE
FFFFFFFF000003FFFFFFFFFFFFFFFE
FFFFFFFF000001FFFFFFFFFFFFFFFE
FFFFFFFF000000FFFFFFFFFFFFFFFE
FFFFFFFF000000FFFFFFFFFFFFFFFE
FFFFFFFF0000007FFFFFFFFFFFFFFE
FFFFFFFF0000003FFFFFFFFFFFFFFE
FFFFFFFF0000003FFFFFFFFFFFFFFE
FFFFFFFF0000001FFFFFFFFFFFFFFE
FFFFFFFF0000000FFFFFFFFFFFFFFE
FFFFFFFF00000007FFFFFFFFFFFFFE
FFFFFFFF00000007FFFFFFFFFFFFFE
FFFFFFFF00000003FFFFFFFFFFFFFE
FFFFFFFF00000001FFFFFFFFFFFFFE
FFFFFFFF00000001FFFFFFFFFFFFFE
FFFFFFFF00000000FFFFFFFFFFFFFE
FFFFFFFF000000007FFFFFFFFFFFFE
FFFFFFFF000000003FFFFFFFFFFFFE
FFFFFFFF000000003FFFFFFFFFFFFE
FFFFFFFF000000001FFFFFFFFFFFFE
FFFFFFFF000000000FFFFFFFFFFFFE
FFFFFFFF000000000FFFFFFFFFFFFE
FFFFFFFF0000000007FFFFFFFFFFFE
FFFFFFFF0000000003FFFFFFFFFFFE
FFFFFFFF0000000001FFFFFFFFFFFE
FFFFFFFF0000000001FFFFFFFFFFFE
FFFFFFFF0000000000FFFFFFFFFFFE
FFFFFFFF00000000007FFFFFFFFFFE
FFFFFFFF00000000007FFFFFFFFFFE
FFFFFFFF00000000003FFFFFFFFFFE
FFFFFFFF00000000001FFFFFFFFFFE
FFFFFFFF00000000000FFFFFFFFFFE
FFFFFFFF00000000000FFFFFFFFFFE
FFFFFFFF000000000007FFFFFFFFFE
FFFFFFFF000000000003FFFFFFFFFE
FFFFFFFF000000000003FFFFFFFFFE
FFFFFFFF000000000001FFFFFFFFFE
FFFFFFFF000000000000FFFFFFFFFE
FFFFFFFF0000000000007FFFFFFFFE
FFFFFFFF0000000000007FFFFFFFFE
FFFFFFFF0000000000003FFFFFFFFE
FFFFFFFF0000000000001FFFFFFFFE
FFFFFFFF0000000000000FFFFFFFFE
FFFFFFFF0000000000000FFFFFFFFE
FFFFFFFF00000000000007FFFFFFFE
FFFFFFFE00000000000003FFFFFFFC
7FFFFFFE00000000000001FFFFFFFC
7FFFFFFE00000000000000FFFFFFFC
3FFFFFFC00000000000000FFFFFFF8
3FFFFFF8000000000000007FFFFFF0
1FFFFFF0000000000000001FFFFFE0
07FFFFC0000000000000000FFFFFC0
00FFFC000000000000000001FFFC00
ENDCHAR
STARTCHAR 004F
ENCODING 79
SWIDTH 706 0
DWIDTH 152 0
BBX 125 144 12 0
BITMAP
00000000000007FFFF00000000000000
000000000003FFFFFFFE000000000000
00000000007FFFFFFFFFF00000000000
0000000003FFFFFFFFFFFE0000000000
000000001FFFFFFFFFFFFFC000000000
000000007FFFFFFFFFFFFFF000000000
00000003FFFFFFFFFFFFFFFE00000000
00000007FFFFFFFFFFFFFFFF80000000
0000001FFFFFFFFFFFFFFFFFC0000000
0000007FFFFFFFFFFFFFFFFFF0000000
000000FFFFFFFFFFFFFFFFFFF8000000
000003FFFFFFFFFFFFFFFFFFFE000000
000007FFFFFFFFFFFFFFFFFFFF000000
00000FFFFFFFFFFFFFFFFFFFFF800000
00001FFFFFFFFFFFFFFFFFFFFFC00000
00003FFFFFFFFFFFFFFFFFFFFFE00000
00007FFFFFFFFFFFFFFFFFFFFFF00000
0000FFFFFFFFFFFFFFFFFFFFFFF80000
0001FFFFFFFFFFFFFFFFFFFFFFFC0000
0003FFFFFFFFFFFFFFFFFFFFFFFE0000
0007FFFFFFFFFFFFFFFFFFFFFFFF0000
0007FFFFFFFFFFFFFFFFFFFFFFFF0000
000FFFFFFFFFFFFFFFFFFFFFFFFF8000
001FFFFFFFFFFFFFFFFFFFFFFFFFC000
001FFFFFFFFFFFFFFFFFFFFFFFFFC000
003FFFFFFFFFFFFFFFFFFFFFFFFFE000
003FFFFFFFFFFFFFFFFFFFFFFFFFE000
007FFFFFFFFFFFFFFFFFFFFFFFFFF000
007FFFFFFFFFFFFFFFFFFFFFFFFFF800
00FFFFFFFFFFFF801FFFFFFFFFFFF800
00FFFFFFFFFFE000003FFFFFFFFFFC00
01FFFFFFFFFF00000007FFFFFFFFFC00
01FFFFFFFFFC00000001FFFFFFFFFC00
03FFFFFFFFF0000000007FFFFFFFFE00
03FFFFFFFFE0000000003FFFFFFFFE00
03FFFFFFFF80000000000FFFFFFFFF00
07FFFFFFFF00000000000FFFFFFFFF00
07FFFFFFFF000000000007FFFFFFFF00
07FFFFFFFE000000000003FFFFFFFF80
0FFFFFFFFC000000000001FFFFFFFF80
0FFFFFFFFC000000000001FFFFFFFF80
0FFFFFFFF8000000000000FFFFFFFF80
1FFFFFFFF8000000000000FFFFFFFFC0
1FFFFFFFF8000000000000FFFFFFFFC0
1FFFFFFFF00000000000007FFFFFFFC0
1FFFFFFFF00000000000007FFFFFFFC0
3FFFFFFFF00000000000007FFFFFFFE0
3FFFFFFFF00000000000007FFFFFFFE0
3FFFFFFFE00000000000003FFFFFFFE0
3FFFFFFFE00000000000003FFFFFFFE0
3FFFFFFFE00000000000003FFFFFFFE0
3FFFFFFFE00000000000003FFFFFFFF0
7FFFFFFFE00000000000003FFFFFFFF0
7FFFFFFFE00000000000003FFFFFFFF0
7FFFFFFFE00000000000003FFFFFFFF0
7FFFFFFFE00000000000003FFFFFFFF0
7FFFFFFFC00000000000001FFFFFFFF0
7FFFFFFFC00000000000001FFFFFFFF0
7FFFFFFFC00000000000001FFFFFFFF0
7FFFFFFFC00000000000001FFFFFFFF8
FFFFFFFFC00000000000001FFFFFFFF8
FFFFFFFFC00000000000001FFFFFFFF8
FFFFFFFFC00000000000001FFFFFFFF8
FFFFFFFFC00000000000001FFFFFFFF8
FFFFFFFFC00000000000001FFFFFFFF8
FFFFFFFFC00000000000001FFFFFFFF8
FFFFFFFFC00000000000001FFFFFFFF8
FFFFFFFFC00000000000001FFFFFFFF8
FFFFFFFFC00000000000001FFFFFFFF8
FFFFFFFFC00000000000001FFFFFFFF8
FFFFFFFFC00000000000001FFFFFFFF8
FFFFFFFFC00000000000001FFFFFFFF8
FFFFFFFFC00000000000001FFFFFFFF8
FFFFFFFFC00000000000001FFFFFFFF8
FFFFFFFFC00000000000001FFFFFFFF8
FFFFFFFFC00000000000001FFFFFFFF8
FFFFFFFFC00000000000001FFFFFFFF8
FFFFFFFFC00000000000001FFFFFFFF8
FFFFFFFFC00000000000001FFFFFFFF8
FFFFFFFFC00000000000001FFFFFFFF8
FFFFFFFFC00000000000001FFFFFFFF8
FFFFFFFFC00000000000001FFFFFFFF8
FFFFFFFFC00000000000001FFFFFFFF8
FFFFFFFFC00000000000001FFFFFFFF8
7FFFFFFFC00000000000001FFFFFFFF8
7FFFFFFFC00000000000001FFFFFFFF0
7FFFFFFFC00000000000001FFFFFFFF0
7FFFFFFFE00000000000001FFFFFFFF0
7FFFFFFFE00000000000003FFFFFFFF0
7FFFFFFFE00000000000003FFFFFFFF0
7FFFFFFFE00000000000003FFFFFFFF0
7FFFFFFFE00000000000003FFFFFFFF0
3FFFFFFFE00000000000003FFFFFFFF0
3FFFFFFFE00000000000003FFFFFFFE0
3FFFFFFFE00000000000003FFFFFFFE0
3FFFFFFFF00000000000003FFFFFFFE0
3FFFFFFFF00000000000007FFFFFFFE0
3FFFFFFFF00000000000007FFFFFFFE0
1FFFFFFFF00000000000007FFFFFFFC0
1FFFFFFFF00000000000007FFFFFFFC0
1FFFFFFFF8000000000000FFFFFFFFC0
1FFFFFFFF8000000000000FFFFFFFFC0
0FFFFFFFF8000000000000FFFFFFFF80
0FFFFFFFFC000000000001FFFFFFFF80
0FFFFFFFFE000000000001FFFFFFFF80
07FFFFFFFE000000000003FFFFFFFF80
07FFFFFFFF000000000007FFFFFFFF00
07FFFFFFFF80000000000FFFFFFFFF00
03FFFFFFFFC0000000001FFFFFFFFE00
03FFFFFFFFE0000000003FFFFFFFFE00
03FFFFFFFFF0000000007FFFFFFFFE00
01FFFFFFFFFC00000001FFFFFFFFFC00
01FFFFFFFFFF00000007FFFFFFFFFC00
00FFFFFFFFFFE000003FFFFFFFFFF800
00FFFFFFFFFFFFC01FFFFFFFFFFFF800
007FFFFFFFFFFFFFFFFFFFFFFFFFF000
007FFFFFFFFFFFFFFFFFFFFFFFFFF000
003FFFFFFFFFFFFFFFFFFFFFFFFFE000
003FFFFFFFFFFFFFFFFFFFFFFFFFE000
001FFFFFFFFFFFFFFFFFFFFFFFFFC000
001FFFFFFFFFFFFFFFFFFFFFFFFF8000
000FFFFFFFFFFFFFFFFFFFFFFFFF8000
0007FFFFFFFFFFFFFFFFFFFFFFFF0000
0003FFFFFFFFFFFFFFFFFFFFFFFE0000
0003FFFFFFFFFFFFFFFFFFFFFFFE0000
0001FFFFFFFFFFFFFFFFFFFFFFFC0000
0000FFFFFFFFFFFFFFFFFFFFFFF80000
00007FFFFFFFFFFFFFFFFFFFFFF00000
00003FFFFFFFFFFFFFFFFFFFFFE00000
00001FFFFFFFFFFFFFFFFFFFFFC00000
00000FFFFFFFFFFFFFFFFFFFFF800000
000007FFFFFFFFFFFFFFFFFFFF000000
000003FFFFFFFFFFFFFFFFFFFC000000
000000FFFFFFFFFFFFFFFFFFF8000000
0000007FFFFFFFFFFFFFFFFFF0000000
0000001FFFFFFFFFFFFFFFFFC0000000
00000007FFFFFFFFFFFFFFFF00000000
00000003FFFFFFFFFFFFFFFC00000000
000000007FFFFFFFFFFFFFF000000000
000000001FFFFFFFFFFFFFC000000000
0000000003FFFFFFFFFFFE0000000000
00000000007FFFFFFFFFE00000000000
000000000003FFFFFFFE000000000000
0000000000000FFFFF00000000000000
ENDCHAR
STARTCHAR 0050
ENCODING 80
SWIDTH 603 0
DWIDTH 130 0
BBX 101 144 15 0
BITMAP
00FFFFFFFFFFFFFFE000000000
07FFFFFFFFFFFFFFFF80000000
1FFFFFFFFFFFFFFFFFF0000000
3FFFFFFFFFFFFFFFFFFE000000
3FFFFFFFFFFFFFFFFFFF800000
7FFFFFFFFFFFFFFFFFFFE00000
7FFFFFFFFFFFFFFFFFFFF00000
FFFFFFFFFFFFFFFFFFFFFC0000
FFFFFFFFFFFFFFFFFFFFFE0000
FFFFFFFFFFFFFFFFFFFFFF0000
FFFFFFFFFFFFFFFFFFFFFF8000
FFFFFFFFFFFFFFFFFFFFFFC000
FFFFFFFFFFFFFFFFFFFFFFE000
FFFFFFFFFFFFFFFFFFFFFFF000
FFFFFFFFFFFFFFFFFFFFFFF800
FFFFFFFFFFFFFFFFFFFFFFF800
FFFFFFFFFFFFFFFFFFFFFFFC00
FFFFFFFFFFFFFFFFFFFFFFFE00
FFFFFFFFFFFFFFFFFFFFFFFE00
FFFFFFFFFFFFFFFFFFFFFFFF00
FFFFFFFFFFFFFFFFFFFFFFFF00
FFFFFFFFFFFFFFFFFFFFFFFF80
FFFFFFFFFFFFFFFFFFFFFFFF80
FFFFFFFFFFFFFFFFFFFFFFFF80
FFFFFFFFFFFFFFFFFFFFFFFFC0
FFFFFFFFFFFFFFFFFFFFFFFFC0
FFFFFFFFFFFFFFFFFFFFFFFFC0
FFFFFFFFFFFFFFFFFFFFFFFFE0
FFFFFFFFFFFFFFFFFFFFFFFFE0
FFFFFFFF80000003FFFFFFFFE0
FFFFFFFF800000007FFFFFFFE0
FFFFFFFF800000003FFFFFFFF0
FFFFFFFF800000003FFFFFFFF0
FFFFFFFF800000001FFFFFFFF0
FFFFFFFF800000001FFFFFFFF0
FFFFFFFF800000001FFFFFFFF0
FFFFFFFF800000001FFFFFFFF0
FFFFFFFF800000000FFFFFFFF8
FFFFFFFF800000000FFFFFFFF8
FFFFFFFF800000000FFFFFFFF8
FFFFFFFF800000000FFFFFFFF8
FFFFFFFF800000000FFFFFFFF8
FFFFFFFF800000000FFFFFFFF8
FFFFFFFF800000000FFFFFFFF8
FFFFFFFF800000000FFFFFFFF8
FFFFFFFF800000000FFFFFFFF8
FFFFFFFF800000000FFFFFFFF8
FFFFFFFF800000000FFFFFFFF8
FFFFFFFF800000000FFFFFFFF8
FFFFFFFF800000000FFFFFFFF8
FFFFFFFF800000000FFFFFFFF8
FFFFFFFF800000000FFFFFFFF8
FFFFFFFF800000000FFFFFFFF8
FFFFFFFF800000000FFFFFFFF8
FFFFFFFF800000000FFFFFFFF8
FFFFFFFF800000000FFFFFFFF8
FFFFFFFF800000000FFFFFFFF8
FFFFFFFF800000000FFFFFFFF8
FFFFFFFF800000000FFFFFFFF8
FFFFFFFF800000000FFFFFFFF8
FFFFFFFF800000000FFFFFFFF8
FFFFFFFF800000000FFFFFFFF8
FFFFFFFF800000000FFFFFFFF8
FFFFFFFF800000000FFFFFFFF8
FFFFFFFF800000001FFFFFFFF0
FFFFFFFF800000001FFFFFFFF0
FFFFFFFF800000001FFFFFFFF0
FFFFFFFF800000003FFFFFFFF0
FFFFFFFF800000007FFFFFFFF0
FFFFFFFF80000003FFFFFFFFE0
FFFFFFFFFFFFFFFFFFFFFFFFE0
FFFFFFFFFFFFFFFFFFFFFFFFE0
FFFFFFFFFFFFFFFFFFFFFFFFE0
FFFFFFFFFFFFFFFFFFFFFFFFC0
FFFFFFFFFFFFFFFFFFFFFFFFC0
FFFFFFFFFFFFFFFFFFFFFFFFC0
FFFFFFFFFFFFFFFFFFFFFFFF80
FFFFFFFFFFFFFFFFFFFFFFFF80
FFFFFFFFFFFFFFFFFFFFFFFF00
FFFFFFFFFFFFFFFFFFFFFFFF00
FFFFFFFFFFFFFFFFFFFFFFFE00
FFFFFFFFFFFFFFFFFFFFFFFE00
FFFFFFFFFFFFFFFFFFFFFFFC00
FFFFFFFFFFFFFFFFFFFFFFF800
FFFFFFFFFFFFFFFFFFFFFFF000
FFFFFFFFFFFFFFFFFFFFFFE000
FFFFFFFFFFFFFFFFFFFFFFE000
FFFFFFFFFFFFFFFFFFFFFFC000
FFFFFFFFFFFFFFFFFFFFFF0000
FFFFFFFFFFFFFFFFFFFFFE0000
FFFFFFFFFFFFFFFFFFFFFC0000
FFFFFFFFFFFFFFFFFFFFF00000
FFFFFFFFFFFFFFFFFFFFC00000
FFFFFFFFFFFFFFFFFFFF000000
FFFFFFFFFFFFFFFFFFF8000000
FFFFFFFFFFFFFFFFFFC0000000
FFFFFFFFFFFFFFFFFC00000000
FFFFFFFFFFFFFFFF0000000000
FFFFFFFFFFFFFC000000000000
FFFFFFFF800000000000000000
FFFFFFFF800000000000000000
FFFFFFFF800000000000000000
FFFFFFFF800000000000000000
FFFFFFFF800000000000000000
FFFFFFFF800000000000000000
FFFFFFFF800000000000000000
FFFFFFFF800000000000000000
FFFFFFFF800000000000000000
FFFFFFFF800000000000000000
FFFFFFFF800000000000000000
FFFFFFFF800000000000000000
FFFFFFFF800000000000000000
FFFFFFFF800000000000000000
FFFFFFFF800000000000000000
FFFFFFFF800000000000000000
FFFFFFFF800000000000000000
FFFFFFFF800000000000000000
FFFFFFFF800000000000000000
FFFFFFFF800000000000000000
FFFFFFFF800000000000000000
FFFFFFFF800000000000000000
FFFFFFFF800000000000000000
FFFFFFFF800000000000000000
FFFFFFFF800000000000000000
FFFFFFFF800000000000000000
FFFFFFFF800000000000000000
FFFFFFFF800000000000000000
FFFFFFFF800000000000000000
FFFFFFFF800000000000000000
FFFFFFFF800000000000000000
FFFFFFFF800000000000000000
FFFFFFFF800000000000000000
FFFFFFFF800000000000000000
FFFFFFFF800000000000000000
FFFFFFFF800000000000000000
FFFFFFFF800000000000000000
FFFFFFFF000000000000000000
7FFFFFFF000000000000000000
7FFFFFFE000000000000000000
3FFFFFFE000000000000000000
3FFFFFFC000000000000000000
1FFFFFF0000000000000000000
07FFFFC0000000000000000000
00FFFC00000000000000000000
ENDCHAR
STARTCHAR 0051
ENCODING 81
SWIDTH 706 0
DWIDTH 152 0
BBX 125 181 12 -37
BITMAP
00000000000007FFFF00000000000000
000000000003FFFFFFFE000000000000
00000000003FFFFFFFFFE00000000000
0000000003FFFFFFFFFFFE0000000000
000000000FFFFFFFFFFFFFC000000000
000000007FFFFFFFFFFFFFF000000000
00000001FFFFFFFFFFFFFFFC00000000
00000007FFFFFFFFFFFFFFFF00000000
0000001FFFFFFFFFFFFFFFFFC0000000
0000003FFFFFFFFFFFFFFFFFE0000000
000000FFFFFFFFFFFFFFFFFFF8000000
000001FFFFFFFFFFFFFFFFFFFC000000
000003FFFFFFFFFFFFFFFFFFFE000000
000007FFFFFFFFFFFFFFFFFFFF000000
00000FFFFFFFFFFFFFFFFFFFFFC00000
00001FFFFFFFFFFFFFFFFFFFFFE00000
00003FFFFFFFFFFFFFFFFFFFFFF00000
00007FFFFFFFFFFFFFFFFFFFFFF00000
0000FFFFFFFFFFFFFFFFFFFFFFF80000
0001FFFFFFFFFFFFFFFFFFFFFFFC0000
0003FFFFFFFFFFFFFFFFFFFFFFFE0000
0007FFFFFFFFFFFFFFFFFFFFFFFF0000
0007FFFFFFFFFFFFFFFFFFFFFFFF0000
000FFFFFFFFFFFFFFFFFFFFFFFFF8000
001FFFFFFFFFFFFFFFFFFFFFFFFFC000
001FFFFFFFFFFFFFFFFFFFFFFFFFC000
003FFFFFFFFFFFFFFFFFFFFFFFFFE000
003FFFFFFFFFFFFFFFFFFFFFFFFFE000
007FFFFFFFFFFFFFFFFFFFFFFFFFF000
007FFFFFFFFFFFE07FFFFFFFFFFFF000
00FFFFFFFFFFF00000FFFFFFFFFFF800
00FFFFFFFFFF8000000FFFFFFFFFF800
01FFFFFFFFFE00000003FFFFFFFFFC00
01FFFFFFFFF800000000FFFFFFFFFC00
03FFFFFFFFF0000000007FFFFFFFFE00
03FFFFFFFFC0000000003FFFFFFFFE00
03FFFFFFFF80000000001FFFFFFFFE00
07FFFFFFFF80000000000FFFFFFFFF00
07FFFFFFFF000000000007FFFFFFFF00
07FFFFFFFE000000000003FFFFFFFF00
0FFFFFFFFC000000000003FFFFFFFF80
0FFFFFFFFC000000000001FFFFFFFF80
0FFFFFFFFC000000000001FFFFFFFF80
0FFFFFFFF8000000000000FFFFFFFFC0
1FFFFFFFF8000000000000FFFFFFFFC0
1FFFFFFFF8000000000000FFFFFFFFC0
1FFFFFFFF00000000000007FFFFFFFC0
1FFFFFFFF00000000000007FFFFFFFC0
3FFFFFFFF00000000000007FFFFFFFE0
3FFFFFFFF00000000000007FFFFFFFE0
3FFFFFFFE00000000000003FFFFFFFE0
3FFFFFFFE00000000000003FFFFFFFE0
3FFFFFFFE00000000000003FFFFFFFE0
3FFFFFFFE00000000000003FFFFFFFF0
7FFFFFFFE00000000000003FFFFFFFF0
7FFFFFFFE00000000000003FFFFFFFF0
7FFFFFFFE00000000000003FFFFFFFF0
7FFFFFFFE00000000000003FFFFFFFF0
7FFFFFFFE00000000000001FFFFFFFF0
7FFFFFFFC00000000000001FFFFFFFF0
7FFFFFFFC00000000000001FFFFFFFF0
7FFFFFFFC00000000000001FFFFFFFF0
7FFFFFFFC00000000000001FFFFFFFF8
FFFFFFFFC00000000000001FFFFFFFF8
FFFFFFFFC00000000000001FFFFFFFF8
FFFFFFFFC00000000000001FFFFFFFF8
FFFFFFFFC00000000000001FFFFFFFF8
FFFFFFFFC00000000000001FFFFFFFF8
FFFFFFFFC00000000000001FFFFFFFF8
FFFFFFFFC00000000000001FFFFFFFF8
FFFFFFFFC00000000000001FFFFFFFF8
FFFFFFFFC00000000000001FFFFFFFF8
FFFFFFFFC00000000000001FFFFFFFF8
FFFFFFFFC00000000000001FFFFFFFF8
FFFFFFFFC00000000000001FFFFFFFF8
FFFFFFFFC00000000000001FFFFFFFF8
FFFFFFFFC00000000000001FFFFFFFF8
FFFFFFFFC00000000000001FFFFFFFF8
FFFFFFFFC00000000000001FFFFFFFF8
FFFFFFFFC00000000000001FFFFFFFF8
FFFFFFFFC00000000000001FFFFFFFF8
FFFFFFFFC00000000000001FFFFFFFF8
FFFFFFFFC00000000000001FFFFFFFF8
FFFFFFFFC00000000000001FFFFFFFF8
FFFFFFFFC00000000000001FFFFFFFF8
FFFFFFFFC00000000000001FFFFFFFF8
FFFFFFFFC00000000000001FFFFFFFF8
FFFFFFFFC00000000000001FFFFFFFF8
FFFFFFFFC00000000000001FFFFFFFF8
FFFFFFFFC00000000000001FFFFFFFF8
7FFFFFFFC00000000000001FFFFFFFF8
7FFFFFFFC00000000000001FFFFFFFF0
7FFFFFFFE00000000000001FFFFFFFF0
7FFFFFFFE00000000000003FFFFFFFF0
7FFFFFFFE00000000000003FFFFFFFF0
7FFFFFFFE00000000000003FFFFFFFF0
7FFFFFFFE00000000000003FFFFFFFF0
7FFFFFFFE00000000000003FFFFFFFF0
7FFFFFFFE00000000000003FFFFFFFF0
3FFFFFFFE00000000000003FFFFFFFE0
3FFFFFFFE00000000000003FFFFFFFE0
3FFFFFFFF00000000000003FFFFFFFE0
3FFFFFFFF00000000000007FFFFFFFE0
3FFFFFFFF00000000000007FFFFFFFE0
1FFFFFFFF00000000000007FFFFFFFC0
1FFFFFFFF00000000000007FFFFFFFC0
1FFFFFFFF8000000000000FFFFFFFFC0
1FFFFFFFF8000000000000FFFFFFFFC0
0FFFFFFFF8000000000000FFFFFFFF80
0FFFFFFFFC000000000001FFFFFFFF80
0FFFFFFFFC000000000001FFFFFFFF80
0FFFFFFFFE000000000003FFFFFFFF80
07FFFFFFFF000000000003FFFFFFFF00
07FFFFFFFF000000000007FFFFFFFF00
03FFFFFFFF80000000000FFFFFFFFF00
03FFFFFFFFC0000000001FFFFFFFFE00
03FFFFFFFFE0000000003FFFFFFFFE00
01FFFFFFFFF8000000007FFFFFFFFC00
01FFFFFFFFFC00000001FFFFFFFFFC00
00FFFFFFFFFF00000007FFFFFFFFF800
00FFFFFFFFFFE000003FFFFFFFFFF800
007FFFFFFFFFFF0007FFFFFFFFFFF000
007FFFFFFFFFFFFFFFFFFFFFFFFFF000
003FFFFFFFFFFFFFFFFFFFFFFFFFE000
003FFFFFFFFFFFFFFFFFFFFFFFFFE000
001FFFFFFFFFFFFFFFFFFFFFFFFFC000
000FFFFFFFFFFFFFFFFFFFFFFFFF8000
000FFFFFFFFFFFFFFFFFFFFFFFFF8000
0007FFFFFFFFFFFFFFFFFFFFFFFF0000
0003FFFFFFFFFFFFFFFFFFFFFFFE0000
0003FFFFFFFFFFFFFFFFFFFFFFFC0000
0001FFFFFFFFFFFFFFFFFFFFFFFC0000
0000FFFFFFFFFFFFFFFFFFFFFFF80000
00007FFFFFFFFFFFFFFFFFFFFFF00000
00003FFFFFFFFFFFFFFFFFFFFFE00000
00001FFFFFFFFFFFFFFFFFFFFFC00000
00000FFFFFFFFFFFFFFFFFFFFF800000
000007FFFFFFFFFFFFFFFFFFFF000000
000003FFFFFFFFFFFFFFFFFFFE000000
000001FFFFFFFFFFFFFFFFFFF8000000
0000007FFFFFFFFFFFFFFFFFF0000000
0000003FFFFFFFFFFFFFFFFFE0000000
0000000FFFFFFFFFFFFFFFFF80000000
00000007FFFFFFFFFFFFFFFE00000000
00000001FFFFFFFFFFFFFFF800000000
000000007FFFFFFFFFFFFFE000000000
000000000FFFFFFFFFFFFF8000000000
0000000001FFFFFFFFFFFC0000000000
00000000003FFFFFFFFFE00000000000
000000000007FFFFFFFF800000000000
000000000007FFFFFFFFF00000000000
000000000007FFFFFFFFFFC000000000
000000000007FFFFFFFFFFFFFFF00000
000000000003FFFFFFFFFFFFFFFC0000
000000000003FFFFFFFFFFFFFFFE0000
000000000003FFFFFFFFFFFFFFFF0000
000000000001FFFFFFFFFFFFFFFF0000
000000000001FFFFFFFFFFFFFFFF8000
000000000000FFFFFFFFFFFFFFFF8000
000000000000FFFFFFFFFFFFFFFF8000
0000000000007FFFFFFFFFFFFFFF8000
0000000000007FFFFFFFFFFFFFFF8000
0000000000003FFFFFFFFFFFFFFF8000
0000000000003FFFFFFFFFFFFFFF8000
0000000000001FFFFFFFFFFFFFFF8000
0000000000000FFFFFFFFFFFFFFF8000
0000000000000FFFFFFFFFFFFFFF8000
00000000000007FFFFFFFFFFFFFF8000
00000000000003FFFFFFFFFFFFFF8000
00000000000001FFFFFFFFFFFFFF8000
00000000000000FFFFFFFFFFFFFF8000
000000000000007FFFFFFFFFFFFF8000
000000000000001FFFFFFFFFFFFF8000
000000000000000FFFFFFFFFFFFF8000
0000000000000003FFFFFFFFFFFF8000
0000000000000000FFFFFFFFFFFF0000
00000000000000003FFFFFFFFFFE0000
000000000000000007FFFFFFFFFC0000
000000000000000000FFFFFFFFF80000
0000000000000000000FFFFFFFE00000
000000000000000000001FFFFC000000
ENDCHAR
STARTCHAR 0052
ENCODING 82
SWIDTH 631 0
DWIDTH 136 0
BBX 109 144 15 0
BITMAP
00FFFFFFFFFFFFFFE00000000000
07FFFFFFFFFFFFFFFF8000000000
1FFFFFFFFFFFFFFFFFF800000000
3FFFFFFFFFFFFFFFFFFE00000000
3FFFFFFFFFFFFFFFFFFF80000000
7FFFFFFFFFFFFFFFFFFFE0000000
7FFFFFFFFFFFFFFFFFFFF8000000
FFFFFFFFFFFFFFFFFFFFFC000000
FFFFFFFFFFFFFFFFFFFFFF000000
FFFFFFFFFFFFFFFFFFFFFF800000
FFFFFFFFFFFFFFFFFFFFFFC00000
FFFFFFFFFFFFFFFFFFFFFFE00000
FFFFFFFFFFFFFFFFFFFFFFF00000
FFFFFFFFFFFFFFFFFFFFFFF80000
FFFFFFFFFFFFFFFFFFFFFFF80000
FFFFFFFFFFFFFFFFFFFFFFFC0000
FFFFFFFFFFFFFFFFFFFFFFFE0000
FFFFFFFFFFFFFFFFFFFFFFFE0000
FFFFFFFFFFFFFFFFFFFFFFFF0000
FFFFFFFFFFFFFFFFFFFFFFFF0000
FFFFFFFFFFFFFFFFFFFFFFFF8000
FFFFFFFFFFFFFFFFFFFFFFFF8000
FFFFFFFFFFFFFFFFFFFFFFFFC000
FFFFFFFFFFFFFFFFFFFFFFFFC000
FFFFFFFFFFFFFFFFFFFFFFFFC000
FFFFFFFFFFFFFFFFFFFFFFFFE000
FFFFFFFFFFFFFFFFFFFFFFFFE000
FFFFFFFFFFFFFFFFFFFFFFFFE000
FFFFFFFFFFFFFFFFFFFFFFFFF000
FFFFFFFF80000001FFFFFFFFF000
FFFFFFFF800000007FFFFFFFF000
FFFFFFFF800000003FFFFFFFF000
FFFFFFFF800000001FFFFFFFF000
FFFFFFFF800000001FFFFFFFF800
FFFFFFFF800000000FFFFFFFF800
FFFFFFFF800000000FFFFFFFF800
FFFFFFFF800000000FFFFFFFF800
FFFFFFFF800000000FFFFFFFF800
FFFFFFFF800000000FFFFFFFF800
FFFFFFFF8000000007FFFFFFF800
FFFFFFFF8000000007FFFFFFFC00
FFFFFFFF8000000007FFFFFFFC00
FFFFFFFF8000000007FFFFFFFC00
FFFFFFFF8000000007FFFFFFFC00
FFFFFFFF8000000007FFFFFFFC00
FFFFFFFF8000000007FFFFFFFC00
FFFFFFFF8000000007FFFFFFFC00
FFFFFFFF8000000007FFFFFFFC00
FFFFFFFF8000000007FFFFFFFC00
FFFFFFFF8000000007FFFFFFFC00
FFFFFFFF8000000007FFFFFFFC00
FFFFFFFF8000000007FFFFFFFC00
FFFFFFFF8000000007FFFFFFFC00
FFFFFFFF8000000007FFFFFFFC00
FFFFFFFF8000000007FFFFFFFC00
FFFFFFFF8000000007FFFFFFFC00
FFFFFFFF8000000007FFFFFFFC00
FFFFFFFF8000000007FFFFFFFC00
FFFFFFFF800000000FFFFFFFFC00
FFFFFFFF800000000FFFFFFFFC00
FFFFFFFF800000000FFFFFFFFC00
FFFFFFFF800000001FFFFFFFF800
FFFFFFFF800000003FFFFFFFF800
FFFFFFFF80000000FFFFFFFFF800
FFFFFFFF8000003FFFFFFFFFF800
FFFFFFFFFFFFFFFFFFFFFFFFF800
FFFFFFFFFFFFFFFFFFFFFFFFF000
FFFFFFFFFFFFFFFFFFFFFFFFF000
FFFFFFFFFFFFFFFFFFFFFFFFF000
FFFFFFFFFFFFFFFFFFFFFFFFF000
FFFFFFFFFFFFFFFFFFFFFFFFE000
FFFFFFFFFFFFFFFFFFFFFFFFE000
FFFFFFFFFFFFFFFFFFFFFFFFE000
FFFFFFFFFFFFFFFFFFFFFFFFC000
FFFFFFFFFFFFFFFFFFFFFFFFC000
FFFFFFFFFFFFFFFFFFFFFFFF8000
FFFFFFFFFFFFFFFFFFFFFFFF8000
FFFFFFFFFFFFFFFFFFFFFFFF0000
FFFFFFFFFFFFFFFFFFFFFFFE0000
FFFFFFFFFFFFFFFFFFFFFFFE0000
FFFFFFFFFFFFFFFFFFFFFFFC0000
FFFFFFFFFFFFFFFFFFFFFFF80000
FFFFFFFFFFFFFFFFFFFFFFF00000
FFFFFFFFFFFFFFFFFFFFFFE00000
FFFFFFFFFFFFFFFFFFFFFFC00000
FFFFFFFFFFFFFFFFFFFFFF800000
FFFFFFFFFFFFFFFFFFFFFF000000
FFFFFFFFFFFFFFFFFFFFFC000000
FFFFFFFFFFFFFFFFFFFFF8000000
FFFFFFFFFFFFFFFFFFFFE0000000
FFFFFFFFFFFFFFFFFFFF00000000
FFFFFFFFFFFFFFFFFFF800000000
FFFFFFFFFFFFFFFFFFF800000000
FFFFFFFF8FFFFFFFFFF800000000
FFFFFFFF87FFFFFFFFFC00000000
FFFFFFFF83FFFFFFFFFE00000000
FFFFFFFF81FFFFFFFFFF00000000
FFFFFFFF81FFFFFFFFFF80000000
FFFFFFFF80FFFFFFFFFFC0000000
FFFFFFFF807FFFFFFFFFE0000000
FFFFFFFF803FFFFFFFFFE0000000
FFFFFFFF801FFFFFFFFFF0000000
FFFFFFFF801FFFFFFFFFF8000000
FFFFFFFF800FFFFFFFFFFC000000
FFFFFFFF8007FFFFFFFFFE000000
FFFFFFFF8003FFFFFFFFFF000000
FFFFFFFF8001FFFFFFFFFF000000
FFFFFFFF8001FFFFFFFFFF800000
FFFFFFFF8000FFFFFFFFFFC00000
FFFFFFFF80007FFFFFFFFFE00000
FFFFFFFF80003FFFFFFFFFF00000
FFFFFFFF80001FFFFFFFFFF80000
FFFFFFFF80001FFFFFFFFFF80000
FFFFFFFF80000FFFFFFFFFFC0000
FFFFFFFF800007FFFFFFFFFE0000
FFFFFFFF800003FFFFFFFFFF0000
FFFFFFFF800001FFFFFFFFFF8000
FFFFFFFF800000FFFFFFFFFFC000
FFFFFFFF800000FFFFFFFFFFE000
FFFFFFFF8000007FFFFFFFFFE000
FFFFFFFF8000003FFFFFFFFFF000
FFFFFFFF8000001FFFFFFFFFF800
FFFFFFFF8000000FFFFFFFFFFC00
FFFFFFFF8000000FFFFFFFFFFE00
FFFFFFFF80000007FFFFFFFFFF00
FFFFFFFF80000003FFFFFFFFFF00
FFFFFFFF80000001FFFFFFFFFF80
FFFFFFFF80000000FFFFFFFFFFC0
FFFFFFFF80000000FFFFFFFFFFE0
FFFFFFFF800000007FFFFFFFFFE0
FFFFFFFF800000003FFFFFFFFFF0
FFFFFFFF800000001FFFFFFFFFF0
FFFFFFFF800000000FFFFFFFFFF8
FFFFFFFF800000000FFFFFFFFFF8
FFFFFFFF8000000007FFFFFFFFF8
FFFFFFFF8000000003FFFFFFFFF8
FFFFFFFF0000000001FFFFFFFFF8
7FFFFFFF0000000000FFFFFFFFF8
7FFFFFFF00000000007FFFFFFFF8
3FFFFFFE00000000007FFFFFFFF8
3FFFFFFC00000000001FFFFFFFF0
1FFFFFF000000000000FFFFFFFE0
07FFFFC0000000000003FFFFFFC0
00FFFC000000000000007FFFFE00
ENDCHAR
STARTCHAR 0053
ENCODING 83
SWIDTH 557 0
DWIDTH 120 0
BBX 93 144 13 0
BITMAP
000000003FFFFFFFFFFFF800
0000003FFFFFFFFFFFFFFF00
000003FFFFFFFFFFFFFFFFC0
00001FFFFFFFFFFFFFFFFFE0
0000FFFFFFFFFFFFFFFFFFF0
0003FFFFFFFFFFFFFFFFFFF0
000FFFFFFFFFFFFFFFFFFFF8
001FFFFFFFFFFFFFFFFFFFF8
003FFFFFFFFFFFFFFFFFFFF8
007FFFFFFFFFFFFFFFFFFFF8
00FFFFFFFFFFFFFFFFFFFFF8
01FFFFFFFFFFFFFFFFFFFFF8
03FFFFFFFFFFFFFFFFFFFFF8
03FFFFFFFFFFFFFFFFFFFFF8
07FFFFFFFFFFFFFFFFFFFFF8
07FFFFFFFFFFFFFFFFFFFFF8
0FFFFFFFFFFFFFFFFFFFFFF8
0FFFFFFFFFFFFFFFFFFFFFF8
1FFFFFFFFFFFFFFFFFFFFFF8
1FFFFFFFFFFFFFFFFFFFFFF8
3FFFFFFFFFFFFFFFFFFFFFF8
3FFFFFFFFFFFFFFFFFFFFFF8
3FFFFFFFFFFFFFFFFFFFFFF8
3FFFFFFFFFFFFFFFFFFFFFF0
7FFFFFFFFFFFFFFFFFFFFFF0
7FFFFFFFFFFFFFFFFFFFFFF0
7FFFFFFFFFFFFFFFFFFFFFE0
7FFFFFFFFFFFFFFFFFFFFFC0
7FFFFFFFFFFFFFFFFFFFFF80
7FFFFFFFFFFFFFFFFFFFFE00
FFFFFFFFF800000000000000
FFFFFFFFC000000000000000
FFFFFFFF8000000000000000
FFFFFFFF8000000000000000
FFFFFFFF8000000000000000
FFFFFFFF0000000000000000
FFFFFFFF0000000000000000
FFFFFFFF0000000000000000
FFFFFFFF0000000000000000
FFFFFFFF0000000000000000
FFFFFFFF0000000000000000
FFFFFFFF0000000000000000
FFFFFFFF0000000000000000
FFFFFFFF0000000000000000
FFFFFFFF0000000000000000
FFFFFFFF0000000000000000
FFFFFFFF0000000000000000
FFFFFFFF0000000000000000
FFFFFFFF8000000000000000
FFFFFFFFC000000000000000
7FFFFFFFE000000000000000
7FFFFFFFF000000000000000
7FFFFFFFFE00000000000000
7FFFFFFFFF80000000000000
7FFFFFFFFFF0000000000000
7FFFFFFFFFFC000000000000
3FFFFFFFFFFF800000000000
3FFFFFFFFFFFE00000000000
3FFFFFFFFFFFFC0000000000
3FFFFFFFFFFFFF8000000000
1FFFFFFFFFFFFFE000000000
1FFFFFFFFFFFFFFC00000000
0FFFFFFFFFFFFFFF00000000
0FFFFFFFFFFFFFFFC0000000
07FFFFFFFFFFFFFFF8000000
03FFFFFFFFFFFFFFFE000000
03FFFFFFFFFFFFFFFF800000
01FFFFFFFFFFFFFFFFE00000
00FFFFFFFFFFFFFFFFF80000
007FFFFFFFFFFFFFFFFE0000
001FFFFFFFFFFFFFFFFF0000
000FFFFFFFFFFFFFFFFFC000
0003FFFFFFFFFFFFFFFFE000
0001FFFFFFFFFFFFFFFFF000
00007FFFFFFFFFFFFFFFF800
00001FFFFFFFFFFFFFFFFE00
000007FFFFFFFFFFFFFFFE00
000000FFFFFFFFFFFFFFFF00
0000003FFFFFFFFFFFFFFF80
0000000FFFFFFFFFFFFFFFC0
00000001FFFFFFFFFFFFFFC0
000000007FFFFFFFFFFFFFE0
000000000FFFFFFFFFFFFFE0
0000000003FFFFFFFFFFFFE0
00000000007FFFFFFFFFFFF0
00000000001FFFFFFFFFFFF0
000000000003FFFFFFFFFFF0
000000000000FFFFFFFFFFF0
0000000000001FFFFFFFFFF0
00000000000007FFFFFFFFF8
00000000000000FFFFFFFFF8
000000000000003FFFFFFFF8
000000000000001FFFFFFFF8
000000000000000FFFFFFFF8
000000000000000FFFFFFFF8
0000000000000007FFFFFFF8
0000000000000007FFFFFFF8
0000000000000007FFFFFFF8
0000000000000007FFFFFFF8
0000000000000007FFFFFFF8
0000000000000007FFFFFFF8
0000000000000007FFFFFFF8
0000000000000007FFFFFFF8
0000000000000007FFFFFFF8
0000000000000007FFFFFFF8
0000000000000007FFFFFFF8
0000000000000007FFFFFFF8
0000000000000007FFFFFFF8
0000000000000007FFFFFFF8
0000000000000007FFFFFFF8
0000000000000007FFFFFFF8
0000000000000007FFFFFFF8
000000000000000FFFFFFFF8
000000000000001FFFFFFFF8
000000000000007FFFFFFFF8
03FFFFFFFFFFFFFFFFFFFFF0
1FFFFFFFFFFFFFFFFFFFFFF0
3FFFFFFFFFFFFFFFFFFFFFF0
3FFFFFFFFFFFFFFFFFFFFFF0
7FFFFFFFFFFFFFFFFFFFFFF0
7FFFFFFFFFFFFFFFFFFFFFF0
FFFFFFFFFFFFFFFFFFFFFFF0
FFFFFFFFFFFFFFFFFFFFFFE0
FFFFFFFFFFFFFFFFFFFFFFE0
FFFFFFFFFFFFFFFFFFFFFFE0
FFFFFFFFFFFFFFFFFFFFFFC0
FFFFFFFFFFFFFFFFFFFFFFC0
FFFFFFFFFFFFFFFFFFFFFFC0
FFFFFFFFFFFFFFFFFFFFFF80
FFFFFFFFFFFFFFFFFFFFFF80
FFFFFFFFFFFFFFFFFFFFFF00
FFFFFFFFFFFFFFFFFFFFFE00
FFFFFFFFFFFFFFFFFFFFFC00
FFFFFFFFFFFFFFFFFFFFFC00
FFFFFFFFFFFFFFFFFFFFF800
FFFFFFFFFFFFFFFFFFFFE000
FFFFFFFFFFFFFFFFFFFFC000
7FFFFFFFFFFFFFFFFFFF8000
7FFFFFFFFFFFFFFFFFFE0000
3FFFFFFFFFFFFFFFFFF80000
1FFFFFFFFFFFFFFFFFC00000
07FFFFFFFFFFFFFFFE000000
007FFFFFFFFFFFFFE0000000
00001FFFFFFFFFE000000000
ENDCHAR
STARTCHAR 0054
ENCODING 84
SWIDTH 594 0
DWIDTH 128 0
BBX 113 144 6 0
BITMAP
01FFFFFFFFFFFFFFFFFFFFFFFFC000
0FFFFFFFFFFFFFFFFFFFFFFFFFF800
1FFFFFFFFFFFFFFFFFFFFFFFFFFC00
3FFFFFFFFFFFFFFFFFFFFFFFFFFE00
7FFFFFFFFFFFFFFFFFFFFFFFFFFF00
7FFFFFFFFFFFFFFFFFFFFFFFFFFF00
FFFFFFFFFFFFFFFFFFFFFFFFFFFF80
FFFFFFFFFFFFFFFFFFFFFFFFFFFF80
FFFFFFFFFFFFFFFFFFFFFFFFFFFF80
FFFFFFFFFFFFFFFFFFFFFFFFFFFF80
FFFFFFFFFFFFFFFFFFFFFFFFFFFF80
FFFFFFFFFFFFFFFFFFFFFFFFFFFF80
FFFFFFFFFFFFFFFFFFFFFFFFFFFF80
FFFFFFFFFFFFFFFFFFFFFFFFFFFF80
FFFFFFFFFFFFFFFFFFFFFFFFFFFF80
FFFFFFFFFFFFFFFFFFFFFFFFFFFF80
FFFFFFFFFFFFFFFFFFFFFFFFFFFF80
FFFFFFFFFFFFFFFFFFFFFFFFFFFF80
FFFFFFFFFFFFFFFFFFFFFFFFFFFF80
FFFFFFFFFFFFFFFFFFFFFFFFFFFF80
FFFFFFFFFFFFFFFFFFFFFFFFFFFF80
FFFFFFFFFFFFFFFFFFFFFFFFFFFF80
7FFFFFFFFFFFFFFFFFFFFFFFFFFF00
7FFFFFFFFFFFFFFFFFFFFFFFFFFF00
7FFFFFFFFFFFFFFFFFFFFFFFFFFF00
3FFFFFFFFFFFFFFFFFFFFFFFFFFE00
1FFFFFFFFFFFFFFFFFFFFFFFFFFC00
07FFFFFFFFFFFFFFFFFFFFFFFFF000
00FFFFFFFFFFFFFFFFFFFFFFFF8000
0000000000FFFFFFFF800000000000
0000000000FFFFFFFF800000000000
0000000000FFFFFFFF800000000000
0000000000FFFFFFFF800000000000
0000000000FFFFFFFF800000000000
0000000000FFFFFFFF800000000000
0000000000FFFFFFFF800000000000
0000000000FFFFFFFF800000000000
0000000000FFFFFFFF800000000000
0000000000FFFFFFFF800000000000
0000000000FFFFFFFF800000000000
0000000000FFFFFFFF800000000000
0000000000FFFFFFFF800000000000
0000000000FFFFFFFF800000000000
0000000000FFFFFFFF800000000000
0000000000FFFFFFFF800000000000
0000000000FFFFFFFF800000000000
0000000000FFFFFFFF800000000000
0000000000FFFFFFFF800000000000
0000000000FFFFFFFF800000000000
0000000000FFFFFFFF800000000000
0000000000FFFFFFFF800000000000
0000000000FFFFFFFF800000000000
0000000000FFFFFFFF800000000000
0000000000FFFFFFFF800000000000
0000000000FFFFFFFF800000000000
0000000000FFFFFFFF800000000000
0000000000FFFFFFFF800000000000
0000000000FFFFFFFF800000000000
0000000000FFFFFFFF800000000000
0000000000FFFFFFFF800000000000
0000000000FFFFFFFF800000000000
0000000000FFFFFFFF800000000000
0000000000FFFFFFFF800000000000
0000000000FFFFFFFF800000000000
0000000000FFFFFFFF800000000000
0000000000FFFFFFFF800000000000
0000000000FFFFFFFF800000000000
0000000000FFFFFFFF800000000000
0000000000FFFFFFFF800000000000
0000000000FFFFFFFF800000000000
0000000000FFFFFFFF800000000000
0000000000FFFFFFFF800000000000
0000000000FFFFFFFF800000000000
0000000000FFFFFFFF800000000000
0000000000FFFFFFFF800000000000
0000000000FFFFFFFF800000000000
0000000000FFFFFFFF800000000000
0000000000FFFFFFFF800000000000
0000000000FFFFFFFF800000000000
0000000000FFFFFFFF800000000000
0000000000FFFFFFFF800000000000
0000000000FFFFFFFF800000000000
0000000000FFFFFFFF800000000000
0000000000FFFFFFFF800000000000
0000000000FFFFFFFF800000000000
0000000000FFFFFFFF800000000000
0000000000FFFFFFFF800000000000
0000000000FFFFFFFF800000000000
0000000000FFFFFFFF800000000000
0000000000FFFFFFFF800000000000
0000000000FFFFFFFF800000000000
0000000000FFFFFFFF800000000000
0000000000FFFFFFFF800000000000
0000000000FFFFFFFF800000000000
0000000000FFFFFFFF800000000000
0000000000FFFFFFFF800000000000
0000000000FFFFFFFF800000000000
0000000000FFFFFFFF800000000000
0000000000FFFFFFFF800000000000
0000000000FFFFFFFF800000000000
0000000000FFFFFFFF800000000000
0000000000FFFFFFFF800000000000
0000000000FFFFFFFF800000000000
0000000000FFFFFFFF800000000000
0000000000FFFFFFFF800000000000
0000000000FFFFFFFF800000000000
0000000000FFFFFFFF800000000000
0000000000FFFFFFFF800000000000
0000000000FFFFFFFF800000000000
0000000000FFFFFFFF800000000000
0000000000FFFFFFFF800000000000
0000000000FFFFFFFF800000000000
0000000000FFFFFFFF800000000000
0000000000FFFFFFFF800000000000
0000000000FFFFFFFF800000000000
0000000000FFFFFFFF800000000000
0000000000FFFFFFFF800000000000
0000000000FFFFFFFF800000000000
0000000000FFFFFFFF800000000000
0000000000FFFFFFFF800000000000
0000000000FFFFFFFF800000000000
0000000000FFFFFFFF800000000000
0000000000FFFFFFFF800000000000
0000000000FFFFFFFF800000000000
0000000000FFFFFFFF800000000000
0000000000FFFFFFFF800000000000
0000000000FFFFFFFF800000000000
0000000000FFFFFFFF800000000000
0000000000FFFFFFFF800000000000
0000000000FFFFFFFF800000000000
0000000000FFFFFFFF800000000000
0000000000FFFFFFFF800000000000
0000000000FFFFFFFF800000000000
0000000000FFFFFFFF800000000000
0000000000FFFFFFFF800000000000
0000000000FFFFFFFF800000000000
0000000000FFFFFFFF000000000000
00000000007FFFFFFF000000000000
00000000007FFFFFFF000000000000
00000000003FFFFFFE000000000000
00000000003FFFFFFC000000000000
00000000001FFFFFF8000000000000
000000000007FFFFE0000000000000
000000000000FFFC00000000000000
ENDCHAR
STARTCHAR 0055
ENCODING 85
SWIDTH 696 0
DWIDTH 150 0
BBX 120 144 13 3
BITMAP
00FFFFC000000000000000001FFF80
07FFFFF80000000000000001FFFFF0
1FFFFFFC0000000000000007FFFFF8
3FFFFFFE000000000000001FFFFFFC
3FFFFFFF000000000000003FFFFFFE
7FFFFFFF000000000000007FFFFFFE
7FFFFFFF00000000000000FFFFFFFF
FFFFFFFF80000000000000FFFFFFFF
FFFFFFFF80000000000000FFFFFFFF
FFFFFFFF80000000000001FFFFFFFF
FFFFFFFF80000000000001FFFFFFFF
FFFFFFFF80000000000001FFFFFFFF
FFFFFFFF80000000000001FFFFFFFF
FFFFFFFF80000000000001FFFFFFFF
FFFFFFFF80000000000001FFFFFFFF
FFFFFFFF80000000000001FFFFFFFF
FFFFFFFF80000000000001FFFFFFFF
FFFFFFFF80000000000001FFFFFFFF
FFFFFFFF80000000000001FFFFFFFF
FFFFFFFF80000000000001FFFFFFFF
FFFFFFFF80000000000001FFFFFFFF
FFFFFFFF80000000000001FFFFFFFF
FFFFFFFF80000000000001FFFFFFFF
FFFFFFFF80000000000001FFFFFFFF
FFFFFFFF80000000000001FFFFFFFF
FFFFFFFF80000000000001FFFFFFFF
FFFFFFFF80000000000001FFFFFFFF
FFFFFFFF80000000000001FFFFFFFF
FFFFFFFF80000000000001FFFFFFFF
FFFFFFFF80000000000001FFFFFFFF
FFFFFFFF80000000000001FFFFFFFF
FFFFFFFF80000000000001FFFFFFFF
FFFFFFFF80000000000001FFFFFFFF
FFFFFFFF80000000000001FFFFFFFF
FFFFFFFF80000000000001FFFFFFFF
FFFFFFFF80000000000001FFFFFFFF
FFFFFFFF80000000000001FFFFFFFF
FFFFFFFF80000000000001FFFFFFFF
FFFFFFFF80000000000001FFFFFFFF
FFFFFFFF80000000000001FFFFFFFF
FFFFFFFF80000000000001FFFFFFFF
FFFFFFFF80000000000001FFFFFFFF
FFFFFFFF80000000000001FFFFFFFF
FFFFFFFF80000000000001FFFFFFFF
FFFFFFFF80000000000001FFFFFFFF
FFFFFFFF80000000000001FFFFFFFF
FFFFFFFF80000000000001FFFFFFFF
FFFFFFFF80000000000001FFFFFFFF
FFFFFFFF80000000000001FFFFFFFF
FFFFFFFF80000000000001FFFFFFFF
FFFFFFFF80000000000001FFFFFFFF
FFFFFFFF80000000000001FFFFFFFF
FFFFFFFF80000000000001FFFFFFFF
FFFFFFFF80000000000001FFFFFFFF
FFFFFFFF80000000000001FFFFFFFF
FFFFFFFF80000000000001FFFFFFFF
FFFFFFFF80000000000001FFFFFFFF
FFFFFFFF80000000000001FFFFFFFF
FFFFFFFF80000000000001FFFFFFFF
FFFFFFFF80000000000001FFFFFFFF
FFFFFFFF80000000000001FFFFFFFF
FFFFFFFF80000000000001FFFFFFFF
FFFFFFFF80000000000001FFFFFFFF
FFFFFFFF80000000000001FFFFFFFF
FFFFFFFF80000000000001FFFFFFFF
FFFFFFFF80000000000001FFFFFFFF
FFFFFFFF80000000000001FFFFFFFF
FFFFFFFF80000000000001FFFFFFFF
FFFFFFFF80000000000001FFFFFFFF
FFFFFFFF80000000000001FFFFFFFF
FFFFFFFF80000000000001FFFFFFFF
FFFFFFFF80000000000001FFFFFFFF
FFFFFFFF80000000000001FFFFFFFF
FFFFFFFF80000000000001FFFFFFFF
FFFFFFFF80000000000001FFFFFFFF
FFFFFFFF80000000000001FFFFFFFF
FFFFFFFF80000000000001FFFFFFFF
FFFFFFFF80000000000001FFFFFFFF
FFFFFFFF80000000000001FFFFFFFF
FFFFFFFF80000000000001FFFFFFFF
FFFFFFFF80000000000001FFFFFFFF
FFFFFFFF80000000000001FFFFFFFF
FFFFFFFF80000000000001FFFFFFFF
FFFFFFFF80000000000001FFFFFFFF
FFFFFFFF80000000000001FFFFFFFF
7FFFFFFF80000000000001FFFFFFFE
7FFFFFFF80000000000001FFFFFFFE
7FFFFFFFC0000000000001FFFFFFFE
7FFFFFFFC0000000000003FFFFFFFE
7FFFFFFFC0000000000003FFFFFFFE
7FFFFFFFC0000000000003FFFFFFFE
7FFFFFFFC0000000000003FFFFFFFE
7FFFFFFFC0000000000003FFFFFFFE
7FFFFFFFC0000000000003FFFFFFFE
7FFFFFFFC0000000000003FFFFFFFE
7FFFFFFFC0000000000003FFFFFFFE
7FFFFFFFE0000000000007FFFFFFFC
3FFFFFFFE0000000000007FFFFFFFC
3FFFFFFFE0000000000007FFFFFFFC
3FFFFFFFE0000000000007FFFFFFFC
3FFFFFFFF0000000000007FFFFFFFC
3FFFFFFFF000000000000FFFFFFFFC
3FFFFFFFF000000000000FFFFFFFFC
1FFFFFFFF000000000000FFFFFFFF8
1FFFFFFFF800000000001FFFFFFFF8
1FFFFFFFF800000000001FFFFFFFF8
1FFFFFFFFC00000000003FFFFFFFF8
1FFFFFFFFC00000000003FFFFFFFF8
0FFFFFFFFE00000000007FFFFFFFF0
0FFFFFFFFF0000000000FFFFFFFFF0
0FFFFFFFFF8000000001FFFFFFFFF0
07FFFFFFFFC000000003FFFFFFFFF0
07FFFFFFFFF00000000FFFFFFFFFE0
07FFFFFFFFFC0000003FFFFFFFFFE0
03FFFFFFFFFFF0000FFFFFFFFFFFE0
03FFFFFFFFFFFFFFFFFFFFFFFFFFC0
03FFFFFFFFFFFFFFFFFFFFFFFFFFC0
01FFFFFFFFFFFFFFFFFFFFFFFFFF80
01FFFFFFFFFFFFFFFFFFFFFFFFFF80
00FFFFFFFFFFFFFFFFFFFFFFFFFF80
00FFFFFFFFFFFFFFFFFFFFFFFFFF00
007FFFFFFFFFFFFFFFFFFFFFFFFF00
007FFFFFFFFFFFFFFFFFFFFFFFFE00
003FFFFFFFFFFFFFFFFFFFFFFFFE00
001FFFFFFFFFFFFFFFFFFFFFFFFC00
001FFFFFFFFFFFFFFFFFFFFFFFF800
000FFFFFFFFFFFFFFFFFFFFFFFF800
0007FFFFFFFFFFFFFFFFFFFFFFF000
0003FFFFFFFFFFFFFFFFFFFFFFE000
0001FFFFFFFFFFFFFFFFFFFFFFC000
0000FFFFFFFFFFFFFFFFFFFFFF8000
00007FFFFFFFFFFFFFFFFFFFFF0000
00003FFFFFFFFFFFFFFFFFFFFE0000
00001FFFFFFFFFFFFFFFFFFFFC0000
000007FFFFFFFFFFFFFFFFFFF80000
000003FFFFFFFFFFFFFFFFFFE00000
000000FFFFFFFFFFFFFFFFFFC00000
0000003FFFFFFFFFFFFFFFFF000000
0000000FFFFFFFFFFFFFFFFC000000
00000003FFFFFFFFFFFFFFF0000000
000000007FFFFFFFFFFFFF80000000
0000000007FFFFFFFFFFF800000000
00000000003FFFFFFFFF8000000000
0000000000007FFFFF800000000000
ENDCHAR
STARTCHAR 0056
ENCODING 86
SWIDTH 682 0
DWIDTH 147 0
BBX 130 144 7 0
BITMAP
03FFFFE000000000000000000003FFFC00
0FFFFFF80000000000000000007FFFFF00
3FFFFFFE000000000000000001FFFFFF80
7FFFFFFF000000000000000003FFFFFFC0
7FFFFFFF800000000000000007FFFFFFC0
FFFFFFFF80000000000000000FFFFFFFC0
FFFFFFFFC0000000000000001FFFFFFFC0
FFFFFFFFC0000000000000001FFFFFFFC0
FFFFFFFFE0000000000000003FFFFFFFC0
FFFFFFFFE0000000000000003FFFFFFFC0
FFFFFFFFE0000000000000007FFFFFFFC0
FFFFFFFFF0000000000000007FFFFFFFC0
FFFFFFFFF000000000000000FFFFFFFF80
7FFFFFFFF800000000000000FFFFFFFF80
7FFFFFFFF800000000000000FFFFFFFF80
3FFFFFFFF800000000000001FFFFFFFF00
3FFFFFFFFC00000000000001FFFFFFFF00
3FFFFFFFFC00000000000003FFFFFFFF00
1FFFFFFFFC00000000000003FFFFFFFE00
1FFFFFFFFE00000000000003FFFFFFFE00
1FFFFFFFFE00000000000007FFFFFFFC00
0FFFFFFFFE00000000000007FFFFFFFC00
0FFFFFFFFF00000000000007FFFFFFFC00
07FFFFFFFF0000000000000FFFFFFFF800
07FFFFFFFF0000000000000FFFFFFFF800
07FFFFFFFF8000000000000FFFFFFFF800
03FFFFFFFF8000000000001FFFFFFFF000
03FFFFFFFFC000000000001FFFFFFFF000
01FFFFFFFFC000000000001FFFFFFFE000
01FFFFFFFFC000000000003FFFFFFFE000
01FFFFFFFFE000000000003FFFFFFFE000
00FFFFFFFFE000000000007FFFFFFFC000
00FFFFFFFFE000000000007FFFFFFFC000
00FFFFFFFFF000000000007FFFFFFFC000
007FFFFFFFF00000000000FFFFFFFF8000
007FFFFFFFF00000000000FFFFFFFF8000
003FFFFFFFF80000000000FFFFFFFF8000
003FFFFFFFF80000000001FFFFFFFF0000
003FFFFFFFF80000000001FFFFFFFF0000
001FFFFFFFFC0000000001FFFFFFFE0000
001FFFFFFFFC0000000003FFFFFFFE0000
001FFFFFFFFE0000000003FFFFFFFE0000
000FFFFFFFFE0000000007FFFFFFFC0000
000FFFFFFFFE0000000007FFFFFFFC0000
0007FFFFFFFF0000000007FFFFFFFC0000
0007FFFFFFFF000000000FFFFFFFF80000
0007FFFFFFFF000000000FFFFFFFF80000
0003FFFFFFFF800000000FFFFFFFF00000
0003FFFFFFFF800000001FFFFFFFF00000
0003FFFFFFFF800000001FFFFFFFF00000
0001FFFFFFFFC00000001FFFFFFFE00000
0001FFFFFFFFC00000003FFFFFFFE00000
0000FFFFFFFFC00000003FFFFFFFE00000
0000FFFFFFFFE00000003FFFFFFFC00000
0000FFFFFFFFE00000007FFFFFFFC00000
00007FFFFFFFF00000007FFFFFFF800000
00007FFFFFFFF0000000FFFFFFFF800000
00007FFFFFFFF0000000FFFFFFFF800000
00003FFFFFFFF8000000FFFFFFFF000000
00003FFFFFFFF8000001FFFFFFFF000000
00001FFFFFFFF8000001FFFFFFFF000000
00001FFFFFFFFC000001FFFFFFFE000000
00001FFFFFFFFC000003FFFFFFFE000000
00000FFFFFFFFC000003FFFFFFFC000000
00000FFFFFFFFE000003FFFFFFFC000000
00000FFFFFFFFE000007FFFFFFFC000000
000007FFFFFFFE000007FFFFFFF8000000
000007FFFFFFFF000007FFFFFFF8000000
000003FFFFFFFF00000FFFFFFFF8000000
000003FFFFFFFF00000FFFFFFFF0000000
000003FFFFFFFF80001FFFFFFFF0000000
000001FFFFFFFF80001FFFFFFFF0000000
000001FFFFFFFFC0001FFFFFFFE0000000
000000FFFFFFFFC0003FFFFFFFE0000000
000000FFFFFFFFC0003FFFFFFFC0000000
000000FFFFFFFFE0003FFFFFFFC0000000
0000007FFFFFFFE0007FFFFFFFC0000000
0000007FFFFFFFE0007FFFFFFF80000000
0000007FFFFFFFF0007FFFFFFF80000000
0000003FFFFFFFF000FFFFFFFF80000000
0000003FFFFFFFF000FFFFFFFF00000000
0000001FFFFFFFF800FFFFFFFF00000000
0000001FFFFFFFF801FFFFFFFE00000000
0000001FFFFFFFF801FFFFFFFE00000000
0000000FFFFFFFFC03FFFFFFFE00000000
0000000FFFFFFFFC03FFFFFFFC00000000
0000000FFFFFFFFE03FFFFFFFC00000000
00000007FFFFFFFE07FFFFFFFC00000000
00000007FFFFFFFE07FFFFFFF800000000
00000003FFFFFFFF07FFFFFFF800000000
00000003FFFFFFFF0FFFFFFFF000000000
00000003FFFFFFFF0FFFFFFFF000000000
00000001FFFFFFFF8FFFFFFFF000000000
00000001FFFFFFFF9FFFFFFFE000000000
00000001FFFFFFFF9FFFFFFFE000000000
00000000FFFFFFFFDFFFFFFFE000000000
00000000FFFFFFFFFFFFFFFFC000000000
000000007FFFFFFFFFFFFFFFC000000000
000000007FFFFFFFFFFFFFFF8000000000
000000007FFFFFFFFFFFFFFF8000000000
000000003FFFFFFFFFFFFFFF8000000000
000000003FFFFFFFFFFFFFFF0000000000
000000003FFFFFFFFFFFFFFF0000000000
000000001FFFFFFFFFFFFFFF0000000000
000000001FFFFFFFFFFFFFFE0000000000
000000000FFFFFFFFFFFFFFE0000000000
000000000FFFFFFFFFFFFFFC0000000000
000000000FFFFFFFFFFFFFFC0000000000
0000000007FFFFFFFFFFFFFC0000000000
0000000007FFFFFFFFFFFFF80000000000
0000000007FFFFFFFFFFFFF80000000000
0000000003FFFFFFFFFFFFF80000000000
0000000003FFFFFFFFFFFFF00000000000
0000000001FFFFFFFFFFFFF00000000000
0000000001FFFFFFFFFFFFF00000000000
0000000001FFFFFFFFFFFFE00000000000
0000000000FFFFFFFFFFFFE00000000000
0000000000FFFFFFFFFFFFC00000000000
00000000007FFFFFFFFFFFC00000000000
00000000007FFFFFFFFFFFC00000000000
00000000007FFFFFFFFFFF800000000000
00000000003FFFFFFFFFFF800000000000
00000000003FFFFFFFFFFF800000000000
00000000003FFFFFFFFFFF000000000000
00000000001FFFFFFFFFFF000000000000
00000000001FFFFFFFFFFE000000000000
00000000000FFFFFFFFFFE000000000000
00000000000FFFFFFFFFFE000000000000
00000000000FFFFFFFFFFC000000000000
000000000007FFFFFFFFFC000000000000
000000000007FFFFFFFFFC000000000000
000000000007FFFFFFFFF8000000000000
000000000003FFFFFFFFF8000000000000
000000000003FFFFFFFFF0000000000000
000000000001FFFFFFFFF0000000000000
000000000001FFFFFFFFE0000000000000
000000000000FFFFFFFFE0000000000000
000000000000FFFFFFFFC0000000000000
0000000000007FFFFFFF80000000000000
0000000000007FFFFFFF00000000000000
0000000000003FFFFFFE00000000000000
0000000000001FFFFFFC00000000000000
00000000000007FFFFF000000000000000
00000000000000FFFE0000000000000000
ENDCHAR
ENDFONT
